<svg xmlns="http://www.w3.org/2000/svg" xmlns:xlink="http://www.w3.org/1999/xlink" xmlns:lucid="lucid" width="1905" height="1127"><g transform="translate(1237.0456113518699 1174.029963990808)" lucid:page-tab-id="0_0"><path d="M-1500-1500h2500V0h-2500z" fill="#fff"/><path d="M-1116.05-1039.92v10m0 9.98v19.98m0 10v19.98m0 10v19.97m0 9.98v20m0 9.98v19.98m0 10v19.97m0 10v20m0 9.98v19.98m0 10v19.98m0 10v19.97m0 10v19.98m0 10v19.98m0 10v19.97m0 10v19.98m0 10v19.98m0 10v19.97m0 10v19.98m0 10v19.97m0 10v19.97m0 10v19.98m0 10v19.97m0 10v19.98m0 10v19.97m0 10v19.97m0 10v19.98m0 10v19.97m0 9.98v20m0 9.98v19.98m0 10v19.97m0 10v20m0 9.98v19.98m0 10v19.98m0 10v9.98" stroke="#000" stroke-width="2" stroke-linecap="round" fill="none"/><path d="M-1136.05-959.5a6 6 0 0 1 6-6h28a6 6 0 0 1 6 6v786.47a6 6 0 0 1-6 6h-28a6 6 0 0 1-6-6zM-1125.55-1153.45a10.5 10.5 0 0 1 10.5-10.5 10.5 10.5 0 0 1 10.5 10.5 10.5 10.5 0 0 1-10.5 10.5 10.5 10.5 0 0 1-10.5-10.5" stroke="#000" stroke-width="2" fill="#fff"/><path d="M-1136.05-1157.95a6 6 0 0 1 6-6h30a6 6 0 0 1 6 6v82.92a6 6 0 0 1-6 6h-30a6 6 0 0 1-6-6z" fill="none"/><path d="M-1115.05-1142.95v35.95l21 37.97m-21-37.97l-21 37.97m0-63.42h42" stroke="#000" stroke-width="2" fill="none"/><use xlink:href="#a" transform="matrix(1,0,0,1,-1216.0456113518699,-1069.029963990808) translate(60.34787326388889 21.52777777777778)"/><path d="M-575.1-1117.03c0 27.6-22.4 50-50 50-27.63 0-50-22.4-50-50s22.37-50 50-50c27.6 0 50 22.4 50 50z" stroke="#000" stroke-width="2" fill="#fff"/><path d="M-615.1-1173.03l-10 6 10 7.2" stroke="#000" stroke-width="2" fill="none"/><use xlink:href="#b" transform="matrix(1,0,0,1,-715.11418063257,-1067.029963990808) translate(-9.348958333333314 21.52777777777778)"/><path d="M-815.1-1117.03c0 27.6-22.4 50-50 50-27.63 0-50-22.4-50-50s22.37-50 50-50c27.6 0 50 22.4 50 50z" stroke="#000" stroke-width="2" fill="#fff"/><path d="M-935.1-1167.03v100m0-50h20" stroke="#000" stroke-width="2" fill="none"/><use xlink:href="#c" transform="matrix(1,0,0,1,-955.11418063257,-1067.029963990808) translate(35.39930555555556 21.52777777777778)"/><use xlink:href="#d" transform="matrix(1,0,0,1,-955.11418063257,-1067.029963990808) translate(122.09635416666667 21.52777777777778)"/><path d="M-875.1-1041.2v10.02m0 10.03v20.05m0 10.03V-971m0 10.02v20.06m0 10.02v20.06m0 10.03v20.05m0 10.03v20.05m0 10.03v20.06m0 10.03v20.06m0 10.03v20.06m0 10.02v20.06m0 10.03v20.06m0 10.03v20.05m0 10.03v20.06m0 10.02v20.06m0 10.03v20.06m0 10.04v20.05m0 10.02v20.06m0 10.03v20.06m0 10.03v20.05m0 10.03v20.06m0 10.03v20.05m0 10.03v20.06m0 10.04v20.05m0 10.02v20.06m0 10.03v20.07m0 10.03v20.05m0 10.03v20.06m0 10.03v20.05m0 10.03v20.06m0 10.04v20.06m0 10.03v20.05m0 10.03v20.07m0 10.03v10.03" stroke="#000" stroke-width="2" stroke-linecap="round" fill="none"/><path d="M-895.1-959.5a6 6 0 0 1 6-6h28a6 6 0 0 1 6 6v766.47a6 6 0 0 1-6 6h-28a6 6 0 0 1-6-6zM-205.1-1117.03c0 27.6-22.4 50-50 50-27.63 0-50-22.4-50-50s22.37-50 50-50c27.6 0 50 22.4 50 50z" stroke="#000" stroke-width="2" fill="#fff"/><path d="M-245.1-1173.03l-10 6 10 7.2" stroke="#000" stroke-width="2" fill="none"/><use xlink:href="#e" transform="matrix(1,0,0,1,-345.11322517086,-1067.029963990808) translate(2.608506944444443 21.52777777777778)"/><path d="M-625.1-1057.36v9.88m0 9.88v19.76m0 9.88v19.76m0 9.88v19.76m0 9.88v19.76m0 9.88v19.76m0 9.88v19.76m0 9.88V-840m0 9.88v19.76m0 9.88v19.76m0 9.9v19.75m0 9.88v19.77m0 9.88v19.76m0 9.9v19.75m0 9.88v19.76m0 9.87v19.76m0 9.88v19.77m0 9.88v19.76m0 9.9v19.75m0 9.88v19.76m0 9.87v19.76m0 9.88v19.77m0 9.88v19.76m0 9.9v19.75m0 9.88v19.76m0 9.87v19.76m0 9.88v19.77m0 9.88v19.77m0 9.88v19.76m0 9.88v19.76m0 9.88v19.76m0 9.88v19.76m0 9.88v19.76m0 9.88v19.76m0 9.88v9.88" stroke="#000" stroke-width="2" stroke-linecap="round" fill="none"/><path d="M-645.1-939.5a6 6 0 0 1 6-6h28a6 6 0 0 1 6 6v726.47a6 6 0 0 1-6 6h-28a6 6 0 0 1-6-6z" stroke="#000" stroke-width="2" fill="#fff"/><path d="M-852.6-947.03h180" stroke="#3a414a" stroke-width="3" fill="none"/><path d="M-852.58-945.55h-1.53v-2.96h1.52z" stroke="#3a414a" stroke-width=".05" fill="#3a414a"/><path d="M-658.1-947.03l-13 7.5v-15z" stroke="#3a414a" stroke-width="3" fill="#3a414a"/><use xlink:href="#f" transform="matrix(1,0,0,1,-787.7918051293924,-971.2846939217922) translate(0 16.216875)"/><path d="M-1094.74-963.38h182.33" stroke="#3a414a" stroke-width="3" fill="none"/><path d="M-1094.7-961.9h-.8l-.3-.77-.58-.94-.7-.85-.5-.4h2.88z" stroke="#3a414a" stroke-width=".05" fill="#3a414a"/><path d="M-897.92-963.38l-13 7.5v-15z" stroke="#3a414a" stroke-width="3" fill="#3a414a"/><use xlink:href="#g" transform="matrix(1,0,0,1,-1032.0024910477034,-987.6302147111332) translate(0 16.216875)"/><path d="M-602.6-905.5h312.43" stroke="#3a414a" stroke-width="3" fill="none"/><path d="M-602.58-904.02h-1.53v-2.95h1.52z" stroke="#3a414a" stroke-width=".05" fill="#3a414a"/><path d="M-275.68-905.5l-13 7.5v-15z" stroke="#3a414a" stroke-width="3" fill="#3a414a"/><use xlink:href="#h" transform="matrix(1,0,0,1,-530.6244128972824,-929.7474308668185) translate(0 16.216875)"/><path d="M-255.1-1039.18v10m0 10v20m0 9.98v20m0 10v20m0 10v19.98m0 10v20m0 10v19.98m0 10v20m0 10v20m0 10v19.98m0 10v20m0 10v19.98m0 10v20m0 10v20m0 9.98v20m0 10v20m0 10v19.98m0 10v20m0 10v20m0 9.98v20m0 10v20m0 10v19.98m0 10v20m0 10v19.98m0 10v20m0 10v20m0 9.98v20m0 10v20m0 10v19.98m0 10v20m0 10v20m0 9.98v20m0 10v20m0 10v9.98" stroke="#000" stroke-width="2" stroke-linecap="round" fill="none"/><path d="M-275.1-899.5a6 6 0 0 1 6-6h28a6 6 0 0 1 6 6v666.47a6 6 0 0 1-6 6h-28a6 6 0 0 1-6-6zM263.95-1117.03c0 27.6-22.38 50-50 50-27.6 0-50-22.4-50-50s22.4-50 50-50c27.62 0 50 22.4 50 50z" stroke="#000" stroke-width="2" fill="#fff"/><path d="M223.95-1173.03l-10 6 10 7.2" stroke="#000" stroke-width="2" fill="none"/><use xlink:href="#i" transform="matrix(1,0,0,1,123.95438864813013,-1067.029963990808) translate(-13.944227430555557 21.52777777777778)"/><path d="M213.9-1041.2v10.02m0 10.03v20.07m0 10.03V-971m0 10.05v20.06m0 10.04v20.07m0 10.04v20.06m0 10.03v20.07m0 10.03v20.07m0 10.03v20.06m0 10.02v20.07m0 10.02v20.06m0 10.04v20.06m0 10.03V-670m0 10.03v20.07m0 10.04v20.07m0 10.03v20.07m0 10.03v20.06m0 10.04v20.06m0 10.03v20.06m0 10.03v20.05m0 10.03v20.07m0 10.03v20.07m0 10.03v20.06m0 10.03v20.07m0 10.03v20.06m0 10.04v20.06m0 10.03v20.07m0 10.03v20.06m0 10.04v20.06m0 10.03v20.07m0 10.03v20.06m0 10.05v20.06m0 10.04v20.07m0 10.04v10.03" stroke="#000" stroke-width="2" stroke-linecap="round" fill="none"/><path d="M-10.45-562.63c-27.62 0-50-22.4-50-50s22.38-50 50-50c27.6 0 50 22.4 50 50s-22.4 50-50 50z" stroke="#000" stroke-width="2" fill="#fff"/><path d="M-60.45-562.63h100" stroke="#000" stroke-width="2" fill="none"/><use xlink:href="#j" transform="matrix(1,0,0,1,-100.45281853947063,-562.6299639908079) translate(36.29991319444444 21.52777777777778)"/><use xlink:href="#k" transform="matrix(1,0,0,1,-100.45281853947063,-562.6299639908079) translate(137.29817708333331 21.52777777777778)"/><use xlink:href="#l" transform="matrix(1,0,0,1,-100.45281853947063,-562.6299639908079) translate(42.33289930555556 53.79340277777778)"/><path d="M-895.28-184.65h-3.12m-12.5 0h-6.25m-12.5 0h-6.24m-12.5 0h-6.23m-12.5 0h-6.25m-12.5 0h-6.24m-12.5 0h-6.25m-12.5 0h-6.24m-12.5 0h-6.25m-12.5 0h-6.25m-12.5 0h-3.12M-895.32-184.65h1.54M-1073.72-174.65l-17.33-10 17.33-10m-17.33 10h8.5M-646.27-206.6h-2.97m-11.85 0h-5.9m-11.86 0h-5.92m-11.85 0h-5.93m-11.85 0h-5.93m-11.85 0h-5.93m-11.85 0h-5.93m-11.85 0h-5.92m-11.85 0h-5.92m-11.86 0h-5.92m-11.85 0h-5.92m-11.85 0h-2.96M-646.3-206.6h1.53M-832.8-196.6l-17.3-10 17.3-10m-17.3 10h8.5" stroke="#3a414a" stroke-width="3" fill="none"/><path d="M-230.6-301.73h408.06M-230.57-301.73h-1.54" stroke="#000" stroke-width="3" fill="none"/><path d="M191.95-301.73l-13 7.5v-15z" stroke="#000" stroke-width="3"/><use xlink:href="#m" transform="matrix(1,0,0,1,37.9321021938957,-327.24439120532213) translate(0 17.22222222222222)"/><path d="M-276.38-227.03h-2.92m-11.68 0h-5.84m-11.68 0h-5.84m-11.68 0h-5.85m-11.68 0h-5.84m-11.67 0h-5.84m-11.7 0h-5.83m-11.7 0h-5.83m-11.68 0h-5.84m-11.68 0H-437m-11.68 0h-5.84m-11.7 0h-5.83m-11.68 0h-5.84m-11.68 0h-5.84m-11.67 0h-5.84m-11.7 0h-5.84m-11.68 0h-5.84m-11.68 0h-5.84m-11.68 0h-2.92M-276.42-227.03h1.54M-582.8-217.03l-17.3-10 17.3-10m-17.3 10h8.5M194.33-247.03h-3m-12.04 0h-6.03m-12.03 0h-6m-12.05 0h-6.02m-12.03 0h-6.02m-12.03 0h-6.02m-12.03 0h-6.02m-12.03 0h-6.02m-12.03 0h-6m-12.05 0h-6m-12.04 0h-6.02m-12.03 0h-6m-12.04 0h-6.02m-12.03 0h-6m-12.04 0h-6m-12.05 0h-6m-12.04 0h-6m-12.04 0h-6.02m-12.03 0h-6.02m-12.03 0h-6.02m-12.03 0h-6.02m-12.03 0h-6m-12.05 0h-6m-12.05 0h-3" stroke="#3a414a" stroke-width="3" fill="none"/><path d="M195.23-248.5l.06.26.4 1.02.6.94.6.72h-2.6v-2.94z" stroke="#3a414a" stroke-width=".05" fill="#3a414a"/><path d="M-211.8-237.03l-17.3-10 17.3-10m-17.3 10h8.5M-10.45-560.13v15.33m0 15.33v30.66m0 15.3v30.67m0 15.33v30.66m0 15.32v30.66m0 15.33v30.66m0 15.33v30.65m0 15.34v30.66m0 15.33v30.65m0 15.33v30.67m0 15.33v30.66m0 15.32v15.33" stroke="#3a414a" stroke-width="3" fill="none"/><path d="M-10.48-561.63h1.5v1.54h-2.95v-1.53z" stroke="#3a414a" stroke-width=".05" fill="#3a414a"/><path d="M-10.45-54.33v1.54" stroke="#3a414a" stroke-width="3" fill="none"/><path d="M666.95-246.23c0 6.2-35.8 11.2-80 11.2-44.18 0-80-5-80-11.2v-89.6c0-6.2 35.82-11.2 80-11.2 44.2 0 80 5 80 11.2z" stroke="#000" stroke-width="2" fill="#fff"/><path d="M666.95-335.83c0 6.2-35.8 11.2-80 11.2-44.18 0-80-5-80-11.2" stroke="#000" stroke-width="2" fill="none"/><path d="M238.45-291.03h250" stroke="#3a414a" stroke-width="3" fill="none"/><path d="M238.5-289.56h-1.55v-2.94h1.54z" stroke="#3a414a" stroke-width=".05" fill="#3a414a"/><path d="M502.95-291.03l-13 7.5v-15z" stroke="#3a414a" stroke-width="3" fill="#3a414a"/><use xlink:href="#n" transform="matrix(1,0,0,1,283.0421326333194,-315.28471008455796) translate(0 16.216875)"/><use xlink:href="#o" transform="matrix(1,0,0,1,283.0421326333194,-315.28471008455796) translate(42.953466796875006 16.216875)"/><path d="M504.45-264.4h-3.05m-12.2 0h-6.1m-12.2 0h-6.1m-12.2 0h-6.1m-12.2 0h-6.1m-12.2 0h-6.08m-12.2 0h-6.1m-12.2 0h-6.1m-12.2 0h-6.1m-12.2 0h-6.1m-12.2 0h-6.1m-12.2 0h-6.1m-12.2 0h-6.1m-12.2 0h-6.1m-12.2 0h-3.03" stroke="#3a414a" stroke-width="3" fill="none"/><path d="M505.95-262.93h-1.53v-2.95h1.53z" stroke="#3a414a" stroke-width=".05" fill="#3a414a"/><path d="M257.27-254.4l-17.32-10 17.32-10m-17.32 10h8.5" stroke="#3a414a" stroke-width="3" fill="none"/><path d="M195.95-318.4a6 6 0 0 1 6-6h28a6 6 0 0 1 6 6v68a6 6 0 0 1-6 6h-28a6 6 0 0 1-6-6z" stroke="#000" stroke-width="2" fill="#fff"/><path d="M-1236.05-881.03a6 6 0 0 1 6-6h793a6 6 0 0 1 6 6v8a14.48 14.48 0 0 1-4.24 10.24l-1.5 1.53a14.48 14.48 0 0 1-10.25 4.24h-783a6 6 0 0 1-6-6z" fill-opacity="0"/><path d="M-431.05-887.03v20l-10 10h-795" stroke="#000" stroke-width="2" fill="none"/><path d="M-1236.05-881.03a6 6 0 0 1 6-6h1068a6 6 0 0 1 6 6v108a6 6 0 0 1-6 6h-1068a6 6 0 0 1-6-6z" stroke="#000" stroke-width="2" fill="none"/><use xlink:href="#p" transform="matrix(1,0,0,1,-1228.0456113518699,-887.029963990808) translate(0 23.08376736111111)"/><use xlink:href="#q" transform="matrix(1,0,0,1,-1228.0456113518699,-887.029963990808) translate(31.705729166666668 23.08376736111111)"/><use xlink:href="#r" transform="matrix(1,0,0,1,-1228.0456113518699,-887.029963990808) translate(89.71354166666667 23.08376736111111)"/><use xlink:href="#s" transform="matrix(1,0,0,1,-1228.0456113518699,-887.029963990808) translate(210.42751736111111 23.08376736111111)"/><use xlink:href="#t" transform="matrix(1,0,0,1,-1228.0456113518699,-887.029963990808) translate(277.64756944444446 23.08376736111111)"/><use xlink:href="#u" transform="matrix(1,0,0,1,-1228.0456113518699,-887.029963990808) translate(389.55078125 23.08376736111111)"/><use xlink:href="#v" transform="matrix(1,0,0,1,-1228.0456113518699,-887.029963990808) translate(467.58897569444446 23.08376736111111)"/><use xlink:href="#w" transform="matrix(1,0,0,1,-1228.0456113518699,-887.029963990808) translate(487.16362847222223 23.08376736111111)"/><use xlink:href="#x" transform="matrix(1,0,0,1,-1228.0456113518699,-887.029963990808) translate(518.2834201388889 23.08376736111111)"/><use xlink:href="#y" transform="matrix(1,0,0,1,-1228.0456113518699,-887.029963990808) translate(576.46484375 23.08376736111111)"/><use xlink:href="#z" transform="matrix(1,0,0,1,-1228.0456113518699,-887.029963990808) translate(607.4001736111111 23.08376736111111)"/><path d="M-281.37-822.24h-2.92m-11.66 0h-5.84m-11.67 0h-5.83m-11.68 0h-5.83m-11.7 0h-5.82m-11.68 0h-5.83m-11.68 0h-5.84m-11.68 0h-5.83m-11.68 0h-5.83m-11.68 0h-5.83m-11.68 0h-5.83m-11.67 0h-5.84m-11.66 0h-5.84m-11.67 0h-5.84m-11.68 0h-5.84m-11.67 0h-5.83m-11.67 0h-5.84m-11.67 0h-5.85m-11.67 0h-2.92M-281.4-822.24h1.53M-587.55-812.24l-17.32-10 17.32-10m-17.32 10h8.5" stroke="#3a414a" stroke-width="3" fill="none"/><use xlink:href="#A" transform="matrix(1,0,0,1,-504.4848781506613,-847.7529724736802) translate(0 17.22222222222222)"/><use xlink:href="#B" transform="matrix(1,0,0,1,-504.4848781506613,-847.7529724736802) translate(78.11631944444444 17.22222222222222)"/><path d="M-651.37-810.58h-2.96m-11.82 0h-5.92m-11.83 0h-5.9m-11.84 0h-5.9m-11.84 0h-5.92m-11.83 0h-5.9m-11.84 0h-5.9m-11.84 0h-5.92m-11.83 0h-5.92m-11.83 0h-5.9m-11.84 0h-5.9m-11.84 0h-2.96M-651.4-810.58h1.53M-837.55-800.58l-17.32-10 17.32-10m-17.32 10h8.5" stroke="#3a414a" stroke-width="3" fill="none"/><use xlink:href="#A" transform="matrix(1,0,0,1,-814.4853535779718,-836.0863058472156) translate(0 17.22222222222222)"/><use xlink:href="#B" transform="matrix(1,0,0,1,-814.4853535779718,-836.0863058472156) translate(78.11631944444444 17.22222222222222)"/><path d="M-895.3-789.58h-2.9m-11.66 0h-5.82m-11.65 0h-5.82m-11.65 0h-5.82m-11.65 0h-5.82m-11.64 0h-5.82m-11.65 0h-5.83m-11.65 0h-5.82m-11.65 0h-5.82m-11.65 0h-5.82m-11.65 0h-5.8m-11.66 0h-2.9M-895.34-789.58h1.54M-1078.48-779.58l-17.32-10 17.32-10m-17.32 10h8.5" stroke="#3a414a" stroke-width="3" fill="none"/><use xlink:href="#A" transform="matrix(1,0,0,1,-1056.9167908982804,-815.0863057207887) translate(0 17.22222222222222)"/><use xlink:href="#B" transform="matrix(1,0,0,1,-1056.9167908982804,-815.0863057207887) translate(78.11631944444444 17.22222222222222)"/><path d="M-232.6-350.17h204.66" stroke="#3a414a" stroke-width="3" fill="none"/><path d="M-232.57-348.7h-1.54v-2.94h1.53z" stroke="#3a414a" stroke-width=".05" fill="#3a414a"/><path d="M-13.45-350.17l-13 7.5v-15z" stroke="#3a414a" stroke-width="3" fill="#3a414a"/><use xlink:href="#C" transform="matrix(1,0,0,1,-194.2821956820515,-374.419860143427) translate(0 16.216875)"/><path d="M663.95-686.23c0 6.2-35.8 11.2-80 11.2-44.18 0-80-5-80-11.2v-89.6c0-6.2 35.82-11.2 80-11.2 44.2 0 80 5 80 11.2z" stroke="#000" stroke-width="2" fill="#fff"/><path d="M663.95-775.83c0 6.2-35.8 11.2-80 11.2-44.18 0-80-5-80-11.2" stroke="#000" stroke-width="2" fill="none"/><path d="M192.9-747.3a6 6 0 0 1 6-6h28a6 6 0 0 1 6 6v274.27a6 6 0 0 1-6 6h-28a6 6 0 0 1-6-6z" stroke="#000" stroke-width="2" fill="#fff"/><path d="M-233.6-753.3H177.8M-233.57-753.3h-1.54" stroke="#3a414a" stroke-width="3" fill="none"/><path d="M192.3-753.3l-12.98 7.5v-15z" stroke="#3a414a" stroke-width="3" fill="#3a414a"/><use xlink:href="#D" transform="matrix(1,0,0,1,-107.89021694802038,-777.5463011258987) translate(0 16.216875)"/><use xlink:href="#E" transform="matrix(1,0,0,1,-107.89021694802038,-777.5463011258987) translate(46.885078125000014 16.216875)"/><path d="M235.4-731.03h250.06" stroke="#3a414a" stroke-width="3" fill="none"/><path d="M235.42-729.55h-1.53v-2.96h1.52z" stroke="#3a414a" stroke-width=".05" fill="#3a414a"/><path d="M499.95-731.03l-13 7.5v-15z" stroke="#3a414a" stroke-width="3" fill="#3a414a"/><use xlink:href="#F" transform="matrix(1,0,0,1,272.6330080473403,-755.2846937587874) translate(0 16.216875)"/><use xlink:href="#G" transform="matrix(1,0,0,1,272.6330080473403,-755.2846937587874) translate(61.43449218750001 16.216875)"/><path d="M501.45-710.4h-3.05m-12.2 0h-6.1m-12.2 0h-6.1m-12.2 0h-6.1m-12.2 0h-6.1m-12.2 0h-6.1m-12.2 0h-6.1m-12.2 0h-6.1m-12.22 0h-6.1m-12.2 0h-6.1m-12.2 0h-6.1m-12.2 0h-6.1m-12.2 0h-6.1m-12.2 0h-6.1m-12.2 0h-3.06" stroke="#3a414a" stroke-width="3" fill="none"/><path d="M502.95-708.93h-1.53v-2.95h1.53z" stroke="#3a414a" stroke-width=".05" fill="#3a414a"/><path d="M254.2-700.4l-17.3-10 17.3-10m-17.3 10h8.5M190.4-696.55h-3m-11.98 0h-6m-11.97 0h-6m-11.96 0h-6m-11.98 0h-5.98m-11.98 0h-6m-11.96 0h-6m-11.97 0h-5.98m-11.98 0h-6m-11.97 0h-5.98m-11.98 0h-6m-11.96 0h-6m-11.97 0h-5.97m-11.98 0h-6m-11.96 0h-6m-11.98 0h-6m-11.96 0h-6m-11.97 0h-6m-11.97 0h-6m-11.96 0h-6m-11.97 0h-5.98m-11.98 0h-6m-11.96 0h-6m-11.97 0h-2.98" stroke="#3a414a" stroke-width="3" fill="none"/><path d="M191.9-695.08h-1.55v-2.95h1.54z" stroke="#3a414a" stroke-width=".05" fill="#3a414a"/><path d="M-213.8-686.55l-17.3-10 17.3-10m-17.3 10h8.5M190.4-484.38h-2.9m-11.47 0h-5.74m-11.5 0h-5.74m-11.5 0h-5.73m-11.5 0h-5.73m-11.48 0h-5.75m-11.48 0h-5.75m-11.5 0h-5.73m-11.5 0H49.7m-11.5 0h-5.74m-11.48 0h-5.75m-11.48 0H.88" stroke="#3a414a" stroke-width="3" fill="none"/><path d="M191.9-482.9h-1.55v-2.95h1.54z" stroke="#3a414a" stroke-width=".05" fill="#3a414a"/><path d="M9.87-474.38l-17.32-10 17.32-10m-17.32 10h8.5M-281.37-662.24h-2.92m-11.66 0h-5.84m-11.67 0h-5.83m-11.68 0h-5.83m-11.7 0h-5.82m-11.68 0h-5.83m-11.68 0h-5.84m-11.68 0h-5.83m-11.68 0h-5.83m-11.68 0h-5.83m-11.68 0h-5.83m-11.67 0h-5.84m-11.66 0h-5.84m-11.67 0h-5.84m-11.68 0h-5.84m-11.67 0h-5.83m-11.67 0h-5.84m-11.67 0h-5.85m-11.67 0h-2.92M-281.4-662.24h1.53M-587.55-652.24l-17.32-10 17.32-10m-17.32 10h8.5" stroke="#3a414a" stroke-width="3" fill="none"/><use xlink:href="#A" transform="matrix(1,0,0,1,-504.4848781506613,-687.7529724736803) translate(0 17.22222222222222)"/><use xlink:href="#B" transform="matrix(1,0,0,1,-504.4848781506613,-687.7529724736803) translate(78.11631944444444 17.22222222222222)"/><path d="M-651.37-650.58h-2.96m-11.82 0h-5.92m-11.83 0h-5.9m-11.84 0h-5.9m-11.84 0h-5.92m-11.83 0h-5.9m-11.84 0h-5.9m-11.84 0h-5.92m-11.83 0h-5.92m-11.83 0h-5.9m-11.84 0h-5.9m-11.84 0h-2.96M-651.4-650.58h1.53M-837.55-640.58l-17.32-10 17.32-10m-17.32 10h8.5" stroke="#3a414a" stroke-width="3" fill="none"/><use xlink:href="#A" transform="matrix(1,0,0,1,-814.4853535779718,-676.0863058472157) translate(0 17.22222222222222)"/><use xlink:href="#B" transform="matrix(1,0,0,1,-814.4853535779718,-676.0863058472157) translate(78.11631944444444 17.22222222222222)"/><path d="M-895.3-629.58h-2.9m-11.66 0h-5.82m-11.65 0h-5.82m-11.65 0h-5.82m-11.65 0h-5.82m-11.64 0h-5.82m-11.65 0h-5.83m-11.65 0h-5.82m-11.65 0h-5.82m-11.65 0h-5.82m-11.65 0h-5.8m-11.66 0h-2.9M-895.34-629.58h1.54M-1078.48-619.58l-17.32-10 17.32-10m-17.32 10h8.5" stroke="#3a414a" stroke-width="3" fill="none"/><use xlink:href="#A" transform="matrix(1,0,0,1,-1056.9167908982804,-655.0863057207887) translate(0 17.22222222222222)"/><use xlink:href="#B" transform="matrix(1,0,0,1,-1056.9167908982804,-655.0863057207887) translate(78.11631944444444 17.22222222222222)"/><path d="M-1236.05-721.03a6 6 0 0 1 6-6h793a6 6 0 0 1 6 6v8a14.48 14.48 0 0 1-4.24 10.24l-1.5 1.53a14.48 14.48 0 0 1-10.25 4.24h-783a6 6 0 0 1-6-6z" fill-opacity="0"/><path d="M-431.05-727.03v20l-10 10h-795" stroke="#000" stroke-width="2" fill="none"/><path d="M-1236.05-721.03a6 6 0 0 1 6-6h1068a6 6 0 0 1 6 6v108a6 6 0 0 1-6 6h-1068a6 6 0 0 1-6-6z" stroke="#000" stroke-width="2" fill="none"/><g><use xlink:href="#p" transform="matrix(1,0,0,1,-1228.0456113518699,-727.029963990808) translate(0 23.08376736111111)"/><use xlink:href="#q" transform="matrix(1,0,0,1,-1228.0456113518699,-727.029963990808) translate(31.705729166666668 23.08376736111111)"/><use xlink:href="#r" transform="matrix(1,0,0,1,-1228.0456113518699,-727.029963990808) translate(89.71354166666667 23.08376736111111)"/><use xlink:href="#H" transform="matrix(1,0,0,1,-1228.0456113518699,-727.029963990808) translate(210.42751736111111 23.08376736111111)"/><use xlink:href="#I" transform="matrix(1,0,0,1,-1228.0456113518699,-727.029963990808) translate(257.0963541666667 23.08376736111111)"/><use xlink:href="#J" transform="matrix(1,0,0,1,-1228.0456113518699,-727.029963990808) translate(325.05425347222223 23.08376736111111)"/><use xlink:href="#K" transform="matrix(1,0,0,1,-1228.0456113518699,-727.029963990808) translate(357.57378472222223 23.08376736111111)"/><use xlink:href="#L" transform="matrix(1,0,0,1,-1228.0456113518699,-727.029963990808) translate(458.5720486111111 23.08376736111111)"/><use xlink:href="#M" transform="matrix(1,0,0,1,-1228.0456113518699,-727.029963990808) translate(503.97135416666663 23.08376736111111)"/><use xlink:href="#N" transform="matrix(1,0,0,1,-1228.0456113518699,-727.029963990808) translate(547.3849826388888 23.08376736111111)"/></g><path d="M-281.37-437.74h-2.92m-11.66 0h-5.84m-11.67 0h-5.83m-11.68 0h-5.83m-11.7 0h-5.82m-11.68 0h-5.83m-11.68 0h-5.84m-11.68 0h-5.83m-11.68 0h-5.83m-11.68 0h-5.83m-11.68 0h-5.83m-11.67 0h-5.84m-11.66 0h-5.84m-11.67 0h-5.84m-11.68 0h-5.84m-11.67 0h-5.83m-11.67 0h-5.84m-11.67 0h-5.85m-11.67 0h-2.92M-281.4-437.74h1.53M-587.55-427.74l-17.32-10 17.32-10m-17.32 10h8.5" stroke="#3a414a" stroke-width="3" fill="none"/><g><use xlink:href="#A" transform="matrix(1,0,0,1,-504.4848781506613,-463.25297247368025) translate(0 17.22222222222222)"/><use xlink:href="#B" transform="matrix(1,0,0,1,-504.4848781506613,-463.25297247368025) translate(78.11631944444444 17.22222222222222)"/></g><path d="M-651.37-426.08h-2.96m-11.82 0h-5.92m-11.83 0h-5.9m-11.84 0h-5.9m-11.84 0h-5.92m-11.83 0h-5.9m-11.84 0h-5.9m-11.84 0h-5.92m-11.83 0h-5.92m-11.83 0h-5.9m-11.84 0h-5.9m-11.84 0h-2.96M-651.4-426.08h1.53M-837.55-416.08l-17.32-10 17.32-10m-17.32 10h8.5" stroke="#3a414a" stroke-width="3" fill="none"/><g><use xlink:href="#A" transform="matrix(1,0,0,1,-814.4853535779718,-451.58630584721567) translate(0 17.22222222222222)"/><use xlink:href="#B" transform="matrix(1,0,0,1,-814.4853535779718,-451.58630584721567) translate(78.11631944444444 17.22222222222222)"/></g><path d="M-895.3-405.08h-2.9m-11.66 0h-5.82m-11.65 0h-5.82m-11.65 0h-5.82m-11.65 0h-5.82m-11.64 0h-5.82m-11.65 0h-5.83m-11.65 0h-5.82m-11.65 0h-5.82m-11.65 0h-5.82m-11.65 0h-5.8m-11.66 0h-2.9M-895.34-405.08h1.54M-1078.48-395.08l-17.32-10 17.32-10m-17.32 10h8.5" stroke="#3a414a" stroke-width="3" fill="none"/><g><use xlink:href="#A" transform="matrix(1,0,0,1,-1056.9167908982804,-430.5863057207886) translate(0 17.22222222222222)"/><use xlink:href="#B" transform="matrix(1,0,0,1,-1056.9167908982804,-430.5863057207886) translate(78.11631944444444 17.22222222222222)"/></g><path d="M-1236.05-496.53a6 6 0 0 1 6-6h793a6 6 0 0 1 6 6v8a14.48 14.48 0 0 1-4.24 10.24l-1.5 1.53a14.48 14.48 0 0 1-10.25 4.24h-783a6 6 0 0 1-6-6z" fill-opacity="0"/><path d="M-431.05-502.53v20l-10 10h-795" stroke="#000" stroke-width="2" fill="none"/><path d="M-1236.05-496.53a6 6 0 0 1 6-6h1068a6 6 0 0 1 6 6v108a6 6 0 0 1-6 6h-1068a6 6 0 0 1-6-6z" stroke="#000" stroke-width="2" fill="none"/><g><use xlink:href="#p" transform="matrix(1,0,0,1,-1228.0456113518699,-502.529963990808) translate(0 23.08376736111111)"/><use xlink:href="#q" transform="matrix(1,0,0,1,-1228.0456113518699,-502.529963990808) translate(31.705729166666668 23.08376736111111)"/><use xlink:href="#r" transform="matrix(1,0,0,1,-1228.0456113518699,-502.529963990808) translate(89.71354166666667 23.08376736111111)"/><use xlink:href="#O" transform="matrix(1,0,0,1,-1228.0456113518699,-502.529963990808) translate(210.42751736111111 23.08376736111111)"/><use xlink:href="#K" transform="matrix(1,0,0,1,-1228.0456113518699,-502.529963990808) translate(245.76822916666669 23.08376736111111)"/><use xlink:href="#P" transform="matrix(1,0,0,1,-1228.0456113518699,-502.529963990808) translate(346.76649305555554 23.08376736111111)"/><use xlink:href="#Q" transform="matrix(1,0,0,1,-1228.0456113518699,-502.529963990808) translate(377.87543402777777 23.08376736111111)"/><use xlink:href="#R" transform="matrix(1,0,0,1,-1228.0456113518699,-502.529963990808) translate(428.66753472222223 23.08376736111111)"/><use xlink:href="#S" transform="matrix(1,0,0,1,-1228.0456113518699,-502.529963990808) translate(487.93402777777777 23.08376736111111)"/><use xlink:href="#T" transform="matrix(1,0,0,1,-1228.0456113518699,-502.529963990808) translate(520.7465277777778 23.08376736111111)"/></g><defs><path d="M763 24c-353 0-583-224-583-531v-983h190v968c0 214 149 370 393 370 243 0 391-156 391-370v-968h190v983c0 307-230 531-581 531" id="U"/><path d="M538 24C308 24 148-78 108-271l171-41c32 123 123 178 257 178 156 0 256-77 256-169 0-77-54-128-164-154l-186-44c-203-48-300-148-300-305 0-192 176-326 414-326 230 0 351 112 402 269l-163 42c-31-80-94-158-238-158-133 0-233 69-233 162 0 83 57 129 188 160l169 40c203 48 298 149 298 302 0 196-179 339-441 339" id="V"/><path d="M537 14c-226 0-379-139-379-422v-710h180v695c0 172 97 275 253 275 160 0 281-109 281-300v-670h181V0H879v-209C806-46 684 14 537 14" id="W"/><path d="M471 26C259 26 90-98 90-318c0-256 228-303 435-329 202-27 287-16 287-108 0-139-79-219-234-219-161 0-248 86-283 164l-173-57c86-203 278-265 451-265 150 0 419 46 419 395V0H815v-152h-12C765-73 660 26 471 26zm31-159c199 0 310-134 310-271v-155c-30 35-226 55-295 64-131 17-246 59-246 186 0 116 97 176 231 176" id="X"/><path d="M158 0v-1118h174v172h12c41-113 157-188 290-188 26 0 70 2 91 3v181c-11-2-60-10-108-10-161 0-279 109-279 260V0H158" id="Y"/><path d="M158 0v-1118h180V0H158zm91-1301c-68 0-125-53-125-119s57-119 125-119c69 0 126 53 126 119s-57 119-126 119" id="Z"/><path d="M613 24c-304 0-509-231-509-576 0-350 205-580 509-580 305 0 511 230 511 580 0 345-206 576-511 576zm0-161c226 0 329-195 329-415 0-222-103-419-329-419-223 0-326 196-326 419 0 220 103 415 326 415" id="aa"/><g id="a"><use transform="matrix(0.010850694444444444,0,0,0.010850694444444444,0,0)" xlink:href="#U"/><use transform="matrix(0.010850694444444444,0,0,0.010850694444444444,16.536458333333332,0)" xlink:href="#V"/><use transform="matrix(0.010850694444444444,0,0,0.010850694444444444,28.266059027777775,0)" xlink:href="#W"/><use transform="matrix(0.010850694444444444,0,0,0.010850694444444444,41.40625,0)" xlink:href="#X"/><use transform="matrix(0.010850694444444444,0,0,0.010850694444444444,53.88454861111112,0)" xlink:href="#Y"/><use transform="matrix(0.010850694444444444,0,0,0.010850694444444444,62.59765625,0)" xlink:href="#Z"/><use transform="matrix(0.010850694444444444,0,0,0.010850694444444444,67.97960069444444,0)" xlink:href="#aa"/></g><path d="M180 0v-1490h510c348 0 508 209 508 474 0 266-160 477-507 477H370V0H180zm190-706h312c236 0 327-133 327-310 0-176-91-307-329-307H370v617" id="ab"/><path d="M577 24c-279 0-473-224-473-580 0-354 195-576 474-576 218 0 287 134 324 193h14v-551h180V0H922v-173h-20C865-111 790 24 577 24zm27-161c203 0 314-172 314-421 0-247-108-413-314-413-212 0-317 181-317 413 0 235 108 421 317 421" id="ac"/><path d="M613 24c-304 0-509-231-509-576 0-350 205-580 509-580 216 0 392 114 453 309l-173 49c-33-115-133-197-280-197-223 0-326 196-326 419 0 220 103 415 326 415 150 0 252-85 285-206l172 49C1010-95 832 24 613 24" id="ad"/><path d="M598-1118v154H368v674c0 100 37 144 132 144 23 0 62-6 92-12L629-6c-37 13-88 20-134 20-193 0-307-107-307-290v-688H20v-154h168v-266h180v266h230" id="ae"/><path d="M783 20c-382 0-661-292-661-764 0-473 279-766 661-766 302 0 548 182 601 489h-190c-42-204-217-313-411-313-268 0-476 208-476 590 0 381 209 588 476 588 195 0 369-110 411-313h190c-52 303-296 489-601 489" id="af"/><path d="M338-670V0H158v-1118h173l1 207c72-158 192-221 342-221 226 0 378 139 378 422V0H872v-695c0-172-96-275-252-275-161 0-282 109-282 300" id="ag"/><path d="M338-1490V0H158v-1490h180" id="ah"/><path d="M628 24c-324 0-524-230-524-574 0-343 198-582 503-582 237 0 487 146 487 559v75H286c9 234 145 362 343 362 132 0 231-58 273-172l174 48C1024-91 857 24 628 24zM287-650h624c-17-190-120-322-304-322-192 0-309 151-320 322" id="ai"/><g id="b"><use transform="matrix(0.010850694444444444,0,0,0.010850694444444444,0,0)" xlink:href="#ab"/><use transform="matrix(0.010850694444444444,0,0,0.010850694444444444,14.192708333333332,0)" xlink:href="#Y"/><use transform="matrix(0.010850694444444444,0,0,0.010850694444444444,22.189670138888886,0)" xlink:href="#aa"/><use transform="matrix(0.010850694444444444,0,0,0.010850694444444444,35.514322916666664,0)" xlink:href="#ac"/><use transform="matrix(0.010850694444444444,0,0,0.010850694444444444,49.12109375,0)" xlink:href="#W"/><use transform="matrix(0.010850694444444444,0,0,0.010850694444444444,62.26128472222222,0)" xlink:href="#ad"/><use transform="matrix(0.010850694444444444,0,0,0.010850694444444444,74.95659722222223,0)" xlink:href="#ae"/><use transform="matrix(0.010850694444444444,0,0,0.010850694444444444,82.00954861111111,0)" xlink:href="#aa"/><use transform="matrix(0.010850694444444444,0,0,0.010850694444444444,95.33420138888889,0)" xlink:href="#af"/><use transform="matrix(0.010850694444444444,0,0,0.010850694444444444,111.56684027777777,0)" xlink:href="#aa"/><use transform="matrix(0.010850694444444444,0,0,0.010850694444444444,124.89149305555556,0)" xlink:href="#ag"/><use transform="matrix(0.010850694444444444,0,0,0.010850694444444444,138.02083333333331,0)" xlink:href="#ae"/><use transform="matrix(0.010850694444444444,0,0,0.010850694444444444,145.2907986111111,0)" xlink:href="#Y"/><use transform="matrix(0.010850694444444444,0,0,0.010850694444444444,153.28776041666663,0)" xlink:href="#aa"/><use transform="matrix(0.010850694444444444,0,0,0.010850694444444444,166.6124131944444,0)" xlink:href="#ah"/><use transform="matrix(0.010850694444444444,0,0,0.010850694444444444,171.99435763888886,0)" xlink:href="#ah"/><use transform="matrix(0.010850694444444444,0,0,0.010850694444444444,177.37630208333331,0)" xlink:href="#ai"/><use transform="matrix(0.010850694444444444,0,0,0.010850694444444444,190.33203124999994,0)" xlink:href="#Y"/></g><path d="M370-1490V0H180v-1490h190" id="aj"/><path d="M678-1118v154H420V0H240v-964H20v-154h220v-149c0-194 155-293 318-293 85 0 141 18 168 30l-50 154c-19-6-47-17-97-17-111 0-159 58-159 166v109h258" id="ak"/><path d="M126 0v-134l627-806v-11H146v-167h839v143L376-178v11h629V0H126" id="al"/><g id="c"><use transform="matrix(0.010850694444444444,0,0,0.010850694444444444,0,0)" xlink:href="#aj"/><use transform="matrix(0.010850694444444444,0,0,0.010850694444444444,5.967881944444445,0)" xlink:href="#ag"/><use transform="matrix(0.010850694444444444,0,0,0.010850694444444444,19.09722222222222,0)" xlink:href="#ae"/><use transform="matrix(0.010850694444444444,0,0,0.010850694444444444,26.15017361111111,0)" xlink:href="#ai"/><use transform="matrix(0.010850694444444444,0,0,0.010850694444444444,39.10590277777778,0)" xlink:href="#Y"/><use transform="matrix(0.010850694444444444,0,0,0.010850694444444444,47.819010416666664,0)" xlink:href="#ak"/><use transform="matrix(0.010850694444444444,0,0,0.010850694444444444,55.69661458333333,0)" xlink:href="#X"/><use transform="matrix(0.010850694444444444,0,0,0.010850694444444444,68.17491319444444,0)" xlink:href="#al"/></g><g id="d"><use transform="matrix(0.010850694444444444,0,0,0.010850694444444444,0,0)" xlink:href="#U"/><use transform="matrix(0.010850694444444444,0,0,0.010850694444444444,16.536458333333332,0)" xlink:href="#aj"/></g><path d="M657 26c-323 0-524-166-541-416h195c15 169 171 246 346 246 202 0 356-106 356-265 5-203-294-238-475-293-239-73-380-191-380-389 0-252 224-419 512-419 294 0 499 171 508 396H992c-17-145-151-228-328-228-193 0-321 102-321 242 0 156 175 211 284 241l149 41c160 44 422 134 422 412 0 244-197 432-541 432" id="am"/><path d="M481 0L54-1118h197c107 314 236 620 325 951 87-331 217-637 324-951h197L670 0H481" id="an"/><g id="e"><use transform="matrix(0.010850694444444444,0,0,0.010850694444444444,0,0)" xlink:href="#ab"/><use transform="matrix(0.010850694444444444,0,0,0.010850694444444444,14.192708333333332,0)" xlink:href="#Y"/><use transform="matrix(0.010850694444444444,0,0,0.010850694444444444,22.189670138888886,0)" xlink:href="#aa"/><use transform="matrix(0.010850694444444444,0,0,0.010850694444444444,35.514322916666664,0)" xlink:href="#ac"/><use transform="matrix(0.010850694444444444,0,0,0.010850694444444444,49.12109375,0)" xlink:href="#W"/><use transform="matrix(0.010850694444444444,0,0,0.010850694444444444,62.26128472222222,0)" xlink:href="#ad"/><use transform="matrix(0.010850694444444444,0,0,0.010850694444444444,74.95659722222223,0)" xlink:href="#ae"/><use transform="matrix(0.010850694444444444,0,0,0.010850694444444444,82.00954861111111,0)" xlink:href="#aa"/><use transform="matrix(0.010850694444444444,0,0,0.010850694444444444,95.33420138888889,0)" xlink:href="#am"/><use transform="matrix(0.010850694444444444,0,0,0.010850694444444444,109.59201388888889,0)" xlink:href="#ai"/><use transform="matrix(0.010850694444444444,0,0,0.010850694444444444,122.54774305555556,0)" xlink:href="#Y"/><use transform="matrix(0.010850694444444444,0,0,0.010850694444444444,131.26085069444446,0)" xlink:href="#an"/><use transform="matrix(0.010850694444444444,0,0,0.010850694444444444,143.75,0)" xlink:href="#Z"/><use transform="matrix(0.010850694444444444,0,0,0.010850694444444444,149.13194444444446,0)" xlink:href="#ad"/><use transform="matrix(0.010850694444444444,0,0,0.010850694444444444,161.82725694444446,0)" xlink:href="#ai"/></g><path d="M180 0v-1490h908v168H370v486h669v168H370v500h727V0H180" id="ao"/><path d="M218-607c0-325 108-727 258-974h175c-155 315-250 682-250 974 0 265 78 531 250 886H476C306-10 218-315 218-607" id="ap"/><path d="M96 279C273-86 346-350 346-607c0-292-95-659-250-974h175c150 246 258 650 258 974 0 297-91 602-258 886H96" id="aq"/><g id="f"><use transform="matrix(0.008173828125000001,0,0,0.008173828125000001,0,0)" xlink:href="#ao"/><use transform="matrix(0.008173828125000001,0,0,0.008173828125000001,10.061982421875001,0)" xlink:href="#an"/><use transform="matrix(0.008173828125000001,0,0,0.008173828125000001,19.14310546875,0)" xlink:href="#ai"/><use transform="matrix(0.008173828125000001,0,0,0.008173828125000001,28.90265625,0)" xlink:href="#ag"/><use transform="matrix(0.008173828125000001,0,0,0.008173828125000001,38.792988281250004,0)" xlink:href="#ae"/><use transform="matrix(0.008173828125000001,0,0,0.008173828125000001,44.105976562500004,0)" xlink:href="#aa"/><use transform="matrix(0.008173828125000001,0,0,0.008173828125000001,54.143437500000005,0)" xlink:href="#ap"/><use transform="matrix(0.008173828125000001,0,0,0.008173828125000001,60.249287109375004,0)" xlink:href="#aq"/></g><path d="M158 0v-1118h175l1 205c55-151 181-225 313-225 147 0 245 90 285 228 53-141 190-228 352-228 194 0 352 125 352 384V0h-181v-749c0-161-105-225-225-225-151 0-243 103-243 244V0H807v-767c0-124-93-207-219-207-131 0-250 92-250 270V0H158" id="ar"/><path d="M677 24c-213 0-288-135-325-197h-20V0H158v-1490h180v551h14c37-59 106-193 324-193 279 0 474 222 474 576 0 356-194 580-473 580zm-27-161c209 0 317-186 317-421 0-232-105-413-317-413-206 0-314 166-314 413 0 249 111 421 314 421" id="as"/><g id="g"><use transform="matrix(0.008173828125000001,0,0,0.008173828125000001,0,0)" xlink:href="#af"/><use transform="matrix(0.008173828125000001,0,0,0.008173828125000001,12.228046875000002,0)" xlink:href="#X"/><use transform="matrix(0.008173828125000001,0,0,0.008173828125000001,21.627949218750004,0)" xlink:href="#ar"/><use transform="matrix(0.008173828125000001,0,0,0.008173828125000001,36.291796875,0)" xlink:href="#as"/><use transform="matrix(0.008173828125000001,0,0,0.008173828125000001,46.541777343750006,0)" xlink:href="#Z"/><use transform="matrix(0.008173828125000001,0,0,0.008173828125000001,50.59599609375,0)" xlink:href="#aa"/><use transform="matrix(0.008173828125000001,0,0,0.008173828125000001,60.633457031249996,0)" xlink:href="#ap"/><use transform="matrix(0.008173828125000001,0,0,0.008173828125000001,66.739306640625,0)" xlink:href="#aq"/></g><path d="M158 418v-1536h174v179h20c37-59 106-193 324-193 279 0 474 222 474 576 0 356-194 580-473 580-213 0-288-135-325-197h-14v591H158zm492-555c209 0 317-186 317-421 0-232-105-413-317-413-206 0-314 166-314 413 0 249 111 421 314 421" id="at"/><g id="h"><use transform="matrix(0.008173828125000001,0,0,0.008173828125000001,0,0)" xlink:href="#as"/><use transform="matrix(0.008173828125000001,0,0,0.008173828125000001,10.249980468750001,0)" xlink:href="#aa"/><use transform="matrix(0.008173828125000001,0,0,0.008173828125000001,20.287441406250004,0)" xlink:href="#Y"/><use transform="matrix(0.008173828125000001,0,0,0.008173828125000001,26.851025390625004,0)" xlink:href="#Y"/><use transform="matrix(0.008173828125000001,0,0,0.008173828125000001,33.153046875,0)" xlink:href="#X"/><use transform="matrix(0.008173828125000001,0,0,0.008173828125000001,42.55294921875,0)" xlink:href="#Y"/><use transform="matrix(0.008173828125000001,0,0,0.008173828125000001,49.116533203125,0)" xlink:href="#ab"/><use transform="matrix(0.008173828125000001,0,0,0.008173828125000001,59.807900390625,0)" xlink:href="#Y"/><use transform="matrix(0.008173828125000001,0,0,0.008173828125000001,65.83201171875,0)" xlink:href="#aa"/><use transform="matrix(0.008173828125000001,0,0,0.008173828125000001,75.86947265625,0)" xlink:href="#ac"/><use transform="matrix(0.008173828125000001,0,0,0.008173828125000001,86.11945312499999,0)" xlink:href="#W"/><use transform="matrix(0.008173828125000001,0,0,0.008173828125000001,96.017958984375,0)" xlink:href="#ad"/><use transform="matrix(0.008173828125000001,0,0,0.008173828125000001,105.58133789062501,0)" xlink:href="#ae"/><use transform="matrix(0.008173828125000001,0,0,0.008173828125000001,110.89432617187501,0)" xlink:href="#aa"/><use transform="matrix(0.008173828125000001,0,0,0.008173828125000001,120.93178710937501,0)" xlink:href="#ap"/><use transform="matrix(0.008173828125000001,0,0,0.008173828125000001,127.03763671875002,0)" xlink:href="#at"/><use transform="matrix(0.008173828125000001,0,0,0.008173828125000001,137.28761718750002,0)" xlink:href="#Y"/><use transform="matrix(0.008173828125000001,0,0,0.008173828125000001,143.31172851562502,0)" xlink:href="#aa"/><use transform="matrix(0.008173828125000001,0,0,0.008173828125000001,153.349189453125,0)" xlink:href="#ac"/><use transform="matrix(0.008173828125000001,0,0,0.008173828125000001,163.59916992187502,0)" xlink:href="#aj"/><use transform="matrix(0.008173828125000001,0,0,0.008173828125000001,168.09477539062502,0)" xlink:href="#ac"/><use transform="matrix(0.008173828125000001,0,0,0.008173828125000001,178.34475585937503,0)" xlink:href="#aq"/></g><path d="M180 0v-1490h510c348 0 508 194 508 460 0 198-88 351-276 417L1256 0h-220L726-579c-117 2-238 0-356 1V0H180zm190-747h312c235 0 327-108 327-283 0-177-92-293-329-293H370v576" id="au"/><path d="M140 405l46-156c120 36 205 19 263-150l32-93L54-1118h197c107 313 237 620 324 950 87-331 219-637 326-950h196L606 167c-68 178-176 259-334 259-64 0-113-12-132-21" id="av"/><g id="i"><use transform="matrix(0.010850694444444444,0,0,0.010850694444444444,0,0)" xlink:href="#ab"/><use transform="matrix(0.010850694444444444,0,0,0.010850694444444444,14.192708333333332,0)" xlink:href="#Y"/><use transform="matrix(0.010850694444444444,0,0,0.010850694444444444,22.189670138888886,0)" xlink:href="#aa"/><use transform="matrix(0.010850694444444444,0,0,0.010850694444444444,35.514322916666664,0)" xlink:href="#ac"/><use transform="matrix(0.010850694444444444,0,0,0.010850694444444444,49.12109375,0)" xlink:href="#W"/><use transform="matrix(0.010850694444444444,0,0,0.010850694444444444,62.26128472222222,0)" xlink:href="#ad"/><use transform="matrix(0.010850694444444444,0,0,0.010850694444444444,74.95659722222223,0)" xlink:href="#ae"/><use transform="matrix(0.010850694444444444,0,0,0.010850694444444444,82.00954861111111,0)" xlink:href="#aa"/><use transform="matrix(0.010850694444444444,0,0,0.010850694444444444,95.33420138888889,0)" xlink:href="#au"/><use transform="matrix(0.010850694444444444,0,0,0.010850694444444444,109.30989583333333,0)" xlink:href="#ai"/><use transform="matrix(0.010850694444444444,0,0,0.010850694444444444,122.265625,0)" xlink:href="#at"/><use transform="matrix(0.010850694444444444,0,0,0.010850694444444444,135.87239583333334,0)" xlink:href="#aa"/><use transform="matrix(0.010850694444444444,0,0,0.010850694444444444,149.19704861111111,0)" xlink:href="#V"/><use transform="matrix(0.010850694444444444,0,0,0.010850694444444444,160.92664930555557,0)" xlink:href="#Z"/><use transform="matrix(0.010850694444444444,0,0,0.010850694444444444,166.30859375000003,0)" xlink:href="#ae"/><use transform="matrix(0.010850694444444444,0,0,0.010850694444444444,173.3615451388889,0)" xlink:href="#aa"/><use transform="matrix(0.010850694444444444,0,0,0.010850694444444444,186.68619791666669,0)" xlink:href="#Y"/><use transform="matrix(0.010850694444444444,0,0,0.010850694444444444,195.3993055555556,0)" xlink:href="#av"/></g><g id="j"><use transform="matrix(0.010850694444444444,0,0,0.010850694444444444,0,0)" xlink:href="#at"/><use transform="matrix(0.010850694444444444,0,0,0.010850694444444444,13.606770833333332,0)" xlink:href="#Y"/><use transform="matrix(0.010850694444444444,0,0,0.010850694444444444,21.603732638888886,0)" xlink:href="#aa"/><use transform="matrix(0.010850694444444444,0,0,0.010850694444444444,34.928385416666664,0)" xlink:href="#ac"/><use transform="matrix(0.010850694444444444,0,0,0.010850694444444444,48.53515625,0)" xlink:href="#W"/><use transform="matrix(0.010850694444444444,0,0,0.010850694444444444,61.67534722222222,0)" xlink:href="#ad"/><use transform="matrix(0.010850694444444444,0,0,0.010850694444444444,74.37065972222223,0)" xlink:href="#ae"/><use transform="matrix(0.010850694444444444,0,0,0.010850694444444444,81.42361111111111,0)" xlink:href="#aa"/></g><path d="M295 13c-75 0-135-60-135-135s60-135 135-135 135 60 135 135S370 13 295 13zm0-809c-75 0-135-60-135-135s60-135 135-135 135 60 135 135-60 135-135 135" id="aw"/><use transform="matrix(0.010850694444444444,0,0,0.010850694444444444,0,0)" xlink:href="#aw" id="k"/><g id="l"><use transform="matrix(0.010850694444444444,0,0,0.010850694444444444,0,0)" xlink:href="#ab"/><use transform="matrix(0.010850694444444444,0,0,0.010850694444444444,14.192708333333332,0)" xlink:href="#Y"/><use transform="matrix(0.010850694444444444,0,0,0.010850694444444444,22.189670138888886,0)" xlink:href="#aa"/><use transform="matrix(0.010850694444444444,0,0,0.010850694444444444,35.514322916666664,0)" xlink:href="#ac"/><use transform="matrix(0.010850694444444444,0,0,0.010850694444444444,49.12109375,0)" xlink:href="#W"/><use transform="matrix(0.010850694444444444,0,0,0.010850694444444444,62.26128472222222,0)" xlink:href="#ad"/><use transform="matrix(0.010850694444444444,0,0,0.010850694444444444,74.95659722222223,0)" xlink:href="#ae"/><use transform="matrix(0.010850694444444444,0,0,0.010850694444444444,82.00954861111111,0)" xlink:href="#aa"/></g><g id="m"><use transform="matrix(0.008680555555555556,0,0,0.008680555555555556,0,0)" xlink:href="#V"/><use transform="matrix(0.008680555555555556,0,0,0.008680555555555556,9.383680555555555,0)" xlink:href="#X"/><use transform="matrix(0.008680555555555556,0,0,0.008680555555555556,19.10590277777778,0)" xlink:href="#an"/><use transform="matrix(0.008680555555555556,0,0,0.008680555555555556,28.75,0)" xlink:href="#ai"/><use transform="matrix(0.008680555555555556,0,0,0.008680555555555556,39.114583333333336,0)" xlink:href="#ap"/><use transform="matrix(0.008680555555555556,0,0,0.008680555555555556,45.598958333333336,0)" xlink:href="#at"/><use transform="matrix(0.008680555555555556,0,0,0.008680555555555556,56.484375,0)" xlink:href="#Y"/><use transform="matrix(0.008680555555555556,0,0,0.008680555555555556,62.88194444444445,0)" xlink:href="#aa"/><use transform="matrix(0.008680555555555556,0,0,0.008680555555555556,73.54166666666667,0)" xlink:href="#ac"/><use transform="matrix(0.008680555555555556,0,0,0.008680555555555556,84.42708333333334,0)" xlink:href="#W"/><use transform="matrix(0.008680555555555556,0,0,0.008680555555555556,94.93923611111111,0)" xlink:href="#ad"/><use transform="matrix(0.008680555555555556,0,0,0.008680555555555556,105.09548611111111,0)" xlink:href="#ae"/><use transform="matrix(0.008680555555555556,0,0,0.008680555555555556,110.73784722222223,0)" xlink:href="#aa"/><use transform="matrix(0.008680555555555556,0,0,0.008680555555555556,121.19791666666669,0)" xlink:href="#aq"/></g><g id="n"><use transform="matrix(0.008173828125000001,0,0,0.008173828125000001,0,0)" xlink:href="#an"/><use transform="matrix(0.008173828125000001,0,0,0.008173828125000001,9.081123046875001,0)" xlink:href="#aa"/><use transform="matrix(0.008173828125000001,0,0,0.008173828125000001,19.118583984375,0)" xlink:href="#Z"/><use transform="matrix(0.008173828125000001,0,0,0.008173828125000001,23.172802734375,0)" xlink:href="#ac"/><use transform="matrix(0.008173828125000001,0,0,0.008173828125000001,33.422783203125,0)" xlink:href="#aw"/></g><path d="M611 442c-248 0-391-105-460-228l146-94c47 65 117 165 314 165 178 0 307-82 307-266v-224h-17C863-141 792-18 576-18c-268 0-472-195-472-546 0-346 197-568 476-568 216 0 288 133 326 193h17v-179h175V29c0 289-215 413-487 413zm-5-620c203 0 314-146 314-390 0-237-108-403-314-403-213 0-319 180-319 403 0 230 109 390 319 390" id="ax"/><g id="o"><use transform="matrix(0.008173828125000001,0,0,0.008173828125000001,0,0)" xlink:href="#ar"/><use transform="matrix(0.008173828125000001,0,0,0.008173828125000001,14.663847656250002,0)" xlink:href="#ai"/><use transform="matrix(0.008173828125000001,0,0,0.008173828125000001,24.42339843750001,0)" xlink:href="#Y"/><use transform="matrix(0.008173828125000001,0,0,0.008173828125000001,30.447509765625004,0)" xlink:href="#ax"/><use transform="matrix(0.008173828125000001,0,0,0.008173828125000001,40.71383789062501,0)" xlink:href="#ai"/><use transform="matrix(0.008173828125000001,0,0,0.008173828125000001,50.473388671875,0)" xlink:href="#ap"/><use transform="matrix(0.008173828125000001,0,0,0.008173828125000001,56.57923828125,0)" xlink:href="#at"/><use transform="matrix(0.008173828125000001,0,0,0.008173828125000001,66.82921875,0)" xlink:href="#Y"/><use transform="matrix(0.008173828125000001,0,0,0.008173828125000001,72.853330078125,0)" xlink:href="#aa"/><use transform="matrix(0.008173828125000001,0,0,0.008173828125000001,82.890791015625,0)" xlink:href="#ac"/><use transform="matrix(0.008173828125000001,0,0,0.008173828125000001,93.140771484375,0)" xlink:href="#W"/><use transform="matrix(0.008173828125000001,0,0,0.008173828125000001,103.03927734375,0)" xlink:href="#ad"/><use transform="matrix(0.008173828125000001,0,0,0.008173828125000001,112.60265625,0)" xlink:href="#ae"/><use transform="matrix(0.008173828125000001,0,0,0.008173828125000001,117.91564453125,0)" xlink:href="#aa"/><use transform="matrix(0.008173828125000001,0,0,0.008173828125000001,127.765107421875,0)" xlink:href="#aq"/></g><g id="p"><use transform="matrix(0.010850694444444444,0,0,0.010850694444444444,0,0)" xlink:href="#X"/><use transform="matrix(0.010850694444444444,0,0,0.010850694444444444,12.47829861111111,0)" xlink:href="#ah"/><use transform="matrix(0.010850694444444444,0,0,0.010850694444444444,18.18576388888889,0)" xlink:href="#ae"/></g><g id="q"><use transform="matrix(0.010850694444444444,0,0,0.010850694444444444,0,0)" xlink:href="#ao"/><use transform="matrix(0.010850694444444444,0,0,0.010850694444444444,13.35720486111111,0)" xlink:href="#Y"/><use transform="matrix(0.010850694444444444,0,0,0.010850694444444444,22.0703125,0)" xlink:href="#Y"/><use transform="matrix(0.010850694444444444,0,0,0.010850694444444444,30.06727430555556,0)" xlink:href="#aa"/><use transform="matrix(0.010850694444444444,0,0,0.010850694444444444,43.391927083333336,0)" xlink:href="#Y"/></g><path d="M600 0L52-1490h200c166 485 304 806 458 1336 156-533 285-846 449-1336h202L819 0H600" id="ay"/><path d="M613 24c-304 0-509-231-509-576 0-350 205-580 509-580 305 0 511 230 511 580 0 345-206 576-511 576zm0-161c226 0 329-195 329-415 0-222-103-419-329-419-223 0-326 196-326 419 0 220 103 415 326 415zm-79-1127l140-294h201l-194 294H534" id="az"/><g id="r"><use transform="matrix(0.010850694444444444,0,0,0.010850694444444444,0,0)" xlink:href="#ay"/><use transform="matrix(0.010850694444444444,0,0,0.010850694444444444,14.20355902777778,0)" xlink:href="#X"/><use transform="matrix(0.010850694444444444,0,0,0.010850694444444444,26.68185763888889,0)" xlink:href="#ah"/><use transform="matrix(0.010850694444444444,0,0,0.010850694444444444,32.063802083333336,0)" xlink:href="#Z"/><use transform="matrix(0.010850694444444444,0,0,0.010850694444444444,37.44574652777778,0)" xlink:href="#ac"/><use transform="matrix(0.010850694444444444,0,0,0.010850694444444444,51.05251736111112,0)" xlink:href="#X"/><use transform="matrix(0.010850694444444444,0,0,0.010850694444444444,63.53081597222223,0)" xlink:href="#ad"/><use transform="matrix(0.010850694444444444,0,0,0.010850694444444444,76.22612847222223,0)" xlink:href="#Z"/><use transform="matrix(0.010850694444444444,0,0,0.010850694444444444,81.60807291666667,0)" xlink:href="#az"/><use transform="matrix(0.010850694444444444,0,0,0.010850694444444444,94.93272569444444,0)" xlink:href="#ag"/><use transform="matrix(0.010850694444444444,0,0,0.010850694444444444,108.06206597222221,0)" xlink:href="#aw"/></g><path d="M232-923l-22-567h194l-22 567H232zm340 0l-22-567h194l-22 567H572" id="aA"/><path d="M180 0v-1490h901v168H370v510h643v168H370V0H180" id="aB"/><g id="s"><use transform="matrix(0.010850694444444444,0,0,0.010850694444444444,0,0)" xlink:href="#aA"/><use transform="matrix(0.010850694444444444,0,0,0.010850694444444444,10.3515625,0)" xlink:href="#aB"/><use transform="matrix(0.010850694444444444,0,0,0.010850694444444444,22.92751736111111,0)" xlink:href="#X"/><use transform="matrix(0.010850694444444444,0,0,0.010850694444444444,35.40581597222222,0)" xlink:href="#ah"/><use transform="matrix(0.010850694444444444,0,0,0.010850694444444444,41.11328125,0)" xlink:href="#ae"/><use transform="matrix(0.010850694444444444,0,0,0.010850694444444444,48.49175347222222,0)" xlink:href="#X"/></g><g id="t"><use transform="matrix(0.010850694444444444,0,0,0.010850694444444444,0,0)" xlink:href="#ad"/><use transform="matrix(0.010850694444444444,0,0,0.010850694444444444,12.6953125,0)" xlink:href="#aa"/><use transform="matrix(0.010850694444444444,0,0,0.010850694444444444,26.01996527777778,0)" xlink:href="#ar"/><use transform="matrix(0.010850694444444444,0,0,0.010850694444444444,45.48611111111111,0)" xlink:href="#at"/><use transform="matrix(0.010850694444444444,0,0,0.010850694444444444,59.09288194444444,0)" xlink:href="#ah"/><use transform="matrix(0.010850694444444444,0,0,0.010850694444444444,64.47482638888889,0)" xlink:href="#ai"/><use transform="matrix(0.010850694444444444,0,0,0.010850694444444444,77.43055555555556,0)" xlink:href="#ae"/><use transform="matrix(0.010850694444444444,0,0,0.010850694444444444,84.80902777777777,0)" xlink:href="#X"/><use transform="matrix(0.010850694444444444,0,0,0.010850694444444444,97.28732638888889,0)" xlink:href="#Y"/></g><g id="u"><use transform="matrix(0.010850694444444444,0,0,0.010850694444444444,0,0)" xlink:href="#ad"/><use transform="matrix(0.010850694444444444,0,0,0.010850694444444444,12.91232638888889,0)" xlink:href="#X"/><use transform="matrix(0.010850694444444444,0,0,0.010850694444444444,25.390625,0)" xlink:href="#ar"/><use transform="matrix(0.010850694444444444,0,0,0.010850694444444444,44.85677083333333,0)" xlink:href="#at"/><use transform="matrix(0.010850694444444444,0,0,0.010850694444444444,58.46354166666666,0)" xlink:href="#aa"/></g><use transform="matrix(0.010850694444444444,0,0,0.010850694444444444,0,0)" xlink:href="#aa" id="v"/><g id="w"><use transform="matrix(0.010850694444444444,0,0,0.010850694444444444,0,0)" xlink:href="#V"/><use transform="matrix(0.010850694444444444,0,0,0.010850694444444444,11.729600694444445,0)" xlink:href="#W"/></g><g id="x"><use transform="matrix(0.010850694444444444,0,0,0.010850694444444444,0,0)" xlink:href="#an"/><use transform="matrix(0.010850694444444444,0,0,0.010850694444444444,12.38064236111111,0)" xlink:href="#X"/><use transform="matrix(0.010850694444444444,0,0,0.010850694444444444,24.85894097222222,0)" xlink:href="#ah"/><use transform="matrix(0.010850694444444444,0,0,0.010850694444444444,30.240885416666664,0)" xlink:href="#aa"/><use transform="matrix(0.010850694444444444,0,0,0.010850694444444444,43.56553819444444,0)" xlink:href="#Y"/></g><g id="y"><use transform="matrix(0.010850694444444444,0,0,0.010850694444444444,0,0)" xlink:href="#ai"/><use transform="matrix(0.010850694444444444,0,0,0.010850694444444444,12.955729166666666,0)" xlink:href="#V"/></g><path d="M471 26C259 26 90-98 90-318c0-256 228-303 435-329 202-27 287-16 287-108 0-139-79-219-234-219-161 0-248 86-283 164l-173-57c86-203 278-265 451-265 150 0 419 46 419 395V0H815v-152h-12C765-73 660 26 471 26zm31-159c199 0 310-134 310-271v-155c-30 35-226 55-295 64-131 17-246 59-246 186 0 116 97 176 231 176zm-23-1131l140-294h201l-194 294H479" id="aC"/><g id="z"><use transform="matrix(0.010850694444444444,0,0,0.010850694444444444,0,0)" xlink:href="#Z"/><use transform="matrix(0.010850694444444444,0,0,0.010850694444444444,5.381944444444445,0)" xlink:href="#ag"/><use transform="matrix(0.010850694444444444,0,0,0.010850694444444444,18.18576388888889,0)" xlink:href="#an"/><use transform="matrix(0.010850694444444444,0,0,0.010850694444444444,30.56640625,0)" xlink:href="#aC"/><use transform="matrix(0.010850694444444444,0,0,0.010850694444444444,43.044704861111114,0)" xlink:href="#ah"/><use transform="matrix(0.010850694444444444,0,0,0.010850694444444444,48.42664930555556,0)" xlink:href="#Z"/><use transform="matrix(0.010850694444444444,0,0,0.010850694444444444,53.80859375,0)" xlink:href="#ac"/><use transform="matrix(0.010850694444444444,0,0,0.010850694444444444,67.41536458333333,0)" xlink:href="#aa"/><use transform="matrix(0.010850694444444444,0,0,0.010850694444444444,80.41449652777777,0)" xlink:href="#aA"/></g><path fill="#333" d="M135 0v-1490h468l242 684c30 94 76 293 111 455 34-161 80-360 110-455l238-684h470V0h-307c0-447-3-765 11-1227-122 503-246 788-395 1227H826C676-435 552-717 427-1215c15 453 11 775 11 1215H135" id="aD"/><path fill="#333" d="M633 22C291 22 81-200 81-553c0-345 210-579 537-579 292 0 525 185 525 567v84H378c7 183 109 277 260 277 105 0 184-46 216-132l272 51C1071-99 893 22 633 22zM380-669h474c-15-146-94-237-233-237-143 0-229 99-241 237" id="aE"/><path fill="#333" d="M428-647V0H128v-1118h283l4 231c63-156 176-245 348-245 232 0 384 159 384 421V0H847v-659c0-139-76-222-202-222-128 0-217 86-217 234" id="aF"/><path fill="#333" d="M572 22C302 22 117-98 78-306l279-48c29 105 101 156 224 156 114 0 185-48 185-115 0-118-228-130-337-155-215-49-322-150-322-317 0-215 187-347 470-347 265 0 424 116 466 298l-266 47c-24-76-87-130-196-130-98 0-174 46-174 113 0 56 38 95 144 117l201 40c216 44 320 143 320 302 0 220-207 367-500 367" id="aG"/><path fill="#333" d="M440 22C227 22 68-92 68-313c0-250 202-322 422-343 195-21 271-24 271-105 0-95-63-149-175-149-116 0-187 57-211 129l-275-46c57-194 237-305 487-305 240 0 474 108 474 379V0H777v-155h-10C713-51 605 22 440 22zm85-211c140 0 238-93 238-211v-121c-37 26-156 42-222 51-111 16-185 59-185 149 0 87 70 132 169 132" id="aH"/><path fill="#333" d="M127-1118h301V57c1 278-186 374-478 361V182c116 8 177-28 177-129v-1171zm151-146c-90 0-165-68-165-154 0-85 75-154 165-154s165 69 165 154c0 86-75 154-165 154" id="aI"/><g id="A"><use transform="matrix(0.008680555555555556,0,0,0.008680555555555556,0,0)" xlink:href="#aD"/><use transform="matrix(0.008680555555555556,0,0,0.008680555555555556,16.5625,0)" xlink:href="#aE"/><use transform="matrix(0.008680555555555556,0,0,0.008680555555555556,27.15277777777778,0)" xlink:href="#aF"/><use transform="matrix(0.008680555555555556,0,0,0.008680555555555556,38.220486111111114,0)" xlink:href="#aG"/><use transform="matrix(0.008680555555555556,0,0,0.008680555555555556,48.177083333333336,0)" xlink:href="#aH"/><use transform="matrix(0.008680555555555556,0,0,0.008680555555555556,58.49826388888889,0)" xlink:href="#aI"/><use transform="matrix(0.008680555555555556,0,0,0.008680555555555556,63.31597222222223,0)" xlink:href="#aE"/></g><path fill="#333" d="M135 0v-1490h997v253H440v360h640v249H440v375h694V0H135" id="aJ"/><path fill="#333" d="M128 0v-1118h290v195h12c54-169 184-238 367-200v268c-27-8-86-15-130-15-138 0-239 95-239 234V0H128" id="aK"/><path fill="#333" d="M628 22C291 22 81-210 81-554c0-346 210-578 547-578 336 0 547 232 547 578 0 344-211 576-547 576zm0-236c160 0 242-146 242-341 0-197-82-341-242-341S387-753 387-555c0 195 81 341 241 341" id="aL"/><g id="B"><use transform="matrix(0.008680555555555556,0,0,0.008680555555555556,0,0)" xlink:href="#aJ"/><use transform="matrix(0.008680555555555556,0,0,0.008680555555555556,10.79861111111111,0)" xlink:href="#aK"/><use transform="matrix(0.008680555555555556,0,0,0.008680555555555556,18.16840277777778,0)" xlink:href="#aK"/><use transform="matrix(0.008680555555555556,0,0,0.008680555555555556,24.973958333333336,0)" xlink:href="#aL"/><use transform="matrix(0.008680555555555556,0,0,0.008680555555555556,35.876736111111114,0)" xlink:href="#aK"/></g><g id="C"><use transform="matrix(0.008173828125000001,0,0,0.008173828125000001,0,0)" xlink:href="#V"/><use transform="matrix(0.008173828125000001,0,0,0.008173828125000001,8.835908203125001,0)" xlink:href="#ai"/><use transform="matrix(0.008173828125000001,0,0,0.008173828125000001,18.595458984375,0)" xlink:href="#ae"/><use transform="matrix(0.008173828125000001,0,0,0.008173828125000001,24.071923828125,0)" xlink:href="#ao"/><use transform="matrix(0.008173828125000001,0,0,0.008173828125000001,34.13390625,0)" xlink:href="#ah"/><use transform="matrix(0.008173828125000001,0,0,0.008173828125000001,38.188125,0)" xlink:href="#Z"/><use transform="matrix(0.008173828125000001,0,0,0.008173828125000001,42.24234375,0)" xlink:href="#ar"/><use transform="matrix(0.008173828125000001,0,0,0.008173828125000001,56.90619140625,0)" xlink:href="#Z"/><use transform="matrix(0.008173828125000001,0,0,0.008173828125000001,60.960410156250006,0)" xlink:href="#ag"/><use transform="matrix(0.008173828125000001,0,0,0.008173828125000001,70.8507421875,0)" xlink:href="#X"/><use transform="matrix(0.008173828125000001,0,0,0.008173828125000001,80.25064453125,0)" xlink:href="#ac"/><use transform="matrix(0.008173828125000001,0,0,0.008173828125000001,90.500625,0)" xlink:href="#aa"/><use transform="matrix(0.008173828125000001,0,0,0.008173828125000001,100.5380859375,0)" xlink:href="#ap"/><use transform="matrix(0.008173828125000001,0,0,0.008173828125000001,106.643935546875,0)" xlink:href="#ae"/><use transform="matrix(0.008173828125000001,0,0,0.008173828125000001,112.120400390625,0)" xlink:href="#Y"/><use transform="matrix(0.008173828125000001,0,0,0.008173828125000001,118.422421875,0)" xlink:href="#W"/><use transform="matrix(0.008173828125000001,0,0,0.008173828125000001,128.320927734375,0)" xlink:href="#ai"/><use transform="matrix(0.008173828125000001,0,0,0.008173828125000001,137.89248046875,0)" xlink:href="#aq"/></g><g id="D"><use transform="matrix(0.008173828125000001,0,0,0.008173828125000001,0,0)" xlink:href="#U"/><use transform="matrix(0.008173828125000001,0,0,0.008173828125000001,12.456914062500001,0)" xlink:href="#V"/><use transform="matrix(0.008173828125000001,0,0,0.008173828125000001,21.292822265625002,0)" xlink:href="#ai"/><use transform="matrix(0.008173828125000001,0,0,0.008173828125000001,31.052373046875005,0)" xlink:href="#Y"/><use transform="matrix(0.008173828125000001,0,0,0.008173828125000001,37.35439453125001,0)" xlink:href="#aw"/></g><path d="M180 0v-1490h528c311 0 458 177 458 395 0 191-114 278-244 313v14c139 9 302 137 302 371 0 225-148 397-499 397H180zm190-168h350c232 0 321-102 321-231 0-149-120-277-311-277H370v508zm0-668h328c160 0 286-101 286-255 0-129-87-231-280-231H370v486" id="aM"/><g id="E"><use transform="matrix(0.008173828125000001,0,0,0.008173828125000001,0,0)" xlink:href="#ak"/><use transform="matrix(0.008173828125000001,0,0,0.008173828125000001,6.195761718750001,0)" xlink:href="#Z"/><use transform="matrix(0.008173828125000001,0,0,0.008173828125000001,10.249980468750001,0)" xlink:href="#ag"/><use transform="matrix(0.008173828125000001,0,0,0.008173828125000001,20.1403125,0)" xlink:href="#ac"/><use transform="matrix(0.008173828125000001,0,0,0.008173828125000001,30.390292968750003,0)" xlink:href="#aM"/><use transform="matrix(0.008173828125000001,0,0,0.008173828125000001,41.343222656250006,0)" xlink:href="#av"/><use transform="matrix(0.008173828125000001,0,0,0.008173828125000001,50.833037109375006,0)" xlink:href="#aj"/><use transform="matrix(0.008173828125000001,0,0,0.008173828125000001,55.328642578125006,0)" xlink:href="#ac"/><use transform="matrix(0.008173828125000001,0,0,0.008173828125000001,65.57862304687501,0)" xlink:href="#ap"/><use transform="matrix(0.008173828125000001,0,0,0.008173828125000001,71.68447265625001,0)" xlink:href="#at"/><use transform="matrix(0.008173828125000001,0,0,0.008173828125000001,81.934453125,0)" xlink:href="#Y"/><use transform="matrix(0.008173828125000001,0,0,0.008173828125000001,87.958564453125,0)" xlink:href="#aa"/><use transform="matrix(0.008173828125000001,0,0,0.008173828125000001,97.99602539062501,0)" xlink:href="#ac"/><use transform="matrix(0.008173828125000001,0,0,0.008173828125000001,108.246005859375,0)" xlink:href="#aj"/><use transform="matrix(0.008173828125000001,0,0,0.008173828125000001,112.741611328125,0)" xlink:href="#ac"/><use transform="matrix(0.008173828125000001,0,0,0.008173828125000001,122.991591796875,0)" xlink:href="#aq"/></g><path d="M784 20c-382 0-662-292-662-764 0-473 280-766 662-766s660 293 660 766c0 472-278 764-660 764zm0-176c266 0 475-207 475-588 0-383-209-590-475-590-268 0-477 208-477 590 0 380 209 588 477 588" id="aN"/><path d="M157-1118h181V80c1 225-123 350-364 338V252c126 9 184-48 183-172v-1198zm91-183c-68 0-125-53-125-119s57-119 125-119c69 0 126 53 126 119s-57 119-126 119" id="aO"/><g id="F"><use transform="matrix(0.008173828125000001,0,0,0.008173828125000001,0,0)" xlink:href="#aN"/><use transform="matrix(0.008173828125000001,0,0,0.008173828125000001,12.800214843750002,0)" xlink:href="#as"/><use transform="matrix(0.008173828125000001,0,0,0.008173828125000001,23.0501953125,0)" xlink:href="#aO"/><use transform="matrix(0.008173828125000001,0,0,0.008173828125000001,27.104414062500002,0)" xlink:href="#ai"/><use transform="matrix(0.008173828125000001,0,0,0.008173828125000001,36.863964843750004,0)" xlink:href="#ad"/><use transform="matrix(0.008173828125000001,0,0,0.008173828125000001,46.427343750000006,0)" xlink:href="#ae"/><use transform="matrix(0.008173828125000001,0,0,0.008173828125000001,51.90380859375001,0)" xlink:href="#aw"/></g><g id="G"><use transform="matrix(0.008173828125000001,0,0,0.008173828125000001,0,0)" xlink:href="#ak"/><use transform="matrix(0.008173828125000001,0,0,0.008173828125000001,6.195761718750001,0)" xlink:href="#Z"/><use transform="matrix(0.008173828125000001,0,0,0.008173828125000001,10.249980468750001,0)" xlink:href="#ag"/><use transform="matrix(0.008173828125000001,0,0,0.008173828125000001,20.1403125,0)" xlink:href="#ac"/><use transform="matrix(0.008173828125000001,0,0,0.008173828125000001,30.390292968750003,0)" xlink:href="#ap"/><use transform="matrix(0.008173828125000001,0,0,0.008173828125000001,36.496142578125,0)" xlink:href="#at"/><use transform="matrix(0.008173828125000001,0,0,0.008173828125000001,46.746123046875006,0)" xlink:href="#Y"/><use transform="matrix(0.008173828125000001,0,0,0.008173828125000001,52.770234375,0)" xlink:href="#aa"/><use transform="matrix(0.008173828125000001,0,0,0.008173828125000001,62.8076953125,0)" xlink:href="#ac"/><use transform="matrix(0.008173828125000001,0,0,0.008173828125000001,73.05767578125,0)" xlink:href="#aj"/><use transform="matrix(0.008173828125000001,0,0,0.008173828125000001,77.55328125,0)" xlink:href="#ac"/><use transform="matrix(0.008173828125000001,0,0,0.008173828125000001,87.80326171875,0)" xlink:href="#aq"/></g><path d="M180 0v-1490h224l606 953c40 63 108 177 176 312-27-437-7-821-13-1265h190V0h-226C860-448 622-778 356-1262c27 476 11 792 15 1262H180" id="aP"/><g id="H"><use transform="matrix(0.010850694444444444,0,0,0.010850694444444444,0,0)" xlink:href="#aA"/><use transform="matrix(0.010850694444444444,0,0,0.010850694444444444,10.3515625,0)" xlink:href="#aP"/><use transform="matrix(0.010850694444444444,0,0,0.010850694444444444,27.09418402777778,0)" xlink:href="#aa"/></g><path d="M65 0l393-574-370-544h210c88 136 192 297 267 435 67-142 176-302 264-435h206L661-564 1053 0H844c-94-144-206-310-287-458C484-308 366-142 273 0H65" id="aQ"/><g id="I"><use transform="matrix(0.010850694444444444,0,0,0.010850694444444444,0,0)" xlink:href="#ai"/><use transform="matrix(0.010850694444444444,0,0,0.010850694444444444,12.456597222222221,0)" xlink:href="#aQ"/><use transform="matrix(0.010850694444444444,0,0,0.010850694444444444,24.58767361111111,0)" xlink:href="#Z"/><use transform="matrix(0.010850694444444444,0,0,0.010850694444444444,29.96961805555556,0)" xlink:href="#V"/><use transform="matrix(0.010850694444444444,0,0,0.010850694444444444,41.69921875,0)" xlink:href="#ae"/><use transform="matrix(0.010850694444444444,0,0,0.010850694444444444,48.7521701388889,0)" xlink:href="#ai"/></g><g id="J"><use transform="matrix(0.010850694444444444,0,0,0.010850694444444444,0,0)" xlink:href="#W"/><use transform="matrix(0.010850694444444444,0,0,0.010850694444444444,13.140190972222221,0)" xlink:href="#ag"/></g><g id="K"><use transform="matrix(0.010850694444444444,0,0,0.010850694444444444,0,0)" xlink:href="#at"/><use transform="matrix(0.010850694444444444,0,0,0.010850694444444444,13.606770833333332,0)" xlink:href="#Y"/><use transform="matrix(0.010850694444444444,0,0,0.010850694444444444,21.603732638888886,0)" xlink:href="#aa"/><use transform="matrix(0.010850694444444444,0,0,0.010850694444444444,34.928385416666664,0)" xlink:href="#ac"/><use transform="matrix(0.010850694444444444,0,0,0.010850694444444444,48.53515625,0)" xlink:href="#W"/><use transform="matrix(0.010850694444444444,0,0,0.010850694444444444,61.67534722222222,0)" xlink:href="#ad"/><use transform="matrix(0.010850694444444444,0,0,0.010850694444444444,74.37065972222223,0)" xlink:href="#ae"/><use transform="matrix(0.010850694444444444,0,0,0.010850694444444444,81.42361111111111,0)" xlink:href="#aa"/></g><g id="L"><use transform="matrix(0.010850694444444444,0,0,0.010850694444444444,0,0)" xlink:href="#ad"/><use transform="matrix(0.010850694444444444,0,0,0.010850694444444444,12.6953125,0)" xlink:href="#aa"/><use transform="matrix(0.010850694444444444,0,0,0.010850694444444444,26.01996527777778,0)" xlink:href="#ag"/></g><g id="M"><use transform="matrix(0.010850694444444444,0,0,0.010850694444444444,0,0)" xlink:href="#ai"/><use transform="matrix(0.010850694444444444,0,0,0.010850694444444444,12.955729166666666,0)" xlink:href="#V"/><use transform="matrix(0.010850694444444444,0,0,0.010850694444444444,24.68532986111111,0)" xlink:href="#X"/></g><g id="N"><use transform="matrix(0.010850694444444444,0,0,0.010850694444444444,0,0)" xlink:href="#Z"/><use transform="matrix(0.010850694444444444,0,0,0.010850694444444444,5.381944444444445,0)" xlink:href="#ac"/><use transform="matrix(0.010850694444444444,0,0,0.010850694444444444,18.98871527777778,0)" xlink:href="#aA"/></g><g id="O"><use transform="matrix(0.010850694444444444,0,0,0.010850694444444444,0,0)" xlink:href="#aA"/><use transform="matrix(0.010850694444444444,0,0,0.010850694444444444,10.3515625,0)" xlink:href="#ao"/><use transform="matrix(0.010850694444444444,0,0,0.010850694444444444,23.70876736111111,0)" xlink:href="#ah"/></g><g id="P"><use transform="matrix(0.010850694444444444,0,0,0.010850694444444444,0,0)" xlink:href="#av"/><use transform="matrix(0.010850694444444444,0,0,0.010850694444444444,12.38064236111111,0)" xlink:href="#X"/></g><g id="Q"><use transform="matrix(0.010850694444444444,0,0,0.010850694444444444,0,0)" xlink:href="#ai"/><use transform="matrix(0.010850694444444444,0,0,0.010850694444444444,12.955729166666666,0)" xlink:href="#V"/><use transform="matrix(0.010850694444444444,0,0,0.010850694444444444,24.68532986111111,0)" xlink:href="#ae"/><use transform="matrix(0.010850694444444444,0,0,0.010850694444444444,32.06380208333333,0)" xlink:href="#aC"/></g><g id="R"><use transform="matrix(0.010850694444444444,0,0,0.010850694444444444,0,0)" xlink:href="#ac"/><use transform="matrix(0.010850694444444444,0,0,0.010850694444444444,13.606770833333332,0)" xlink:href="#X"/><use transform="matrix(0.010850694444444444,0,0,0.010850694444444444,26.085069444444443,0)" xlink:href="#ac"/><use transform="matrix(0.010850694444444444,0,0,0.010850694444444444,39.69184027777777,0)" xlink:href="#aa"/></g><g id="S"><use transform="matrix(0.010850694444444444,0,0,0.010850694444444444,0,0)" xlink:href="#ac"/><use transform="matrix(0.010850694444444444,0,0,0.010850694444444444,13.606770833333332,0)" xlink:href="#ai"/></g><g id="T"><use transform="matrix(0.010850694444444444,0,0,0.010850694444444444,0,0)" xlink:href="#as"/><use transform="matrix(0.010850694444444444,0,0,0.010850694444444444,13.823784722222221,0)" xlink:href="#X"/><use transform="matrix(0.010850694444444444,0,0,0.010850694444444444,26.302083333333332,0)" xlink:href="#aO"/><use transform="matrix(0.010850694444444444,0,0,0.010850694444444444,31.684027777777775,0)" xlink:href="#X"/><use transform="matrix(0.010850694444444444,0,0,0.010850694444444444,44.162326388888886,0)" xlink:href="#aA"/></g></defs></g></svg>