<svg xmlns="http://www.w3.org/2000/svg" xmlns:xlink="http://www.w3.org/1999/xlink" xmlns:lucid="lucid" width="2220.93" height="1688.5"><g transform="translate(513.1319848352305 485.58333333333303)" lucid:page-tab-id="0_0"><path d="M-1000-500h3000v2000h-3000z" fill="#fff"/><path d="M-392.13-335.08v10.04m0 10.03v20.06m0 10.04v20.07m0 10.04v20.08m0 10.04v20.07m0 10.02v20.08m0 10.03v20.07m0 10.04v20.07m0 10.05v20.07m0 10.03v20.08m0 10.03v20.07m0 10.04V6.14m0 10.04v20.07m0 10.04v20.06m0 10.03v20.07m0 10.03v20.07m0 10.04v20.08m0 10.04v20.07m0 10.02v20.08m0 10.03V247m0 10.04v20.07m0 10.05v20.07m0 10.04v20.07m0 10.03v20.08m0 10.03v20.07m0 10.04v20.07m0 10.04v20.06m0 10.03v20.07m0 10.03v20.07m0 10.04v20.08m0 10.04v20.07m0 10.03v20.07m0 10.03v20.07m0 10.04v20.07m0 10.05v20.07m0 10.04v20.07m0 10.03v20.08m0 10.03v20.07m0 10.04v20.07m0 10.04v20.06m0 10.04v20.07m0 10.03v20.07m0 10.04v20.08m0 10.04v20.07m0 10.03v20.07m0 10.03v20.08m0 10.04v20.07m0 10.05v20.07m0 10.04v20.07m0 10.04v20.07m0 10.03v20.07m0 10.04v10.04" stroke="#000" stroke-width="2" stroke-linecap="round" fill="none"/><path d="M-412.13-271.05a6 6 0 0 1 6-6h28a6 6 0 0 1 6 6v1386.47a6 6 0 0 1-6 6h-28a6 6 0 0 1-6-6zM-401.63-465a10.5 10.5 0 0 1 10.5-10.5 10.5 10.5 0 0 1 10.5 10.5 10.5 10.5 0 0 1-10.5 10.5 10.5 10.5 0 0 1-10.5-10.5" stroke="#000" stroke-width="2" fill="#fff"/><path d="M-412.13-469.5a6 6 0 0 1 6-6h30a6 6 0 0 1 6 6v82.92a6 6 0 0 1-6 6h-30a6 6 0 0 1-6-6z" fill="none"/><path d="M-391.13-454.5v35.95l21 37.97m-21-37.97l-21 37.97m0-63.43h42" stroke="#000" stroke-width="2" fill="none"/><use xlink:href="#a" transform="matrix(1,0,0,1,-492.13198483523047,-380.58333333333303) translate(60.34787326388889 21.52777777777778)"/><path d="M148.8-428.58c0 27.6-22.4 50-50 50s-50-22.4-50-50c0-27.62 22.4-50 50-50s50 22.38 50 50z" stroke="#000" stroke-width="2" fill="#fff"/><path d="M108.8-484.58l-10 6 10 7.2" stroke="#000" stroke-width="2" fill="none"/><use xlink:href="#b" transform="matrix(1,0,0,1,8.799445884069428,-378.58333333333303) translate(8.825954861111114 21.52777777777778)"/><path d="M-91.2-428.58c0 27.6-22.4 50-50 50-27.62 0-50-22.4-50-50 0-27.62 22.38-50 50-50 27.6 0 50 22.38 50 50z" stroke="#000" stroke-width="2" fill="#fff"/><path d="M-211.2-478.58v100m0-50h20" stroke="#000" stroke-width="2" fill="none"/><use xlink:href="#c" transform="matrix(1,0,0,1,-231.20055411593057,-378.58333333333303) translate(35.39930555555556 21.52777777777778)"/><use xlink:href="#d" transform="matrix(1,0,0,1,-231.20055411593057,-378.58333333333303) translate(122.09635416666667 21.52777777777778)"/><path d="M1706.8 23.14c0 6.2-35.82 11.2-80 11.2s-80-5-80-11.2v-89.6c0-6.18 35.82-11.2 80-11.2s80 5.02 80 11.2z" stroke="#000" stroke-width="2" fill="#fff"/><path d="M1706.8-66.45c0 6.18-35.82 11.2-80 11.2s-80-5.02-80-11.2" stroke="#000" stroke-width="2" fill="none"/><path d="M-151.2-337.58v10.05m0 10.05v20.1m0 10.06v20.1m0 10.06v20.1m0 10.05v20.1m0 10.05v20.1m0 10.06v20.1m0 10.06v20.1m0 10.06v20.1m0 10.06v20.1m0 10.05v20.1m0 10.06V4.2m0 10.05v20.1m0 10.05v20.1m0 10.06v20.1m0 10.06v20.1m0 10.05v20.1m0 10.06v20.1m0 10.06v20.1m0 10.05v20.1m0 10.05v20.1m0 10.06v20.1m0 10.06v20.1m0 10.05v20.1m0 10.06v20.1m0 10.06v20.1m0 10.04v20.1m0 10.06v20.1m0 10.06v20.1m0 10.05v20.12m0 10.05v20.1m0 10.06v20.1m0 10.05v20.1m0 10.06v20.1m0 10.06v20.1m0 10.05v20.1m0 10.06v20.12m0 10.05v20.1m0 10.06v20.1m0 10.05v20.1m0 10.06v20.1m0 10.06v20.1m0 10.05v20.1m0 10.06v20.1m0 10.07v20.1m0 10.05v20.1m0 10.06v20.1m0 10.06v20.1m0 10.05v20.1m0 10.05v20.1m0 10.06v20.1m0 10.06v10.06" stroke="#000" stroke-width="2" stroke-linecap="round" fill="none"/><path d="M-171.2-271.05a6 6 0 0 1 6-6h28a6 6 0 0 1 6 6v1366.47a6 6 0 0 1-6 6h-28a6 6 0 0 1-6-6zM518.8-428.58c0 27.6-22.38 50-50 50-27.6 0-50-22.4-50-50 0-27.62 22.4-50 50-50 27.62 0 50 22.38 50 50z" stroke="#000" stroke-width="2" fill="#fff"/><path d="M478.8-484.58l-10 6 10 7.2" stroke="#000" stroke-width="2" fill="none"/><use xlink:href="#e" transform="matrix(1,0,0,1,378.8004013457794,-378.58333333333303) translate(20.783420138888886 21.52777777777778)"/><path d="M98.8-368.9v10.05m0 10.06v20.13m0 10.06v20.1m0 10.07v20.12m0 10.04v20.12m0 10.06v20.12m0 10.06v20.12m0 10.06v20.12m0 10.06v20.12m0 10.06v20.12m0 10.06v20.12m0 10.06v20.12m0 10.06V3.3m0 10.06v20.12m0 10.06v20.12m0 10.06v20.12m0 10.06v20.12m0 10.06v20.12m0 10.06v20.12m0 10.06v20.12m0 10.06v20.12m0 10.06v20.1m0 10.07v20.12m0 10.05v20.12m0 10.06v20.12m0 10.06v20.13m0 10.06v20.1m0 10.07V456m0 10.05v20.12m0 10.06v20.12m0 10.06v20.13m0 10.06v20.1m0 10.07v20.12m0 10.05v20.12m0 10.06v20.12m0 10.06v20.13m0 10.06v20.1m0 10.07v20.12m0 10.05v20.1m0 10.07v20.12m0 10.06v20.12m0 10.06v20.12m0 10.06v20.12m0 10.06v20.12m0 10.06v20.12m0 10.06v20.12m0 10.06v20.12m0 10.06v20.12m0 10.06v20.12m0 10.06v20.12m0 10.06v20.12m0 10.06v20.12m0 10.06v10.06" stroke="#000" stroke-width="2" stroke-linecap="round" fill="none"/><path d="M78.8-251.05a6 6 0 0 1 6-6h28a6 6 0 0 1 6 6v1326.47a6 6 0 0 1-6 6h-28a6 6 0 0 1-6-6z" stroke="#000" stroke-width="2" fill="#fff"/><path d="M-128.7-258.58h180" stroke="#3a414a" stroke-width="3" fill="none"/><path d="M-128.66-257.1h-1.54v-2.96h1.54z" stroke="#3a414a" stroke-width=".05" fill="#3a414a"/><path d="M65.8-258.58l-13 7.5v-15z" stroke="#3a414a" stroke-width="3" fill="#3a414a"/><use xlink:href="#f" transform="matrix(1,0,0,1,-63.87818439961825,-282.8380587628515) translate(0 16.216875)"/><path d="M-370.82-274.93h182.32" stroke="#3a414a" stroke-width="3" fill="none"/><path d="M-370.8-273.45h-.77l-.32-.78-.57-.93-.7-.84-.48-.4h2.86z" stroke="#3a414a" stroke-width=".05" fill="#3a414a"/><path d="M-174-274.93l-13 7.5v-15z" stroke="#3a414a" stroke-width="3" fill="#3a414a"/><use xlink:href="#g" transform="matrix(1,0,0,1,-308.088864531064,-299.18358405365814) translate(0 16.216875)"/><path d="M121.3-217.05h312.44" stroke="#3a414a" stroke-width="3" fill="none"/><path d="M121.34-215.57h-1.54v-2.95h1.54z" stroke="#3a414a" stroke-width=".05" fill="#3a414a"/><path d="M448.23-217.05l-13 7.5v-15z" stroke="#3a414a" stroke-width="3" fill="#3a414a"/><use xlink:href="#h" transform="matrix(1,0,0,1,148.8315709644578,-241.30078837778285) translate(0 16.216875)"/><use xlink:href="#i" transform="matrix(1,0,0,1,148.8315709644578,-241.30078837778285) translate(43.90980468750001 16.216875)"/><path d="M468.8-333.65v10.03m0 10.02v20.06m0 10.02v20.06m0 10.02v20.06m0 10.02v20.06m0 10.02v20.06m0 10.02v20.06m0 10.02v20.06m0 10.02v20.06m0 10.02v20.06m0 10.02v20.06m0 10.02V7.25m0 10.03v20.05m0 10.03V67.4m0 10.04V97.5m0 10.02v20.05m0 10.03v20.05m0 10.03v20.05m0 10.03v20.05m0 10.04v20.05m0 10.02v20.05m0 10.03v20.05m0 10.03v20.05m0 10.03v20.05m0 10.04v20.05m0 10.02v20.05m0 10.03v20.05m0 10.03v20.05m0 10.03v20.05m0 10.04v20.05m0 10.02v20.05m0 10.03v20.05m0 10.03v20.05m0 10.03V669m0 10.03v20.06m0 10v20.07m0 10.02v20.05m0 10.02v20.06m0 10.02v20.06m0 10.03v20.06m0 10v20.07m0 10.02v20.05m0 10.02v20.06m0 10.02v20.06m0 10.03v20.05m0 10.03v20.06m0 10.03v20.04m0 10.03v20.05m0 10.03v20.05m0 10.03v20.05m0 10.03v20.06m0 10.03v10.02" stroke="#000" stroke-width="2" stroke-linecap="round" fill="none"/><path d="M448.8-211.05a6 6 0 0 1 6-6h28a6 6 0 0 1 6 6v1266.47a6 6 0 0 1-6 6h-28a6 6 0 0 1-6-6zM1087.87-428.58c0 27.6-22.4 50-50 50-27.62 0-50-22.4-50-50 0-27.62 22.38-50 50-50 27.6 0 50 22.38 50 50z" stroke="#000" stroke-width="2" fill="#fff"/><path d="M1047.87-484.58l-10 6 10 7.2" stroke="#000" stroke-width="2" fill="none"/><use xlink:href="#j" transform="matrix(1,0,0,1,947.8680151647695,-378.58333333333303) translate(4.2306857638889 21.52777777777778)"/><path d="M1037.8-330.57v10m0 10v20.02m0 10v20.02m0 10v20.02m0 10v20m0 10.02v20m0 10.02v20m0 10.02v20m0 10.02v20m0 10.02v20m0 10v20.03m0 10V9.65m0 10v20.02m0 10V69.7m0 10v20m0 10v20.02m0 10v20.02m0 10v20.02m0 10v20.02m0 10v20.02m0 10v20.02m0 10v20.02m0 10v20.02m0 10v20.02m0 10v20.02m0 10v20.02m0 10v20.02m0 10v20.02m0 10v20.02m0 10V550m0 10v20.02m0 10v20.02m0 10v20m0 10.02v20m0 10.02v20m0 10.02v20m0 10.02v20m0 10.02v20m0 10.02v20m0 10.02v20m0 10.02v20m0 10.02v20m0 10.02v20m0 10.02v20m0 10v20.03m0 10v20m0 10v20.03m0 10v20.02m0 10v20.02m0 10v20m0 10.02v20m0 10v10.02" stroke="#000" stroke-width="2" stroke-linecap="round" fill="none"/><path d="M1017.8-37.92a6 6 0 0 1 6-6h28a6 6 0 0 1 6 6v246.47a6 6 0 0 1-6 6h-28a6 6 0 0 1-6-6z" stroke="#000" stroke-width="2" fill="#fff"/><path d="M491.3-43.92h511.44" stroke="#3a414a" stroke-width="3" fill="none"/><path d="M491.34-45.4v2.96h-1.54v-2.95z" stroke="#3a414a" stroke-width=".05" fill="#3a414a"/><path d="M1017.23-43.92l-13 7.5v-15z" stroke="#3a414a" stroke-width="3" fill="#3a414a"/><use xlink:href="#k" transform="matrix(1,0,0,1,663.4023892152006,-68.17143392509584) translate(0 16.216875)"/><use xlink:href="#l" transform="matrix(1,0,0,1,663.4023892152006,-68.17143392509584) translate(46.885078125000014 16.216875)"/><path d="M1060.3-21.66h468" stroke="#3a414a" stroke-width="3" fill="none"/><path d="M1060.34-20.18h-1.54v-2.95h1.54z" stroke="#3a414a" stroke-width=".05" fill="#3a414a"/><path d="M1542.8-21.66l-13 7.5v-15z" stroke="#3a414a" stroke-width="3" fill="#3a414a"/><use xlink:href="#m" transform="matrix(1,0,0,1,1070.6637682954054,-45.90986792257002) translate(0 16.216875)"/><use xlink:href="#n" transform="matrix(1,0,0,1,1070.6637682954054,-45.90986792257002) translate(61.43449218750001 16.216875)"/><path d="M1544.3-1.03h-3.04m-12.16 0h-6.08m-12.16 0h-6.07m-12.17 0h-6.08m-12.16 0h-6.1m-12.15 0h-6.08m-12.15 0h-6.08m-12.16 0h-6.08m-12.16 0h-6.08m-12.16 0h-6.08m-12.15 0h-6.08m-12.17 0h-6.08m-12.16 0h-6.1m-12.15 0h-6.08m-12.15 0h-6.08m-12.16 0h-6.08m-12.16 0h-6.08m-12.15 0h-6.07m-12.16 0H1213m-12.17 0h-6.08m-12.16 0h-6.1m-12.14 0h-6.08m-12.16 0h-6.08m-12.16 0h-6.08m-12.16 0h-6.08m-12.15 0h-6.07m-12.16 0h-3.04" stroke="#3a414a" stroke-width="3" fill="none"/><path d="M1545.8.45h-1.54V-2.5h1.54z" stroke="#3a414a" stroke-width=".05" fill="#3a414a"/><path d="M1079.12 8.97l-17.32-10 17.32-10m-17.32 10h8.5" stroke="#3a414a" stroke-width="3" fill="none"/><path d="M1706.8 423.75c0 6.2-35.82 11.2-80 11.2s-80-5-80-11.2v-89.6c0-6.18 35.82-11.2 80-11.2s80 5.02 80 11.2z" stroke="#000" stroke-width="2" fill="#fff"/><path d="M1706.8 334.15c0 6.2-35.82 11.2-80 11.2s-80-5-80-11.2" stroke="#000" stroke-width="2" fill="none"/><path d="M1279.3 378.95h249" stroke="#3a414a" stroke-width="3" fill="none"/><path d="M1279.34 380.43h-1.54v-2.95h1.54z" stroke="#3a414a" stroke-width=".05" fill="#3a414a"/><path d="M1542.8 378.95l-13 7.5v-15z" stroke="#3a414a" stroke-width="3" fill="#3a414a"/><use xlink:href="#m" transform="matrix(1,0,0,1,1316.9700319402616,354.6991713449637) translate(0 16.216875)"/><use xlink:href="#o" transform="matrix(1,0,0,1,1316.9700319402616,354.6991713449637) translate(61.43449218750001 16.216875)"/><path d="M1544.3 399.58h-3.04m-12.15 0h-6.06m-12.16 0h-6.07m-12.14 0h-6.08m-12.15 0h-6.08m-12.15 0h-6.07m-12.15 0h-6.08m-12.15 0h-6.07m-12.15 0h-6.08m-12.15 0h-6.08m-12.15 0H1359m-12.15 0h-6.08m-12.15 0h-6.08m-12.15 0h-6.08m-12.15 0h-3.04" stroke="#3a414a" stroke-width="3" fill="none"/><path d="M1545.8 401.06h-1.54v-2.95h1.54z" stroke="#3a414a" stroke-width=".05" fill="#3a414a"/><path d="M1298.12 409.58l-17.32-10 17.32-10m-17.32 10h8.5M490.3 761.42h420.08M490.34 761.42h-1.54" stroke="#3a414a" stroke-width="3" fill="none"/><path d="M924.87 761.42l-13 7.5v-15z" stroke="#3a414a" stroke-width="3" fill="#3a414a"/><use xlink:href="#p" transform="matrix(1,0,0,1,622.3496309121313,737.1619195425263) translate(0 16.216875)"/><path d="M490.3 821.42h420.08M490.34 821.42h-1.54" stroke="#3a414a" stroke-width="3" fill="none"/><path d="M924.87 821.42l-13 7.5v-15z" stroke="#3a414a" stroke-width="3" fill="#3a414a"/><use xlink:href="#q" transform="matrix(1,0,0,1,633.0614477303692,797.1619146190947) translate(0 16.216875)"/><path d="M937.87 621.42c-27.62 0-50-22.4-50-50 0-27.62 22.38-50 50-50 27.6 0 50 22.38 50 50 0 27.6-22.4 50-50 50z" stroke="#000" stroke-width="2" fill="#fff"/><path d="M887.87 621.42h100" stroke="#000" stroke-width="2" fill="none"/><use xlink:href="#r" transform="matrix(1,0,0,1,847.8680151647695,621.416666666667) translate(0.17795138888889994 21.52777777777778)"/><use xlink:href="#s" transform="matrix(1,0,0,1,847.8680151647695,621.416666666667) translate(57.67578125000001 21.52777777777778)"/><path d="M491.3 881.42h419.08" stroke="#3a414a" stroke-width="3" fill="none"/><path d="M491.34 882.9h-1.54v-2.96h1.54z" stroke="#3a414a" stroke-width=".05" fill="#3a414a"/><path d="M924.87 881.42l-13 7.5v-15z" stroke="#3a414a" stroke-width="3" fill="#3a414a"/><use xlink:href="#t" transform="matrix(1,0,0,1,658.5854131610822,857.1620845770201) translate(0 16.216875)"/><path d="M490.3 701.42h420.08M490.34 701.42h-1.54" stroke="#3a414a" stroke-width="3" fill="none"/><path d="M924.87 701.42l-13 7.5v-15z" stroke="#3a414a" stroke-width="3" fill="#3a414a"/><use xlink:href="#u" transform="matrix(1,0,0,1,654.1172024817574,677.1619236338414) translate(0 16.216875)"/><path d="M1304.87-428.58c0 27.6-22.4 50-50 50-27.62 0-50-22.4-50-50 0-27.62 22.38-50 50-50 27.6 0 50 22.38 50 50z" stroke="#000" stroke-width="2" fill="#fff"/><path d="M1264.87-484.58l-10 6 10 7.2" stroke="#000" stroke-width="2" fill="none"/><use xlink:href="#v" transform="matrix(1,0,0,1,1164.8662703871814,-378.58333333333303) translate(-27.350260416666657 21.52777777777778)"/><path d="M1256.8-348.35v9.93m0 9.92v19.86m0 9.93v19.84m0 9.93v19.86m0 9.93v19.85m0 9.94v19.86m0 9.92v19.86m0 9.93v19.86m0 9.93v19.85m0 9.93v19.85m0 9.93v19.86m0 9.92v19.86m0 9.93v19.85m0 9.93v19.87m0 9.93v19.85m0 9.93v19.86m0 9.92v19.86m0 9.93v19.85m0 9.93v19.86m0 9.92v19.85m0 9.93v19.86m0 9.92v19.86m0 9.93v19.85m0 9.93v19.86m0 9.94v19.85m0 9.92v19.86m0 9.92v19.86m0 9.93v19.84m0 9.93v19.86m0 9.93v19.85m0 9.94v19.86m0 9.92v19.86m0 9.93v19.86m0 9.93v19.85m0 9.93v19.85m0 9.93v19.86m0 9.92v19.86m0 9.93v19.85m0 9.93v19.87m0 9.93v19.85m0 9.93v19.86m0 9.92v19.86m0 9.93v19.85m0 9.93v19.86m0 9.92v19.85m0 9.93v19.86m0 9.92v19.86m0 9.93v19.85m0 9.93v19.86m0 9.94V1121m0 9.92v19.86m0 9.92v19.86m0 9.93v9.92" stroke="#000" stroke-width="2" stroke-linecap="round" fill="none"/><path d="M1236.8 268.95a6 6 0 0 1 6-6h28a6 6 0 0 1 6 6v208a6 6 0 0 1-6 6h-28a6 6 0 0 1-6-6z" stroke="#000" stroke-width="2" fill="#fff"/><path d="M491.3 269.62h727" stroke="#3a414a" stroke-width="3" fill="none"/><path d="M491.34 271.1h-1.54v-2.95h1.54z" stroke="#3a414a" stroke-width=".05" fill="#3a414a"/><path d="M1232.8 269.62l-13 7.5v-15z" stroke="#3a414a" stroke-width="3" fill="#3a414a"/><use xlink:href="#w" transform="matrix(1,0,0,1,661.3609981257771,245.36585958227) translate(0 16.216875)"/><use xlink:href="#x" transform="matrix(1,0,0,1,661.3609981257771,245.36585958227) translate(180.780556640625 16.216875)"/><path d="M1234.3 452.62h-2.95m-11.8 0h-5.92m-11.8 0h-5.9m-11.82 0h-5.9m-11.8 0h-5.9m-11.8 0h-5.92m-11.8 0h-5.9m-11.82 0h-5.9m-11.8 0h-5.9m-11.82 0h-5.9m-11.8 0h-5.92m-11.8 0h-5.9m-11.82 0h-5.9m-11.8 0h-5.92m-11.8 0h-5.9m-11.82 0h-5.9m-11.8 0h-5.9m-11.82 0h-5.9m-11.82 0h-5.9m-11.8 0h-5.9m-11.82 0h-5.9m-11.8 0h-5.92m-11.8 0h-5.9m-11.82 0h-5.9m-11.8 0h-2.96" stroke="#3a414a" stroke-width="3" fill="none"/><path d="M1235.8 454.1h-1.54v-2.96h1.54z" stroke="#3a414a" stroke-width=".05" fill="#3a414a"/><path d="M818.2 462.62l-17.33-10 17.32-10m-17.33 10h8.5M-173.37 1103.8h-3.12m-12.5 0h-6.23m-12.5 0h-6.25m-12.5 0h-6.24m-12.5 0h-6.24m-12.5 0h-6.25m-12.5 0h-6.25m-12.5 0h-6.25m-12.5 0h-6.24m-12.5 0h-6.24m-12.5 0h-3.12M-173.4 1103.8h1.53M-351.8 1113.8l-17.33-10 17.32-10m-17.33 10h8.5M75.64 1081.85h-2.96m-11.85 0H54.9m-11.85 0h-5.92m-11.85 0h-5.92m-11.85 0H1.6m-11.85 0h-5.92m-11.84 0h-5.93m-11.84 0h-5.94m-11.85 0h-5.9m-11.86 0h-5.92m-11.86 0h-5.92m-11.85 0h-2.97M75.6 1081.85h1.54M-110.88 1091.85l-17.32-10 17.32-10m-17.32 10h8.5" stroke="#3a414a" stroke-width="3" fill="none"/><path d="M491.3 986.7h727M491.34 986.7h-1.54" stroke="#000" stroke-width="3" fill="none"/><path d="M1232.8 986.7l-13 7.5v-15z" stroke="#000" stroke-width="3"/><use xlink:href="#y" transform="matrix(1,0,0,1,1065.4315850399205,961.2022413098247) translate(0 17.22222222222222)"/><path d="M445.54 1061.42h-2.92m-11.7 0h-5.83m-11.7 0h-5.83m-11.68 0h-5.85m-11.68 0h-5.84m-11.7 0H355m-11.68 0h-5.84m-11.68 0h-5.84m-11.68 0h-5.84m-11.7 0h-5.83m-11.67 0h-5.84m-11.7 0h-5.83m-11.68 0h-5.85m-11.7 0h-5.83m-11.68 0h-5.84m-11.68 0h-5.84m-11.7 0h-5.83m-11.68 0h-5.84m-11.68 0h-2.92M445.5 1061.42h1.54M139.12 1071.42l-17.32-10 17.32-10m-17.32 10h8.5M1235.18 1041.42h-3m-11.92 0h-5.97m-11.95 0h-5.96m-11.95 0h-5.97m-11.93 0h-5.97m-11.94 0h-5.97m-11.93 0h-5.97m-11.93 0h-5.97m-11.94 0h-5.97m-11.93 0h-5.97m-11.93 0h-5.97m-11.94 0h-5.97m-11.93 0h-5.97m-11.94 0h-5.95m-11.94 0h-5.96m-11.93 0h-5.96m-11.94 0h-5.97m-11.93 0h-5.97m-11.93 0h-5.97m-11.94 0H892m-11.93 0h-5.98m-11.93 0h-5.98m-11.94 0h-5.97m-11.92 0h-5.97m-11.92 0h-5.97m-11.93 0h-5.97m-11.93 0h-5.97m-11.94 0h-5.96m-11.94 0h-5.97m-11.94 0H713m-11.95 0h-5.96m-11.95 0h-5.97m-11.93 0h-5.97m-11.94 0h-5.97m-11.93 0h-5.97m-11.93 0h-5.97m-11.94 0h-5.97m-11.93 0h-5.97m-11.93 0h-5.97m-11.94 0h-5.97m-11.93 0h-5.97m-11.93 0h-3" stroke="#3a414a" stroke-width="3" fill="none"/><path d="M1236.14 1040.2l.42 1.02.57.94.63.73h-2.62v-2.96h.93z" stroke="#3a414a" stroke-width=".05" fill="#3a414a"/><path d="M510.12 1051.42l-17.32-10 17.32-10m-17.32 10h8.5M937.87 623.92v14.77m0 14.76V683m0 14.76v29.54m0 14.77v29.54m0 14.78v29.54m0 14.77v29.52m0 14.77v29.53m0 14.77v29.54m0 14.77v29.55m0 14.77v29.53m0 14.77v29.54m0 14.77v29.54m0 14.77v29.54m0 14.77v14.77" stroke="#3a414a" stroke-width="3" fill="none"/><path d="M937.84 622.42h1.49v1.54h-2.95v-1.54z" stroke="#3a414a" stroke-width=".05" fill="#3a414a"/><path d="M937.87 1199.88v1.54" stroke="#3a414a" stroke-width="3" fill="none"/><path d="M1706.8 1042.22c0 6.18-35.82 11.2-80 11.2s-80-5.02-80-11.2v-89.6c0-6.2 35.82-11.2 80-11.2s80 5 80 11.2z" stroke="#000" stroke-width="2" fill="#fff"/><path d="M1706.8 952.62c0 6.18-35.82 11.2-80 11.2s-80-5.02-80-11.2" stroke="#000" stroke-width="2" fill="none"/><path d="M1279.3 997.42h249" stroke="#3a414a" stroke-width="3" fill="none"/><path d="M1279.34 998.9h-1.54v-2.96h1.54z" stroke="#3a414a" stroke-width=".05" fill="#3a414a"/><path d="M1542.8 997.42l-13 7.5v-15z" stroke="#3a414a" stroke-width="3" fill="#3a414a"/><use xlink:href="#z" transform="matrix(1,0,0,1,1340.567814968177,973.161919128981) translate(0 16.216875)"/><use xlink:href="#A" transform="matrix(1,0,0,1,1340.567814968177,973.161919128981) translate(42.953466796875006 16.216875)"/><path d="M1514.3 1024.05h-2.9m-11.54 0h-5.77m-11.56 0h-5.77m-11.55 0h-5.77m-11.55 0h-5.77m-11.55 0h-5.77m-11.54 0h-5.77m-11.56 0h-5.77m-11.55 0h-5.77m-11.55 0h-5.77m-11.55 0h-5.78m-11.54 0h-5.78m-11.54 0h-5.78m-11.54 0h-2.9M1514.26 1024.05h1.54M1298.12 1034.05l-17.32-10 17.32-10m-17.32 10h8.5" stroke="#3a414a" stroke-width="3" fill="none"/><path d="M1236.8 970.05a6 6 0 0 1 6-6h28a6 6 0 0 1 6 6v68a6 6 0 0 1-6 6h-28a6 6 0 0 1-6-6z" stroke="#000" stroke-width="2" fill="#fff"/><path d="M-512.13-192.58a6 6 0 0 1 6-6h793a6 6 0 0 1 6 6v8a14.48 14.48 0 0 1-4.25 10.24l-1.5 1.5a14.48 14.48 0 0 1-10.25 4.26h-783a6 6 0 0 1-6-6z" fill-opacity="0"/><path d="M292.87-198.58v20l-10 10h-795" stroke="#000" stroke-width="2" fill="none"/><path d="M-512.13-192.58a6 6 0 0 1 6-6h1068a6 6 0 0 1 6 6v108a6 6 0 0 1-6 6h-1068a6 6 0 0 1-6-6z" stroke="#000" stroke-width="2" fill="none"/><use xlink:href="#B" transform="matrix(1,0,0,1,-504.13198483523047,-198.58333333333303) translate(0 23.08376736111111)"/><use xlink:href="#C" transform="matrix(1,0,0,1,-504.13198483523047,-198.58333333333303) translate(31.705729166666668 23.08376736111111)"/><use xlink:href="#D" transform="matrix(1,0,0,1,-504.13198483523047,-198.58333333333303) translate(89.71354166666667 23.08376736111111)"/><use xlink:href="#E" transform="matrix(1,0,0,1,-504.13198483523047,-198.58333333333303) translate(210.42751736111111 23.08376736111111)"/><use xlink:href="#F" transform="matrix(1,0,0,1,-504.13198483523047,-198.58333333333303) translate(245.76822916666669 23.08376736111111)"/><use xlink:href="#G" transform="matrix(1,0,0,1,-504.13198483523047,-198.58333333333303) translate(290.7660590277778 23.08376736111111)"/><use xlink:href="#H" transform="matrix(1,0,0,1,-504.13198483523047,-198.58333333333303) translate(401.24782986111114 23.08376736111111)"/><use xlink:href="#I" transform="matrix(1,0,0,1,-504.13198483523047,-198.58333333333303) translate(433.9518229166667 23.08376736111111)"/><use xlink:href="#J" transform="matrix(1,0,0,1,-504.13198483523047,-198.58333333333303) translate(464.88715277777777 23.08376736111111)"/><path d="M442.55-133.8h-2.92m-11.68 0h-5.83m-11.68 0h-5.83m-11.67 0h-5.83m-11.67 0h-5.84m-11.68 0h-5.84m-11.67 0h-5.83m-11.67 0h-5.84m-11.67 0h-5.85m-11.67 0h-5.84m-11.67 0h-5.84m-11.67 0h-5.84m-11.67 0h-5.84m-11.66 0H212m-11.67 0h-5.84m-11.68 0H177m-11.7 0h-5.83m-11.67 0h-5.83m-11.68 0h-2.93M442.5-133.8h1.55M136.37-123.8l-17.33-10 17.33-10m-17.33 10h8.5" stroke="#3a414a" stroke-width="3" fill="none"/><use xlink:href="#K" transform="matrix(1,0,0,1,219.4287483659781,-159.30634181620522) translate(0 17.22222222222222)"/><use xlink:href="#L" transform="matrix(1,0,0,1,219.4287483659781,-159.30634181620522) translate(78.11631944444444 17.22222222222222)"/><path d="M72.55-122.13H69.6m-11.84 0h-5.9m-11.84 0H34.1m-11.83 0h-5.9m-11.84 0h-5.9m-11.84 0h-5.93m-11.82 0h-5.92m-11.83 0h-5.9m-11.84 0h-5.9m-11.84 0h-5.92m-11.83 0h-5.9m-11.84 0h-2.95M72.5-122.13h1.55M-113.64-112.13l-17.32-10 17.33-10m-17.33 10h8.5" stroke="#3a414a" stroke-width="3" fill="none"/><use xlink:href="#K" transform="matrix(1,0,0,1,-90.57172706133235,-147.63967518974064) translate(0 17.22222222222222)"/><use xlink:href="#L" transform="matrix(1,0,0,1,-90.57172706133235,-147.63967518974064) translate(78.11631944444444 17.22222222222222)"/><path d="M-171.4-101.13h-2.9m-11.64 0h-5.83m-11.64 0h-5.84m-11.64 0h-5.83m-11.66 0h-5.82m-11.64 0h-5.83m-11.65 0h-5.82m-11.64 0h-5.83m-11.63 0h-5.83m-11.64 0h-5.83m-11.65 0H-349m-11.64 0h-2.92M-171.43-101.13h1.54M-354.57-91.13l-17.32-10 17.33-10m-17.32 10h8.5" stroke="#3a414a" stroke-width="3" fill="none"/><use xlink:href="#K" transform="matrix(1,0,0,1,-333.0031643816411,-126.63967506331362) translate(0 17.22222222222222)"/><use xlink:href="#L" transform="matrix(1,0,0,1,-333.0031643816411,-126.63967506331362) translate(78.11631944444444 17.22222222222222)"/><path d="M1235.3 480.53h-2.98m-11.94 0h-5.97m-11.93 0h-5.96m-11.93 0h-5.97m-11.94 0h-5.97m-11.95 0h-5.96m-11.95 0h-5.97m-11.94 0h-5.97m-11.94 0h-5.96m-11.94 0h-5.97m-11.94 0h-5.97m-11.94 0h-5.95m-11.94 0h-5.96m-11.94 0h-5.97m-11.94 0h-5.98m-11.93 0h-5.98m-11.94 0h-5.97m-11.93 0h-5.96m-11.93 0H910m-11.94 0h-5.97m-11.95 0h-5.96m-11.95 0h-5.97m-11.94 0h-5.97m-11.94 0h-5.96m-11.94 0h-5.97m-11.94 0h-5.97m-11.93 0h-5.97m-11.94 0h-5.96m-11.94 0h-5.97m-11.93 0h-5.97m-11.94 0h-5.98m-11.94 0h-5.97m-11.93 0h-5.96m-11.93 0h-5.97m-11.94 0h-5.97m-11.95 0h-5.96m-11.95 0h-5.97m-11.94 0h-5.97m-11.93 0h-5.97m-11.94 0h-5.97m-11.94 0h-5.97m-11.93 0h-3" stroke="#3a414a" stroke-width="3" fill="none"/><path d="M1236.14 479.12l.42 1 .57.95.72.84.12.1h-2.7v-2.94h.85z" stroke="#3a414a" stroke-width=".05" fill="#3a414a"/><path d="M510.12 490.53l-17.32-10 17.32-10m-17.32 10h8.5" stroke="#3a414a" stroke-width="3" fill="none"/><path d="M642.58 140.45c-27.6 0-50-22.4-50-50 0-27.62 22.4-50 50-50 27.62 0 50 22.38 50 50 0 27.6-22.38 50-50 50z" stroke="#000" stroke-width="2" fill="#fff"/><path d="M592.58 140.45h100" stroke="#000" stroke-width="2" fill="none"/><use xlink:href="#M" transform="matrix(1,0,0,1,552.5842470650296,140.44694891748713) translate(22.82877604166667 21.52777777777778)"/><use xlink:href="#N" transform="matrix(1,0,0,1,552.5842470650296,140.44694891748713) translate(85.53493923611111 21.52777777777778)"/><use xlink:href="#O" transform="matrix(1,0,0,1,552.5842470650296,140.44694891748713) translate(98.18684895833333 21.52777777777778)"/><path d="M642.58 142.95v15.32m0 15.3v30.65m0 15.32v30.64m0 15.3v30.65m0 15.32v30.64m0 15.3v30.64m0 15.32V434m0 15.3v30.65m0 15.32v30.64m0 15.33v30.63m0 15.32v30.64m0 15.32v30.63m0 15.32v30.63m0 15.32v30.63m0 15.32v30.64m0 15.32v30.63m0 15.3v30.65m0 15.32v30.63m0 15.32v30.64m0 15.32v30.63m0 15.33v30.64m0 15.32v30.63m0 15.3v30.65m0 15.32v15.32" stroke="#3a414a" stroke-width="3" fill="none"/><path d="M642.56 141.45h1.5V143h-2.95v-1.55z" stroke="#3a414a" stroke-width=".05" fill="#3a414a"/><path d="M642.58 1199.88v1.54M1006.37 189.87h-3.03m-12.12 0h-6.06m-12.12 0H967m-12.13 0h-6.06m-12.1 0h-6.07m-12.1 0h-6.07m-12.12 0h-6.06m-12.12 0h-6.05m-12.1 0h-6.07m-12.12 0h-6.05m-12.1 0h-6.07m-12.12 0h-6.06m-12.12 0h-6.05m-12.12 0h-6.05m-12.12 0h-6.06m-12.1 0h-6.07m-12.12 0h-6.06m-12.12 0h-6.05m-12.12 0h-3.03M1006.33 189.87h1.54M688.2 199.87l-17.33-10 17.32-10m-17.33 10h8.5M1006.37 12.82h-3m-12.04 0h-6m-12.04 0h-6.03m-12.02 0h-6.02m-12.03 0h-6m-12.04 0h-6.02m-12.02 0h-6.02m-12.03 0h-6m-12.04 0H859m-12 0h-6.03m-12.03 0h-6m-12.04 0h-6.02m-12.02 0h-6.02m-12.03 0h-6m-12.03 0h-6.02m-12.02 0h-6.02m-12.02 0h-6m-12.04 0h-6.02m-12.02 0h-6.02m-12.03 0h-6m-12.04 0h-6m-12.03 0h-6.02m-12.03 0h-6m-12.04 0h-6.02m-12.02 0h-6.02m-12.03 0h-6.02m-12.03 0h-6.02m-12.02 0h-3M1006.33 12.82h1.54M528.2 22.82l-17.33-10 17.32-10m-17.33 10h8.5M442.55 46.2h-2.92m-11.68 0h-5.83m-11.68 0h-5.83m-11.67 0h-5.83m-11.67 0h-5.84m-11.68 0h-5.84m-11.67 0h-5.83m-11.67 0h-5.84m-11.67 0h-5.85m-11.67 0h-5.84m-11.67 0h-5.84m-11.67 0h-5.84m-11.67 0h-5.84m-11.66 0H212m-11.67 0h-5.84m-11.68 0H177m-11.7 0h-5.83m-11.67 0h-5.83m-11.68 0h-2.93M442.5 46.2h1.55M136.37 56.2l-17.33-10 17.33-10m-17.33 10h8.5" stroke="#3a414a" stroke-width="3" fill="none"/><g><use xlink:href="#K" transform="matrix(1,0,0,1,219.4287483659781,20.693658183794774) translate(0 17.22222222222222)"/><use xlink:href="#L" transform="matrix(1,0,0,1,219.4287483659781,20.693658183794774) translate(78.11631944444444 17.22222222222222)"/></g><path d="M72.55 57.87H69.6m-11.84 0h-5.9m-11.84 0H34.1m-11.83 0h-5.9m-11.84 0h-5.9m-11.84 0h-5.93m-11.82 0h-5.92m-11.83 0h-5.9m-11.84 0h-5.9m-11.84 0h-5.92m-11.83 0h-5.9m-11.84 0h-2.95M72.5 57.87h1.55M-113.64 67.87l-17.32-10 17.33-10m-17.33 10h8.5" stroke="#3a414a" stroke-width="3" fill="none"/><g><use xlink:href="#K" transform="matrix(1,0,0,1,-90.57172706133235,32.36032481025934) translate(0 17.22222222222222)"/><use xlink:href="#L" transform="matrix(1,0,0,1,-90.57172706133235,32.36032481025934) translate(78.11631944444444 17.22222222222222)"/></g><path d="M-171.4 78.87h-2.9m-11.64 0h-5.83m-11.64 0h-5.84m-11.64 0h-5.83m-11.66 0h-5.82m-11.64 0h-5.83m-11.65 0h-5.82m-11.64 0h-5.83m-11.63 0h-5.83m-11.64 0h-5.83m-11.65 0H-349m-11.64 0h-2.92M-171.43 78.87h1.54M-354.57 88.87l-17.32-10 17.33-10m-17.32 10h8.5" stroke="#3a414a" stroke-width="3" fill="none"/><g><use xlink:href="#K" transform="matrix(1,0,0,1,-333.0031643816411,53.360324936686396) translate(0 17.22222222222222)"/><use xlink:href="#L" transform="matrix(1,0,0,1,-333.0031643816411,53.360324936686396) translate(78.11631944444444 17.22222222222222)"/></g><path d="M-512.13-12.58a6 6 0 0 1 6-6h793a6 6 0 0 1 6 6v8a14.48 14.48 0 0 1-4.25 10.24l-1.5 1.5a14.48 14.48 0 0 1-10.25 4.26h-783a6 6 0 0 1-6-6z" fill-opacity="0"/><path d="M292.87-18.58v20l-10 10h-795" stroke="#000" stroke-width="2" fill="none"/><path d="M-512.13-12.58a6 6 0 0 1 6-6h1068a6 6 0 0 1 6 6v108a6 6 0 0 1-6 6h-1068a6 6 0 0 1-6-6z" stroke="#000" stroke-width="2" fill="none"/><g><use xlink:href="#B" transform="matrix(1,0,0,1,-504.13198483523047,-18.58333333333303) translate(0 23.08376736111111)"/><use xlink:href="#C" transform="matrix(1,0,0,1,-504.13198483523047,-18.58333333333303) translate(31.705729166666668 23.08376736111111)"/><use xlink:href="#D" transform="matrix(1,0,0,1,-504.13198483523047,-18.58333333333303) translate(89.71354166666667 23.08376736111111)"/><use xlink:href="#E" transform="matrix(1,0,0,1,-504.13198483523047,-18.58333333333303) translate(210.42751736111111 23.08376736111111)"/><use xlink:href="#F" transform="matrix(1,0,0,1,-504.13198483523047,-18.58333333333303) translate(245.76822916666669 23.08376736111111)"/><use xlink:href="#G" transform="matrix(1,0,0,1,-504.13198483523047,-18.58333333333303) translate(290.7660590277778 23.08376736111111)"/><use xlink:href="#H" transform="matrix(1,0,0,1,-504.13198483523047,-18.58333333333303) translate(401.24782986111114 23.08376736111111)"/><use xlink:href="#P" transform="matrix(1,0,0,1,-504.13198483523047,-18.58333333333303) translate(433.9518229166667 23.08376736111111)"/><use xlink:href="#Q" transform="matrix(1,0,0,1,-504.13198483523047,-18.58333333333303) translate(547.2222222222223 23.08376736111111)"/><use xlink:href="#R" transform="matrix(1,0,0,1,-504.13198483523047,-18.58333333333303) translate(565.9505208333334 23.08376736111111)"/><use xlink:href="#S" transform="matrix(1,0,0,1,-504.13198483523047,-18.58333333333303) translate(598.4700520833334 23.08376736111111)"/><use xlink:href="#T" transform="matrix(1,0,0,1,-504.13198483523047,-18.58333333333303) translate(661.1762152777778 23.08376736111111)"/></g><path d="M797.87 381.42c-27.62 0-50-22.4-50-50 0-27.62 22.38-50 50-50 27.6 0 50 22.38 50 50 0 27.6-22.4 50-50 50z" stroke="#000" stroke-width="2" fill="#fff"/><path d="M747.87 381.42h100" stroke="#000" stroke-width="2" fill="none"/><g><use xlink:href="#U" transform="matrix(1,0,0,1,707.8680151647695,381.41666666666697) translate(28.802083333333336 21.52777777777778)"/><use xlink:href="#V" transform="matrix(1,0,0,1,707.8680151647695,381.41666666666697) translate(144.79600694444443 21.52777777777778)"/><use xlink:href="#W" transform="matrix(1,0,0,1,707.8680151647695,381.41666666666697) translate(-29.558376736111114 53.79340277777778)"/></g><path d="M797.87 383.92v15.1m0 15.12v30.22m0 15.1v30.24m0 15.1v30.23m0 15.1v30.23m0 15.1v30.24m0 15.1v30.23m0 15.1v30.23m0 15.1v30.24m0 15.1v30.23m0 15.1v30.23m0 15.1v30.24m0 15.1v30.23m0 15.1v30.23m0 15.1v30.23m0 15.1v30.23m0 15.1v30.23m0 15.1v30.23m0 15.1v15.12" stroke="#3a414a" stroke-width="3" fill="none"/><path d="M797.84 382.42h1.49v1.54h-2.95v-1.54z" stroke="#3a414a" stroke-width=".05" fill="#3a414a"/><path d="M797.87 1199.88v1.54" stroke="#3a414a" stroke-width="3" fill="none"/><defs><path d="M763 24c-353 0-583-224-583-531v-983h190v968c0 214 149 370 393 370 243 0 391-156 391-370v-968h190v983c0 307-230 531-581 531" id="X"/><path d="M538 24C308 24 148-78 108-271l171-41c32 123 123 178 257 178 156 0 256-77 256-169 0-77-54-128-164-154l-186-44c-203-48-300-148-300-305 0-192 176-326 414-326 230 0 351 112 402 269l-163 42c-31-80-94-158-238-158-133 0-233 69-233 162 0 83 57 129 188 160l169 40c203 48 298 149 298 302 0 196-179 339-441 339" id="Y"/><path d="M537 14c-226 0-379-139-379-422v-710h180v695c0 172 97 275 253 275 160 0 281-109 281-300v-670h181V0H879v-209C806-46 684 14 537 14" id="Z"/><path d="M471 26C259 26 90-98 90-318c0-256 228-303 435-329 202-27 287-16 287-108 0-139-79-219-234-219-161 0-248 86-283 164l-173-57c86-203 278-265 451-265 150 0 419 46 419 395V0H815v-152h-12C765-73 660 26 471 26zm31-159c199 0 310-134 310-271v-155c-30 35-226 55-295 64-131 17-246 59-246 186 0 116 97 176 231 176" id="aa"/><path d="M158 0v-1118h174v172h12c41-113 157-188 290-188 26 0 70 2 91 3v181c-11-2-60-10-108-10-161 0-279 109-279 260V0H158" id="ab"/><path d="M158 0v-1118h180V0H158zm91-1301c-68 0-125-53-125-119s57-119 125-119c69 0 126 53 126 119s-57 119-126 119" id="ac"/><path d="M613 24c-304 0-509-231-509-576 0-350 205-580 509-580 305 0 511 230 511 580 0 345-206 576-511 576zm0-161c226 0 329-195 329-415 0-222-103-419-329-419-223 0-326 196-326 419 0 220 103 415 326 415" id="ad"/><g id="a"><use transform="matrix(0.010850694444444444,0,0,0.010850694444444444,0,0)" xlink:href="#X"/><use transform="matrix(0.010850694444444444,0,0,0.010850694444444444,16.536458333333332,0)" xlink:href="#Y"/><use transform="matrix(0.010850694444444444,0,0,0.010850694444444444,28.266059027777775,0)" xlink:href="#Z"/><use transform="matrix(0.010850694444444444,0,0,0.010850694444444444,41.40625,0)" xlink:href="#aa"/><use transform="matrix(0.010850694444444444,0,0,0.010850694444444444,53.88454861111112,0)" xlink:href="#ab"/><use transform="matrix(0.010850694444444444,0,0,0.010850694444444444,62.59765625,0)" xlink:href="#ac"/><use transform="matrix(0.010850694444444444,0,0,0.010850694444444444,67.97960069444444,0)" xlink:href="#ad"/></g><path d="M657 26c-323 0-524-166-541-416h195c15 169 171 246 346 246 202 0 356-106 356-265 5-203-294-238-475-293-239-73-380-191-380-389 0-252 224-419 512-419 294 0 499 171 508 396H992c-17-145-151-228-328-228-193 0-321 102-321 242 0 156 175 211 284 241l149 41c160 44 422 134 422 412 0 244-197 432-541 432" id="ae"/><path d="M613 24c-304 0-509-231-509-576 0-350 205-580 509-580 216 0 392 114 453 309l-173 49c-33-115-133-197-280-197-223 0-326 196-326 419 0 220 103 415 326 415 150 0 252-85 285-206l172 49C1010-95 832 24 613 24" id="af"/><path d="M783 20c-382 0-661-292-661-764 0-473 279-766 661-766 302 0 548 182 601 489h-190c-42-204-217-313-411-313-268 0-476 208-476 590 0 381 209 588 476 588 195 0 369-110 411-313h190c-52 303-296 489-601 489" id="ag"/><path d="M338-670V0H158v-1118h173l1 207c72-158 192-221 342-221 226 0 378 139 378 422V0H872v-695c0-172-96-275-252-275-161 0-282 109-282 300" id="ah"/><path d="M598-1118v154H368v674c0 100 37 144 132 144 23 0 62-6 92-12L629-6c-37 13-88 20-134 20-193 0-307-107-307-290v-688H20v-154h168v-266h180v266h230" id="ai"/><path d="M338-1490V0H158v-1490h180" id="aj"/><path d="M628 24c-324 0-524-230-524-574 0-343 198-582 503-582 237 0 487 146 487 559v75H286c9 234 145 362 343 362 132 0 231-58 273-172l174 48C1024-91 857 24 628 24zM287-650h624c-17-190-120-322-304-322-192 0-309 151-320 322" id="ak"/><g id="b"><use transform="matrix(0.010850694444444444,0,0,0.010850694444444444,0,0)" xlink:href="#ae"/><use transform="matrix(0.010850694444444444,0,0,0.010850694444444444,14.2578125,0)" xlink:href="#ad"/><use transform="matrix(0.010850694444444444,0,0,0.010850694444444444,27.58246527777778,0)" xlink:href="#af"/><use transform="matrix(0.010850694444444444,0,0,0.010850694444444444,40.27777777777778,0)" xlink:href="#ac"/><use transform="matrix(0.010850694444444444,0,0,0.010850694444444444,45.65972222222222,0)" xlink:href="#ad"/><use transform="matrix(0.010850694444444444,0,0,0.010850694444444444,58.984375,0)" xlink:href="#ag"/><use transform="matrix(0.010850694444444444,0,0,0.010850694444444444,75.21701388888889,0)" xlink:href="#ad"/><use transform="matrix(0.010850694444444444,0,0,0.010850694444444444,88.54166666666666,0)" xlink:href="#ah"/><use transform="matrix(0.010850694444444444,0,0,0.010850694444444444,101.67100694444441,0)" xlink:href="#ai"/><use transform="matrix(0.010850694444444444,0,0,0.010850694444444444,108.9409722222222,0)" xlink:href="#ab"/><use transform="matrix(0.010850694444444444,0,0,0.010850694444444444,116.93793402777776,0)" xlink:href="#ad"/><use transform="matrix(0.010850694444444444,0,0,0.010850694444444444,130.26258680555554,0)" xlink:href="#aj"/><use transform="matrix(0.010850694444444444,0,0,0.010850694444444444,135.64453125,0)" xlink:href="#aj"/><use transform="matrix(0.010850694444444444,0,0,0.010850694444444444,141.02647569444446,0)" xlink:href="#ak"/><use transform="matrix(0.010850694444444444,0,0,0.010850694444444444,153.98220486111111,0)" xlink:href="#ab"/></g><path d="M370-1490V0H180v-1490h190" id="al"/><path d="M678-1118v154H420V0H240v-964H20v-154h220v-149c0-194 155-293 318-293 85 0 141 18 168 30l-50 154c-19-6-47-17-97-17-111 0-159 58-159 166v109h258" id="am"/><path d="M126 0v-134l627-806v-11H146v-167h839v143L376-178v11h629V0H126" id="an"/><g id="c"><use transform="matrix(0.010850694444444444,0,0,0.010850694444444444,0,0)" xlink:href="#al"/><use transform="matrix(0.010850694444444444,0,0,0.010850694444444444,5.967881944444445,0)" xlink:href="#ah"/><use transform="matrix(0.010850694444444444,0,0,0.010850694444444444,19.09722222222222,0)" xlink:href="#ai"/><use transform="matrix(0.010850694444444444,0,0,0.010850694444444444,26.15017361111111,0)" xlink:href="#ak"/><use transform="matrix(0.010850694444444444,0,0,0.010850694444444444,39.10590277777778,0)" xlink:href="#ab"/><use transform="matrix(0.010850694444444444,0,0,0.010850694444444444,47.819010416666664,0)" xlink:href="#am"/><use transform="matrix(0.010850694444444444,0,0,0.010850694444444444,55.69661458333333,0)" xlink:href="#aa"/><use transform="matrix(0.010850694444444444,0,0,0.010850694444444444,68.17491319444444,0)" xlink:href="#an"/></g><g id="d"><use transform="matrix(0.010850694444444444,0,0,0.010850694444444444,0,0)" xlink:href="#X"/><use transform="matrix(0.010850694444444444,0,0,0.010850694444444444,16.536458333333332,0)" xlink:href="#al"/></g><path d="M481 0L54-1118h197c107 314 236 620 325 951 87-331 217-637 324-951h197L670 0H481" id="ao"/><g id="e"><use transform="matrix(0.010850694444444444,0,0,0.010850694444444444,0,0)" xlink:href="#ae"/><use transform="matrix(0.010850694444444444,0,0,0.010850694444444444,14.2578125,0)" xlink:href="#ad"/><use transform="matrix(0.010850694444444444,0,0,0.010850694444444444,27.58246527777778,0)" xlink:href="#af"/><use transform="matrix(0.010850694444444444,0,0,0.010850694444444444,40.27777777777778,0)" xlink:href="#ac"/><use transform="matrix(0.010850694444444444,0,0,0.010850694444444444,45.65972222222222,0)" xlink:href="#ad"/><use transform="matrix(0.010850694444444444,0,0,0.010850694444444444,58.984375,0)" xlink:href="#ae"/><use transform="matrix(0.010850694444444444,0,0,0.010850694444444444,73.2421875,0)" xlink:href="#ak"/><use transform="matrix(0.010850694444444444,0,0,0.010850694444444444,86.19791666666667,0)" xlink:href="#ab"/><use transform="matrix(0.010850694444444444,0,0,0.010850694444444444,94.91102430555557,0)" xlink:href="#ao"/><use transform="matrix(0.010850694444444444,0,0,0.010850694444444444,107.40017361111113,0)" xlink:href="#ac"/><use transform="matrix(0.010850694444444444,0,0,0.010850694444444444,112.78211805555557,0)" xlink:href="#af"/><use transform="matrix(0.010850694444444444,0,0,0.010850694444444444,125.47743055555557,0)" xlink:href="#ak"/></g><path d="M180 0v-1490h908v168H370v486h669v168H370v500h727V0H180" id="ap"/><path d="M218-607c0-325 108-727 258-974h175c-155 315-250 682-250 974 0 265 78 531 250 886H476C306-10 218-315 218-607" id="aq"/><path d="M96 279C273-86 346-350 346-607c0-292-95-659-250-974h175c150 246 258 650 258 974 0 297-91 602-258 886H96" id="ar"/><g id="f"><use transform="matrix(0.008173828125000001,0,0,0.008173828125000001,0,0)" xlink:href="#ap"/><use transform="matrix(0.008173828125000001,0,0,0.008173828125000001,10.061982421875001,0)" xlink:href="#ao"/><use transform="matrix(0.008173828125000001,0,0,0.008173828125000001,19.14310546875,0)" xlink:href="#ak"/><use transform="matrix(0.008173828125000001,0,0,0.008173828125000001,28.90265625,0)" xlink:href="#ah"/><use transform="matrix(0.008173828125000001,0,0,0.008173828125000001,38.792988281250004,0)" xlink:href="#ai"/><use transform="matrix(0.008173828125000001,0,0,0.008173828125000001,44.105976562500004,0)" xlink:href="#ad"/><use transform="matrix(0.008173828125000001,0,0,0.008173828125000001,54.143437500000005,0)" xlink:href="#aq"/><use transform="matrix(0.008173828125000001,0,0,0.008173828125000001,60.249287109375004,0)" xlink:href="#ar"/></g><path d="M158 0v-1118h175l1 205c55-151 181-225 313-225 147 0 245 90 285 228 53-141 190-228 352-228 194 0 352 125 352 384V0h-181v-749c0-161-105-225-225-225-151 0-243 103-243 244V0H807v-767c0-124-93-207-219-207-131 0-250 92-250 270V0H158" id="as"/><path d="M677 24c-213 0-288-135-325-197h-20V0H158v-1490h180v551h14c37-59 106-193 324-193 279 0 474 222 474 576 0 356-194 580-473 580zm-27-161c209 0 317-186 317-421 0-232-105-413-317-413-206 0-314 166-314 413 0 249 111 421 314 421" id="at"/><g id="g"><use transform="matrix(0.008173828125000001,0,0,0.008173828125000001,0,0)" xlink:href="#ag"/><use transform="matrix(0.008173828125000001,0,0,0.008173828125000001,12.228046875000002,0)" xlink:href="#aa"/><use transform="matrix(0.008173828125000001,0,0,0.008173828125000001,21.627949218750004,0)" xlink:href="#as"/><use transform="matrix(0.008173828125000001,0,0,0.008173828125000001,36.291796875,0)" xlink:href="#at"/><use transform="matrix(0.008173828125000001,0,0,0.008173828125000001,46.541777343750006,0)" xlink:href="#ac"/><use transform="matrix(0.008173828125000001,0,0,0.008173828125000001,50.59599609375,0)" xlink:href="#ad"/><use transform="matrix(0.008173828125000001,0,0,0.008173828125000001,60.633457031249996,0)" xlink:href="#aq"/><use transform="matrix(0.008173828125000001,0,0,0.008173828125000001,66.739306640625,0)" xlink:href="#ar"/></g><path d="M295 13c-75 0-135-60-135-135s60-135 135-135 135 60 135 135S370 13 295 13zm0-809c-75 0-135-60-135-135s60-135 135-135 135 60 135 135-60 135-135 135" id="au"/><g id="h"><use transform="matrix(0.008173828125000001,0,0,0.008173828125000001,0,0)" xlink:href="#at"/><use transform="matrix(0.008173828125000001,0,0,0.008173828125000001,10.249980468750001,0)" xlink:href="#ad"/><use transform="matrix(0.008173828125000001,0,0,0.008173828125000001,20.287441406250004,0)" xlink:href="#ad"/><use transform="matrix(0.008173828125000001,0,0,0.008173828125000001,30.324902343750004,0)" xlink:href="#aj"/><use transform="matrix(0.008173828125000001,0,0,0.008173828125000001,34.37912109375,0)" xlink:href="#au"/></g><path d="M611 442c-248 0-391-105-460-228l146-94c47 65 117 165 314 165 178 0 307-82 307-266v-224h-17C863-141 792-18 576-18c-268 0-472-195-472-546 0-346 197-568 476-568 216 0 288 133 326 193h17v-179h175V29c0 289-215 413-487 413zm-5-620c203 0 314-146 314-390 0-237-108-403-314-403-213 0-319 180-319 403 0 230 109 390 319 390" id="av"/><path d="M180 0v-1490h270l367 940c28 72 75 218 110 339 35-117 81-264 110-339l362-940h271V0h-187c2-448-5-837 7-1287-157 497-311 829-483 1287H842C666-458 514-784 354-1284c12 438 5 843 7 1284H180" id="aw"/><path d="M577 24c-279 0-473-224-473-580 0-354 195-576 474-576 218 0 287 134 324 193h14v-551h180V0H922v-173h-20C865-111 790 24 577 24zm27-161c203 0 314-172 314-421 0-247-108-413-314-413-212 0-317 181-317 413 0 235 108 421 317 421" id="ax"/><g id="i"><use transform="matrix(0.008173828125000001,0,0,0.008173828125000001,0,0)" xlink:href="#ab"/><use transform="matrix(0.008173828125000001,0,0,0.008173828125000001,6.0241113281250005,0)" xlink:href="#ak"/><use transform="matrix(0.008173828125000001,0,0,0.008173828125000001,15.783662109375001,0)" xlink:href="#av"/><use transform="matrix(0.008173828125000001,0,0,0.008173828125000001,26.049990234375002,0)" xlink:href="#ac"/><use transform="matrix(0.008173828125000001,0,0,0.008173828125000001,30.104208984375003,0)" xlink:href="#Y"/><use transform="matrix(0.008173828125000001,0,0,0.008173828125000001,38.94011718750001,0)" xlink:href="#ai"/><use transform="matrix(0.008173828125000001,0,0,0.008173828125000001,44.41658203125001,0)" xlink:href="#ab"/><use transform="matrix(0.008173828125000001,0,0,0.008173828125000001,50.718603515625006,0)" xlink:href="#aa"/><use transform="matrix(0.008173828125000001,0,0,0.008173828125000001,60.118505859375006,0)" xlink:href="#ab"/><use transform="matrix(0.008173828125000001,0,0,0.008173828125000001,66.68208984375,0)" xlink:href="#aw"/><use transform="matrix(0.008173828125000001,0,0,0.008173828125000001,81.803671875,0)" xlink:href="#ad"/><use transform="matrix(0.008173828125000001,0,0,0.008173828125000001,91.5141796875,0)" xlink:href="#ao"/><use transform="matrix(0.008173828125000001,0,0,0.008173828125000001,100.922255859375,0)" xlink:href="#ac"/><use transform="matrix(0.008173828125000001,0,0,0.008173828125000001,104.976474609375,0)" xlink:href="#as"/><use transform="matrix(0.008173828125000001,0,0,0.008173828125000001,119.640322265625,0)" xlink:href="#ac"/><use transform="matrix(0.008173828125000001,0,0,0.008173828125000001,123.694541015625,0)" xlink:href="#ak"/><use transform="matrix(0.008173828125000001,0,0,0.008173828125000001,133.45409179687502,0)" xlink:href="#ah"/><use transform="matrix(0.008173828125000001,0,0,0.008173828125000001,143.34442382812503,0)" xlink:href="#ai"/><use transform="matrix(0.008173828125000001,0,0,0.008173828125000001,148.65741210937503,0)" xlink:href="#ad"/><use transform="matrix(0.008173828125000001,0,0,0.008173828125000001,158.69487304687505,0)" xlink:href="#aq"/><use transform="matrix(0.008173828125000001,0,0,0.008173828125000001,164.80072265625006,0)" xlink:href="#ac"/><use transform="matrix(0.008173828125000001,0,0,0.008173828125000001,168.85494140625005,0)" xlink:href="#ax"/><use transform="matrix(0.008173828125000001,0,0,0.008173828125000001,179.10492187500006,0)" xlink:href="#ae"/><use transform="matrix(0.008173828125000001,0,0,0.008173828125000001,189.84533203125005,0)" xlink:href="#ad"/><use transform="matrix(0.008173828125000001,0,0,0.008173828125000001,199.88279296875007,0)" xlink:href="#af"/><use transform="matrix(0.008173828125000001,0,0,0.008173828125000001,209.44617187500003,0)" xlink:href="#ac"/><use transform="matrix(0.008173828125000001,0,0,0.008173828125000001,213.50039062500002,0)" xlink:href="#ad"/><use transform="matrix(0.008173828125000001,0,0,0.008173828125000001,223.349853515625,0)" xlink:href="#ar"/></g><path d="M180 0v-1490h510c348 0 508 194 508 460 0 198-88 351-276 417L1256 0h-220L726-579c-117 2-238 0-356 1V0H180zm190-747h312c235 0 327-108 327-283 0-177-92-293-329-293H370v576" id="ay"/><path d="M158 418v-1536h174v179h20c37-59 106-193 324-193 279 0 474 222 474 576 0 356-194 580-473 580-213 0-288-135-325-197h-14v591H158zm492-555c209 0 317-186 317-421 0-232-105-413-317-413-206 0-314 166-314 413 0 249 111 421 314 421" id="az"/><path d="M140 405l46-156c120 36 205 19 263-150l32-93L54-1118h197c107 313 237 620 324 950 87-331 219-637 326-950h196L606 167c-68 178-176 259-334 259-64 0-113-12-132-21" id="aA"/><g id="j"><use transform="matrix(0.010850694444444444,0,0,0.010850694444444444,0,0)" xlink:href="#ae"/><use transform="matrix(0.010850694444444444,0,0,0.010850694444444444,14.2578125,0)" xlink:href="#ad"/><use transform="matrix(0.010850694444444444,0,0,0.010850694444444444,27.58246527777778,0)" xlink:href="#af"/><use transform="matrix(0.010850694444444444,0,0,0.010850694444444444,40.27777777777778,0)" xlink:href="#ac"/><use transform="matrix(0.010850694444444444,0,0,0.010850694444444444,45.65972222222222,0)" xlink:href="#ad"/><use transform="matrix(0.010850694444444444,0,0,0.010850694444444444,58.984375,0)" xlink:href="#ay"/><use transform="matrix(0.010850694444444444,0,0,0.010850694444444444,72.96006944444444,0)" xlink:href="#ak"/><use transform="matrix(0.010850694444444444,0,0,0.010850694444444444,85.91579861111111,0)" xlink:href="#az"/><use transform="matrix(0.010850694444444444,0,0,0.010850694444444444,99.52256944444444,0)" xlink:href="#ad"/><use transform="matrix(0.010850694444444444,0,0,0.010850694444444444,112.84722222222221,0)" xlink:href="#Y"/><use transform="matrix(0.010850694444444444,0,0,0.010850694444444444,124.57682291666666,0)" xlink:href="#ac"/><use transform="matrix(0.010850694444444444,0,0,0.010850694444444444,129.95876736111111,0)" xlink:href="#ai"/><use transform="matrix(0.010850694444444444,0,0,0.010850694444444444,137.01171875,0)" xlink:href="#ad"/><use transform="matrix(0.010850694444444444,0,0,0.010850694444444444,150.33637152777777,0)" xlink:href="#ab"/><use transform="matrix(0.010850694444444444,0,0,0.010850694444444444,159.04947916666666,0)" xlink:href="#aA"/></g><g id="k"><use transform="matrix(0.008173828125000001,0,0,0.008173828125000001,0,0)" xlink:href="#X"/><use transform="matrix(0.008173828125000001,0,0,0.008173828125000001,12.456914062500001,0)" xlink:href="#Y"/><use transform="matrix(0.008173828125000001,0,0,0.008173828125000001,21.292822265625002,0)" xlink:href="#ak"/><use transform="matrix(0.008173828125000001,0,0,0.008173828125000001,31.052373046875005,0)" xlink:href="#ab"/><use transform="matrix(0.008173828125000001,0,0,0.008173828125000001,37.35439453125001,0)" xlink:href="#au"/></g><path d="M180 0v-1490h528c311 0 458 177 458 395 0 191-114 278-244 313v14c139 9 302 137 302 371 0 225-148 397-499 397H180zm190-168h350c232 0 321-102 321-231 0-149-120-277-311-277H370v508zm0-668h328c160 0 286-101 286-255 0-129-87-231-280-231H370v486" id="aB"/><g id="l"><use transform="matrix(0.008173828125000001,0,0,0.008173828125000001,0,0)" xlink:href="#am"/><use transform="matrix(0.008173828125000001,0,0,0.008173828125000001,6.195761718750001,0)" xlink:href="#ac"/><use transform="matrix(0.008173828125000001,0,0,0.008173828125000001,10.249980468750001,0)" xlink:href="#ah"/><use transform="matrix(0.008173828125000001,0,0,0.008173828125000001,20.1403125,0)" xlink:href="#ax"/><use transform="matrix(0.008173828125000001,0,0,0.008173828125000001,30.390292968750003,0)" xlink:href="#aB"/><use transform="matrix(0.008173828125000001,0,0,0.008173828125000001,41.343222656250006,0)" xlink:href="#aA"/><use transform="matrix(0.008173828125000001,0,0,0.008173828125000001,50.833037109375006,0)" xlink:href="#al"/><use transform="matrix(0.008173828125000001,0,0,0.008173828125000001,55.328642578125006,0)" xlink:href="#ax"/><use transform="matrix(0.008173828125000001,0,0,0.008173828125000001,65.57862304687501,0)" xlink:href="#aq"/><use transform="matrix(0.008173828125000001,0,0,0.008173828125000001,71.68447265625001,0)" xlink:href="#ac"/><use transform="matrix(0.008173828125000001,0,0,0.008173828125000001,75.73869140625001,0)" xlink:href="#ax"/><use transform="matrix(0.008173828125000001,0,0,0.008173828125000001,85.98867187500001,0)" xlink:href="#ae"/><use transform="matrix(0.008173828125000001,0,0,0.008173828125000001,96.72908203125002,0)" xlink:href="#ad"/><use transform="matrix(0.008173828125000001,0,0,0.008173828125000001,106.76654296875002,0)" xlink:href="#af"/><use transform="matrix(0.008173828125000001,0,0,0.008173828125000001,116.32992187500003,0)" xlink:href="#ac"/><use transform="matrix(0.008173828125000001,0,0,0.008173828125000001,120.38414062500003,0)" xlink:href="#ad"/><use transform="matrix(0.008173828125000001,0,0,0.008173828125000001,130.23360351562502,0)" xlink:href="#ar"/></g><path d="M784 20c-382 0-662-292-662-764 0-473 280-766 662-766s660 293 660 766c0 472-278 764-660 764zm0-176c266 0 475-207 475-588 0-383-209-590-475-590-268 0-477 208-477 590 0 380 209 588 477 588" id="aC"/><path d="M157-1118h181V80c1 225-123 350-364 338V252c126 9 184-48 183-172v-1198zm91-183c-68 0-125-53-125-119s57-119 125-119c69 0 126 53 126 119s-57 119-126 119" id="aD"/><g id="m"><use transform="matrix(0.008173828125000001,0,0,0.008173828125000001,0,0)" xlink:href="#aC"/><use transform="matrix(0.008173828125000001,0,0,0.008173828125000001,12.800214843750002,0)" xlink:href="#at"/><use transform="matrix(0.008173828125000001,0,0,0.008173828125000001,23.0501953125,0)" xlink:href="#aD"/><use transform="matrix(0.008173828125000001,0,0,0.008173828125000001,27.104414062500002,0)" xlink:href="#ak"/><use transform="matrix(0.008173828125000001,0,0,0.008173828125000001,36.863964843750004,0)" xlink:href="#af"/><use transform="matrix(0.008173828125000001,0,0,0.008173828125000001,46.427343750000006,0)" xlink:href="#ai"/><use transform="matrix(0.008173828125000001,0,0,0.008173828125000001,51.90380859375001,0)" xlink:href="#au"/></g><g id="n"><use transform="matrix(0.008173828125000001,0,0,0.008173828125000001,0,0)" xlink:href="#am"/><use transform="matrix(0.008173828125000001,0,0,0.008173828125000001,6.195761718750001,0)" xlink:href="#ac"/><use transform="matrix(0.008173828125000001,0,0,0.008173828125000001,10.249980468750001,0)" xlink:href="#ah"/><use transform="matrix(0.008173828125000001,0,0,0.008173828125000001,20.1403125,0)" xlink:href="#ax"/><use transform="matrix(0.008173828125000001,0,0,0.008173828125000001,30.390292968750003,0)" xlink:href="#aq"/><use transform="matrix(0.008173828125000001,0,0,0.008173828125000001,36.496142578125,0)" xlink:href="#ac"/><use transform="matrix(0.008173828125000001,0,0,0.008173828125000001,40.55036132812501,0)" xlink:href="#ax"/><use transform="matrix(0.008173828125000001,0,0,0.008173828125000001,50.80034179687501,0)" xlink:href="#ae"/><use transform="matrix(0.008173828125000001,0,0,0.008173828125000001,61.54075195312501,0)" xlink:href="#ad"/><use transform="matrix(0.008173828125000001,0,0,0.008173828125000001,71.57821289062501,0)" xlink:href="#af"/><use transform="matrix(0.008173828125000001,0,0,0.008173828125000001,81.14159179687502,0)" xlink:href="#ac"/><use transform="matrix(0.008173828125000001,0,0,0.008173828125000001,85.19581054687502,0)" xlink:href="#ad"/><use transform="matrix(0.008173828125000001,0,0,0.008173828125000001,95.04527343750003,0)" xlink:href="#ar"/></g><path d="M1096 418H916v-591h-14C865-111 790 24 577 24c-279 0-473-224-473-580 0-354 195-576 474-576 218 0 287 134 324 193h20v-179h174V418zM604-137c203 0 314-172 314-421 0-247-108-413-314-413-212 0-317 181-317 413 0 235 108 421 317 421" id="aE"/><g id="o"><use transform="matrix(0.008173828125000001,0,0,0.008173828125000001,0,0)" xlink:href="#aE"/><use transform="matrix(0.008173828125000001,0,0,0.008173828125000001,10.249980468750001,0)" xlink:href="#Z"/><use transform="matrix(0.008173828125000001,0,0,0.008173828125000001,20.148486328125003,0)" xlink:href="#ak"/><use transform="matrix(0.008173828125000001,0,0,0.008173828125000001,29.908037109375005,0)" xlink:href="#ab"/><use transform="matrix(0.008173828125000001,0,0,0.008173828125000001,36.47162109375,0)" xlink:href="#aA"/><use transform="matrix(0.008173828125000001,0,0,0.008173828125000001,45.879697265625005,0)" xlink:href="#aq"/><use transform="matrix(0.008173828125000001,0,0,0.008173828125000001,51.985546875000004,0)" xlink:href="#Y"/><use transform="matrix(0.008173828125000001,0,0,0.008173828125000001,60.821455078125005,0)" xlink:href="#ai"/><use transform="matrix(0.008173828125000001,0,0,0.008173828125000001,66.297919921875,0)" xlink:href="#ab"/><use transform="matrix(0.008173828125000001,0,0,0.008173828125000001,72.86150390625001,0)" xlink:href="#ac"/><use transform="matrix(0.008173828125000001,0,0,0.008173828125000001,76.91572265625001,0)" xlink:href="#ah"/><use transform="matrix(0.008173828125000001,0,0,0.008173828125000001,86.80605468750001,0)" xlink:href="#av"/><use transform="matrix(0.008173828125000001,0,0,0.008173828125000001,97.07238281250001,0)" xlink:href="#ae"/><use transform="matrix(0.008173828125000001,0,0,0.008173828125000001,107.81279296875002,0)" xlink:href="#aE"/><use transform="matrix(0.008173828125000001,0,0,0.008173828125000001,118.06277343750001,0)" xlink:href="#aj"/><use transform="matrix(0.008173828125000001,0,0,0.008173828125000001,122.11699218750002,0)" xlink:href="#ar"/></g><path d="M98-1322v-168h1126v168H757V0H567v-1322H98" id="aF"/><path d="M180 0v-1490h224l606 953c40 63 108 177 176 312-27-437-7-821-13-1265h190V0h-226C860-448 622-778 356-1262c27 476 11 792 15 1262H180" id="aG"/><path d="M409 0L70-1118h191c89 329 165 560 243 925 75-353 154-601 240-925h192c85 325 161 564 235 922 77-354 157-598 244-922h191L1267 0h-179c-86-307-176-590-250-913C763-588 675-308 588 0H409" id="aH"/><g id="p"><use transform="matrix(0.008173828125000001,0,0,0.008173828125000001,0,0)" xlink:href="#Y"/><use transform="matrix(0.008173828125000001,0,0,0.008173828125000001,8.835908203125001,0)" xlink:href="#ak"/><use transform="matrix(0.008173828125000001,0,0,0.008173828125000001,18.595458984375,0)" xlink:href="#ai"/><use transform="matrix(0.008173828125000001,0,0,0.008173828125000001,23.507929687500003,0)" xlink:href="#aF"/><use transform="matrix(0.008173828125000001,0,0,0.008173828125000001,34.31373046875,0)" xlink:href="#ac"/><use transform="matrix(0.008173828125000001,0,0,0.008173828125000001,38.36794921875,0)" xlink:href="#as"/><use transform="matrix(0.008173828125000001,0,0,0.008173828125000001,53.031796875,0)" xlink:href="#ak"/><use transform="matrix(0.008173828125000001,0,0,0.008173828125000001,62.79134765625,0)" xlink:href="#Y"/><use transform="matrix(0.008173828125000001,0,0,0.008173828125000001,71.627255859375,0)" xlink:href="#ai"/><use transform="matrix(0.008173828125000001,0,0,0.008173828125000001,77.18545898437499,0)" xlink:href="#aa"/><use transform="matrix(0.008173828125000001,0,0,0.008173828125000001,86.58536132812499,0)" xlink:href="#as"/><use transform="matrix(0.008173828125000001,0,0,0.008173828125000001,101.24920898437499,0)" xlink:href="#az"/><use transform="matrix(0.008173828125000001,0,0,0.008173828125000001,111.49918945312498,0)" xlink:href="#aq"/><use transform="matrix(0.008173828125000001,0,0,0.008173828125000001,117.60503906249998,0)" xlink:href="#aG"/><use transform="matrix(0.008173828125000001,0,0,0.008173828125000001,130.21725585937497,0)" xlink:href="#ad"/><use transform="matrix(0.008173828125000001,0,0,0.008173828125000001,139.95228515624996,0)" xlink:href="#aH"/><use transform="matrix(0.008173828125000001,0,0,0.008173828125000001,153.65162109374995,0)" xlink:href="#aq"/><use transform="matrix(0.008173828125000001,0,0,0.008173828125000001,159.75747070312497,0)" xlink:href="#ar"/><use transform="matrix(0.008173828125000001,0,0,0.008173828125000001,165.86332031249998,0)" xlink:href="#ar"/></g><g id="q"><use transform="matrix(0.008173828125000001,0,0,0.008173828125000001,0,0)" xlink:href="#Y"/><use transform="matrix(0.008173828125000001,0,0,0.008173828125000001,8.835908203125001,0)" xlink:href="#ak"/><use transform="matrix(0.008173828125000001,0,0,0.008173828125000001,18.595458984375,0)" xlink:href="#ai"/><use transform="matrix(0.008173828125000001,0,0,0.008173828125000001,24.071923828125,0)" xlink:href="#ap"/><use transform="matrix(0.008173828125000001,0,0,0.008173828125000001,34.13390625,0)" xlink:href="#aj"/><use transform="matrix(0.008173828125000001,0,0,0.008173828125000001,38.188125,0)" xlink:href="#ac"/><use transform="matrix(0.008173828125000001,0,0,0.008173828125000001,42.24234375,0)" xlink:href="#as"/><use transform="matrix(0.008173828125000001,0,0,0.008173828125000001,56.90619140625,0)" xlink:href="#ac"/><use transform="matrix(0.008173828125000001,0,0,0.008173828125000001,60.960410156250006,0)" xlink:href="#ah"/><use transform="matrix(0.008173828125000001,0,0,0.008173828125000001,70.8507421875,0)" xlink:href="#aa"/><use transform="matrix(0.008173828125000001,0,0,0.008173828125000001,80.25064453125,0)" xlink:href="#ax"/><use transform="matrix(0.008173828125000001,0,0,0.008173828125000001,90.500625,0)" xlink:href="#ad"/><use transform="matrix(0.008173828125000001,0,0,0.008173828125000001,100.5380859375,0)" xlink:href="#aq"/><use transform="matrix(0.008173828125000001,0,0,0.008173828125000001,106.643935546875,0)" xlink:href="#am"/><use transform="matrix(0.008173828125000001,0,0,0.008173828125000001,112.57813476562501,0)" xlink:href="#aa"/><use transform="matrix(0.008173828125000001,0,0,0.008173828125000001,121.97803710937501,0)" xlink:href="#aj"/><use transform="matrix(0.008173828125000001,0,0,0.008173828125000001,126.03225585937501,0)" xlink:href="#Y"/><use transform="matrix(0.008173828125000001,0,0,0.008173828125000001,134.8681640625,0)" xlink:href="#ak"/><use transform="matrix(0.008173828125000001,0,0,0.008173828125000001,144.439716796875,0)" xlink:href="#ar"/></g><g id="r"><use transform="matrix(0.010850694444444444,0,0,0.010850694444444444,0,0)" xlink:href="#as"/><use transform="matrix(0.010850694444444444,0,0,0.010850694444444444,19.466145833333332,0)" xlink:href="#ad"/><use transform="matrix(0.010850694444444444,0,0,0.010850694444444444,32.35677083333333,0)" xlink:href="#ao"/><use transform="matrix(0.010850694444444444,0,0,0.010850694444444444,44.845920138888886,0)" xlink:href="#au"/></g><g id="s"><use transform="matrix(0.010850694444444444,0,0,0.010850694444444444,0,0)" xlink:href="#aw"/><use transform="matrix(0.010850694444444444,0,0,0.010850694444444444,20.07378472222222,0)" xlink:href="#ad"/><use transform="matrix(0.010850694444444444,0,0,0.010850694444444444,32.96440972222222,0)" xlink:href="#ao"/><use transform="matrix(0.010850694444444444,0,0,0.010850694444444444,45.45355902777778,0)" xlink:href="#ac"/><use transform="matrix(0.010850694444444444,0,0,0.010850694444444444,50.83550347222222,0)" xlink:href="#as"/><use transform="matrix(0.010850694444444444,0,0,0.010850694444444444,70.30164930555556,0)" xlink:href="#ac"/><use transform="matrix(0.010850694444444444,0,0,0.010850694444444444,75.68359375,0)" xlink:href="#ak"/><use transform="matrix(0.010850694444444444,0,0,0.010850694444444444,88.63932291666667,0)" xlink:href="#ah"/><use transform="matrix(0.010850694444444444,0,0,0.010850694444444444,101.76866319444444,0)" xlink:href="#ai"/><use transform="matrix(0.010850694444444444,0,0,0.010850694444444444,108.82161458333333,0)" xlink:href="#ad"/></g><g id="t"><use transform="matrix(0.008173828125000001,0,0,0.008173828125000001,0,0)" xlink:href="#Y"/><use transform="matrix(0.008173828125000001,0,0,0.008173828125000001,8.835908203125001,0)" xlink:href="#ak"/><use transform="matrix(0.008173828125000001,0,0,0.008173828125000001,18.595458984375,0)" xlink:href="#ai"/><use transform="matrix(0.008173828125000001,0,0,0.008173828125000001,23.507929687500003,0)" xlink:href="#aF"/><use transform="matrix(0.008173828125000001,0,0,0.008173828125000001,34.31373046875,0)" xlink:href="#ac"/><use transform="matrix(0.008173828125000001,0,0,0.008173828125000001,38.36794921875,0)" xlink:href="#az"/><use transform="matrix(0.008173828125000001,0,0,0.008173828125000001,48.617929687499995,0)" xlink:href="#ad"/><use transform="matrix(0.008173828125000001,0,0,0.008173828125000001,58.655390625,0)" xlink:href="#aq"/><use transform="matrix(0.008173828125000001,0,0,0.008173828125000001,64.76124023437501,0)" xlink:href="#ai"/><use transform="matrix(0.008173828125000001,0,0,0.008173828125000001,70.237705078125,0)" xlink:href="#ac"/><use transform="matrix(0.008173828125000001,0,0,0.008173828125000001,74.29192382812501,0)" xlink:href="#az"/><use transform="matrix(0.008173828125000001,0,0,0.008173828125000001,84.541904296875,0)" xlink:href="#ad"/><use transform="matrix(0.008173828125000001,0,0,0.008173828125000001,94.39136718750001,0)" xlink:href="#ar"/></g><g id="u"><use transform="matrix(0.008173828125000001,0,0,0.008173828125000001,0,0)" xlink:href="#Y"/><use transform="matrix(0.008173828125000001,0,0,0.008173828125000001,8.835908203125001,0)" xlink:href="#ak"/><use transform="matrix(0.008173828125000001,0,0,0.008173828125000001,18.595458984375,0)" xlink:href="#ai"/><use transform="matrix(0.008173828125000001,0,0,0.008173828125000001,24.071923828125,0)" xlink:href="#X"/><use transform="matrix(0.008173828125000001,0,0,0.008173828125000001,36.528837890625,0)" xlink:href="#Y"/><use transform="matrix(0.008173828125000001,0,0,0.008173828125000001,45.36474609375,0)" xlink:href="#ak"/><use transform="matrix(0.008173828125000001,0,0,0.008173828125000001,55.124296875,0)" xlink:href="#ab"/><use transform="matrix(0.008173828125000001,0,0,0.008173828125000001,61.426318359375,0)" xlink:href="#aq"/><use transform="matrix(0.008173828125000001,0,0,0.008173828125000001,67.53216796875,0)" xlink:href="#Z"/><use transform="matrix(0.008173828125000001,0,0,0.008173828125000001,77.43067382812501,0)" xlink:href="#Y"/><use transform="matrix(0.008173828125000001,0,0,0.008173828125000001,86.26658203125001,0)" xlink:href="#ak"/><use transform="matrix(0.008173828125000001,0,0,0.008173828125000001,96.02613281250001,0)" xlink:href="#ab"/><use transform="matrix(0.008173828125000001,0,0,0.008173828125000001,102.32815429687501,0)" xlink:href="#ar"/></g><g id="v"><use transform="matrix(0.010850694444444444,0,0,0.010850694444444444,0,0)" xlink:href="#aw"/><use transform="matrix(0.010850694444444444,0,0,0.010850694444444444,20.07378472222222,0)" xlink:href="#ad"/><use transform="matrix(0.010850694444444444,0,0,0.010850694444444444,32.96440972222222,0)" xlink:href="#ao"/><use transform="matrix(0.010850694444444444,0,0,0.010850694444444444,45.45355902777778,0)" xlink:href="#ac"/><use transform="matrix(0.010850694444444444,0,0,0.010850694444444444,50.83550347222222,0)" xlink:href="#as"/><use transform="matrix(0.010850694444444444,0,0,0.010850694444444444,70.30164930555556,0)" xlink:href="#ac"/><use transform="matrix(0.010850694444444444,0,0,0.010850694444444444,75.68359375,0)" xlink:href="#ak"/><use transform="matrix(0.010850694444444444,0,0,0.010850694444444444,88.63932291666667,0)" xlink:href="#ah"/><use transform="matrix(0.010850694444444444,0,0,0.010850694444444444,101.76866319444444,0)" xlink:href="#ai"/><use transform="matrix(0.010850694444444444,0,0,0.010850694444444444,108.82161458333333,0)" xlink:href="#ad"/><use transform="matrix(0.010850694444444444,0,0,0.010850694444444444,122.1462673611111,0)" xlink:href="#ay"/><use transform="matrix(0.010850694444444444,0,0,0.010850694444444444,136.12196180555554,0)" xlink:href="#ak"/><use transform="matrix(0.010850694444444444,0,0,0.010850694444444444,149.0776909722222,0)" xlink:href="#az"/><use transform="matrix(0.010850694444444444,0,0,0.010850694444444444,162.68446180555554,0)" xlink:href="#ad"/><use transform="matrix(0.010850694444444444,0,0,0.010850694444444444,176.00911458333331,0)" xlink:href="#Y"/><use transform="matrix(0.010850694444444444,0,0,0.010850694444444444,187.73871527777777,0)" xlink:href="#ac"/><use transform="matrix(0.010850694444444444,0,0,0.010850694444444444,193.12065972222223,0)" xlink:href="#ai"/><use transform="matrix(0.010850694444444444,0,0,0.010850694444444444,200.17361111111111,0)" xlink:href="#ad"/><use transform="matrix(0.010850694444444444,0,0,0.010850694444444444,213.49826388888889,0)" xlink:href="#ab"/><use transform="matrix(0.010850694444444444,0,0,0.010850694444444444,222.21137152777777,0)" xlink:href="#aA"/></g><path d="M174-520v-126l944-476v196L406-588v12l712 338v194" id="aI"/><path d="M1181-520L237-44v-194l712-338v-12L237-926v-196l944 476v126" id="aJ"/><g id="w"><use transform="matrix(0.008173828125000001,0,0,0.008173828125000001,0,0)" xlink:href="#aC"/><use transform="matrix(0.008173828125000001,0,0,0.008173828125000001,12.800214843750002,0)" xlink:href="#az"/><use transform="matrix(0.008173828125000001,0,0,0.008173828125000001,23.0501953125,0)" xlink:href="#ai"/><use transform="matrix(0.008173828125000001,0,0,0.008173828125000001,28.526660156250003,0)" xlink:href="#ac"/><use transform="matrix(0.008173828125000001,0,0,0.008173828125000001,32.58087890625001,0)" xlink:href="#ad"/><use transform="matrix(0.008173828125000001,0,0,0.008173828125000001,42.61833984375001,0)" xlink:href="#ah"/><use transform="matrix(0.008173828125000001,0,0,0.008173828125000001,52.508671875000005,0)" xlink:href="#aa"/><use transform="matrix(0.008173828125000001,0,0,0.008173828125000001,61.908574218750005,0)" xlink:href="#aj"/><use transform="matrix(0.008173828125000001,0,0,0.008173828125000001,65.96279296875001,0)" xlink:href="#aI"/><use transform="matrix(0.008173828125000001,0,0,0.008173828125000001,77.03833007812501,0)" xlink:href="#aw"/><use transform="matrix(0.008173828125000001,0,0,0.008173828125000001,92.15991210937501,0)" xlink:href="#ad"/><use transform="matrix(0.008173828125000001,0,0,0.008173828125000001,101.87041992187501,0)" xlink:href="#ao"/><use transform="matrix(0.008173828125000001,0,0,0.008173828125000001,111.27849609375001,0)" xlink:href="#as"/><use transform="matrix(0.008173828125000001,0,0,0.008173828125000001,125.94234375,0)" xlink:href="#ac"/><use transform="matrix(0.008173828125000001,0,0,0.008173828125000001,129.9965625,0)" xlink:href="#ak"/><use transform="matrix(0.008173828125000001,0,0,0.008173828125000001,139.75611328125,0)" xlink:href="#ah"/><use transform="matrix(0.008173828125000001,0,0,0.008173828125000001,149.64644531250002,0)" xlink:href="#ai"/><use transform="matrix(0.008173828125000001,0,0,0.008173828125000001,154.95943359375002,0)" xlink:href="#ad"/><use transform="matrix(0.008173828125000001,0,0,0.008173828125000001,164.99689453125,0)" xlink:href="#aJ"/></g><g id="x"><use transform="matrix(0.008173828125000001,0,0,0.008173828125000001,0,0)" xlink:href="#at"/><use transform="matrix(0.008173828125000001,0,0,0.008173828125000001,10.249980468750001,0)" xlink:href="#Z"/><use transform="matrix(0.008173828125000001,0,0,0.008173828125000001,20.148486328125003,0)" xlink:href="#Y"/><use transform="matrix(0.008173828125000001,0,0,0.008173828125000001,28.984394531250004,0)" xlink:href="#af"/><use transform="matrix(0.008173828125000001,0,0,0.008173828125000001,38.71125000000001,0)" xlink:href="#aa"/><use transform="matrix(0.008173828125000001,0,0,0.008173828125000001,48.11115234375001,0)" xlink:href="#ab"/><use transform="matrix(0.008173828125000001,0,0,0.008173828125000001,54.41317382812501,0)" xlink:href="#X"/><use transform="matrix(0.008173828125000001,0,0,0.008173828125000001,66.87008789062502,0)" xlink:href="#aj"/><use transform="matrix(0.008173828125000001,0,0,0.008173828125000001,71.16952148437503,0)" xlink:href="#ai"/><use transform="matrix(0.008173828125000001,0,0,0.008173828125000001,76.64598632812502,0)" xlink:href="#ac"/><use transform="matrix(0.008173828125000001,0,0,0.008173828125000001,80.70020507812502,0)" xlink:href="#as"/><use transform="matrix(0.008173828125000001,0,0,0.008173828125000001,95.36405273437502,0)" xlink:href="#ad"/><use transform="matrix(0.008173828125000001,0,0,0.008173828125000001,105.40151367187502,0)" xlink:href="#aw"/><use transform="matrix(0.008173828125000001,0,0,0.008173828125000001,120.52309570312502,0)" xlink:href="#ad"/><use transform="matrix(0.008173828125000001,0,0,0.008173828125000001,130.23360351562502,0)" xlink:href="#ao"/><use transform="matrix(0.008173828125000001,0,0,0.008173828125000001,139.64167968750002,0)" xlink:href="#ac"/><use transform="matrix(0.008173828125000001,0,0,0.008173828125000001,143.6958984375,0)" xlink:href="#as"/><use transform="matrix(0.008173828125000001,0,0,0.008173828125000001,158.35974609375003,0)" xlink:href="#ac"/><use transform="matrix(0.008173828125000001,0,0,0.008173828125000001,162.41396484375,0)" xlink:href="#ak"/><use transform="matrix(0.008173828125000001,0,0,0.008173828125000001,172.173515625,0)" xlink:href="#ah"/><use transform="matrix(0.008173828125000001,0,0,0.008173828125000001,182.06384765625,0)" xlink:href="#ai"/><use transform="matrix(0.008173828125000001,0,0,0.008173828125000001,187.3768359375,0)" xlink:href="#ad"/><use transform="matrix(0.008173828125000001,0,0,0.008173828125000001,197.414296875,0)" xlink:href="#aq"/><use transform="matrix(0.008173828125000001,0,0,0.008173828125000001,203.520146484375,0)" xlink:href="#Y"/><use transform="matrix(0.008173828125000001,0,0,0.008173828125000001,212.3560546875,0)" xlink:href="#ad"/><use transform="matrix(0.008173828125000001,0,0,0.008173828125000001,222.39351562500002,0)" xlink:href="#af"/><use transform="matrix(0.008173828125000001,0,0,0.008173828125000001,231.95689453125001,0)" xlink:href="#ac"/><use transform="matrix(0.008173828125000001,0,0,0.008173828125000001,236.01111328125,0)" xlink:href="#ad"/><use transform="matrix(0.008173828125000001,0,0,0.008173828125000001,246.04857421875,0)" xlink:href="#al"/><use transform="matrix(0.008173828125000001,0,0,0.008173828125000001,250.5441796875,0)" xlink:href="#ax"/><use transform="matrix(0.008173828125000001,0,0,0.008173828125000001,260.79416015625,0)" xlink:href="#ar"/></g><g id="y"><use transform="matrix(0.008680555555555556,0,0,0.008680555555555556,0,0)" xlink:href="#Y"/><use transform="matrix(0.008680555555555556,0,0,0.008680555555555556,9.383680555555555,0)" xlink:href="#aa"/><use transform="matrix(0.008680555555555556,0,0,0.008680555555555556,19.10590277777778,0)" xlink:href="#ao"/><use transform="matrix(0.008680555555555556,0,0,0.008680555555555556,28.75,0)" xlink:href="#ak"/><use transform="matrix(0.008680555555555556,0,0,0.008680555555555556,39.114583333333336,0)" xlink:href="#aq"/><use transform="matrix(0.008680555555555556,0,0,0.008680555555555556,45.598958333333336,0)" xlink:href="#as"/><use transform="matrix(0.008680555555555556,0,0,0.008680555555555556,61.171875,0)" xlink:href="#ad"/><use transform="matrix(0.008680555555555556,0,0,0.008680555555555556,71.484375,0)" xlink:href="#ao"/><use transform="matrix(0.008680555555555556,0,0,0.008680555555555556,81.47569444444444,0)" xlink:href="#ar"/></g><g id="z"><use transform="matrix(0.008173828125000001,0,0,0.008173828125000001,0,0)" xlink:href="#ao"/><use transform="matrix(0.008173828125000001,0,0,0.008173828125000001,9.081123046875001,0)" xlink:href="#ad"/><use transform="matrix(0.008173828125000001,0,0,0.008173828125000001,19.118583984375,0)" xlink:href="#ac"/><use transform="matrix(0.008173828125000001,0,0,0.008173828125000001,23.172802734375,0)" xlink:href="#ax"/><use transform="matrix(0.008173828125000001,0,0,0.008173828125000001,33.422783203125,0)" xlink:href="#au"/></g><g id="A"><use transform="matrix(0.008173828125000001,0,0,0.008173828125000001,0,0)" xlink:href="#az"/><use transform="matrix(0.008173828125000001,0,0,0.008173828125000001,10.249980468750001,0)" xlink:href="#ak"/><use transform="matrix(0.008173828125000001,0,0,0.008173828125000001,20.009531250000002,0)" xlink:href="#ab"/><use transform="matrix(0.008173828125000001,0,0,0.008173828125000001,26.311552734375002,0)" xlink:href="#Y"/><use transform="matrix(0.008173828125000001,0,0,0.008173828125000001,35.1474609375,0)" xlink:href="#ac"/><use transform="matrix(0.008173828125000001,0,0,0.008173828125000001,39.201679687500004,0)" xlink:href="#Y"/><use transform="matrix(0.008173828125000001,0,0,0.008173828125000001,48.037587890625005,0)" xlink:href="#ai"/><use transform="matrix(0.008173828125000001,0,0,0.008173828125000001,53.51405273437501,0)" xlink:href="#aq"/><use transform="matrix(0.008173828125000001,0,0,0.008173828125000001,59.619902343750006,0)" xlink:href="#as"/><use transform="matrix(0.008173828125000001,0,0,0.008173828125000001,74.28375000000001,0)" xlink:href="#ad"/><use transform="matrix(0.008173828125000001,0,0,0.008173828125000001,83.99425781250001,0)" xlink:href="#ao"/><use transform="matrix(0.008173828125000001,0,0,0.008173828125000001,93.402333984375,0)" xlink:href="#ar"/></g><g id="B"><use transform="matrix(0.010850694444444444,0,0,0.010850694444444444,0,0)" xlink:href="#aa"/><use transform="matrix(0.010850694444444444,0,0,0.010850694444444444,12.47829861111111,0)" xlink:href="#aj"/><use transform="matrix(0.010850694444444444,0,0,0.010850694444444444,18.18576388888889,0)" xlink:href="#ai"/></g><g id="C"><use transform="matrix(0.010850694444444444,0,0,0.010850694444444444,0,0)" xlink:href="#ap"/><use transform="matrix(0.010850694444444444,0,0,0.010850694444444444,13.35720486111111,0)" xlink:href="#ab"/><use transform="matrix(0.010850694444444444,0,0,0.010850694444444444,22.0703125,0)" xlink:href="#ab"/><use transform="matrix(0.010850694444444444,0,0,0.010850694444444444,30.06727430555556,0)" xlink:href="#ad"/><use transform="matrix(0.010850694444444444,0,0,0.010850694444444444,43.391927083333336,0)" xlink:href="#ab"/></g><path d="M600 0L52-1490h200c166 485 304 806 458 1336 156-533 285-846 449-1336h202L819 0H600" id="aK"/><path d="M613 24c-304 0-509-231-509-576 0-350 205-580 509-580 305 0 511 230 511 580 0 345-206 576-511 576zm0-161c226 0 329-195 329-415 0-222-103-419-329-419-223 0-326 196-326 419 0 220 103 415 326 415zm-79-1127l140-294h201l-194 294H534" id="aL"/><g id="D"><use transform="matrix(0.010850694444444444,0,0,0.010850694444444444,0,0)" xlink:href="#aK"/><use transform="matrix(0.010850694444444444,0,0,0.010850694444444444,14.20355902777778,0)" xlink:href="#aa"/><use transform="matrix(0.010850694444444444,0,0,0.010850694444444444,26.68185763888889,0)" xlink:href="#aj"/><use transform="matrix(0.010850694444444444,0,0,0.010850694444444444,32.063802083333336,0)" xlink:href="#ac"/><use transform="matrix(0.010850694444444444,0,0,0.010850694444444444,37.44574652777778,0)" xlink:href="#ax"/><use transform="matrix(0.010850694444444444,0,0,0.010850694444444444,51.05251736111112,0)" xlink:href="#aa"/><use transform="matrix(0.010850694444444444,0,0,0.010850694444444444,63.53081597222223,0)" xlink:href="#af"/><use transform="matrix(0.010850694444444444,0,0,0.010850694444444444,76.22612847222223,0)" xlink:href="#ac"/><use transform="matrix(0.010850694444444444,0,0,0.010850694444444444,81.60807291666667,0)" xlink:href="#aL"/><use transform="matrix(0.010850694444444444,0,0,0.010850694444444444,94.93272569444444,0)" xlink:href="#ah"/><use transform="matrix(0.010850694444444444,0,0,0.010850694444444444,108.06206597222221,0)" xlink:href="#au"/></g><path d="M232-923l-22-567h194l-22 567H232zm340 0l-22-567h194l-22 567H572" id="aM"/><g id="E"><use transform="matrix(0.010850694444444444,0,0,0.010850694444444444,0,0)" xlink:href="#aM"/><use transform="matrix(0.010850694444444444,0,0,0.010850694444444444,10.3515625,0)" xlink:href="#ap"/><use transform="matrix(0.010850694444444444,0,0,0.010850694444444444,23.70876736111111,0)" xlink:href="#aj"/></g><path d="M645 0H180v-1490h484c435 0 692 280 692 742 0 466-257 748-711 748zM370-168h263c363 0 539-218 539-580 0-358-176-574-521-574H370v1154" id="aN"/><g id="F"><use transform="matrix(0.010850694444444444,0,0,0.010850694444444444,0,0)" xlink:href="#aN"/><use transform="matrix(0.010850694444444444,0,0,0.010850694444444444,16.03732638888889,0)" xlink:href="#aG"/><use transform="matrix(0.010850694444444444,0,0,0.010850694444444444,32.77994791666667,0)" xlink:href="#al"/></g><g id="G"><use transform="matrix(0.010850694444444444,0,0,0.010850694444444444,0,0)" xlink:href="#ac"/><use transform="matrix(0.010850694444444444,0,0,0.010850694444444444,5.381944444444445,0)" xlink:href="#ah"/><use transform="matrix(0.010850694444444444,0,0,0.010850694444444444,18.51128472222222,0)" xlink:href="#av"/><use transform="matrix(0.010850694444444444,0,0,0.010850694444444444,32.13975694444444,0)" xlink:href="#ab"/><use transform="matrix(0.010850694444444444,0,0,0.010850694444444444,40.13671875,0)" xlink:href="#ak"/><use transform="matrix(0.010850694444444444,0,0,0.010850694444444444,53.092447916666664,0)" xlink:href="#Y"/><use transform="matrix(0.010850694444444444,0,0,0.010850694444444444,64.82204861111111,0)" xlink:href="#aa"/><use transform="matrix(0.010850694444444444,0,0,0.010850694444444444,77.30034722222223,0)" xlink:href="#ax"/><use transform="matrix(0.010850694444444444,0,0,0.010850694444444444,90.90711805555556,0)" xlink:href="#ad"/></g><g id="H"><use transform="matrix(0.010850694444444444,0,0,0.010850694444444444,0,0)" xlink:href="#ah"/><use transform="matrix(0.010850694444444444,0,0,0.010850694444444444,13.129340277777777,0)" xlink:href="#ad"/></g><g id="I"><use transform="matrix(0.010850694444444444,0,0,0.010850694444444444,0,0)" xlink:href="#ak"/><use transform="matrix(0.010850694444444444,0,0,0.010850694444444444,12.955729166666666,0)" xlink:href="#Y"/></g><path d="M471 26C259 26 90-98 90-318c0-256 228-303 435-329 202-27 287-16 287-108 0-139-79-219-234-219-161 0-248 86-283 164l-173-57c86-203 278-265 451-265 150 0 419 46 419 395V0H815v-152h-12C765-73 660 26 471 26zm31-159c199 0 310-134 310-271v-155c-30 35-226 55-295 64-131 17-246 59-246 186 0 116 97 176 231 176zm-23-1131l140-294h201l-194 294H479" id="aO"/><g id="J"><use transform="matrix(0.010850694444444444,0,0,0.010850694444444444,0,0)" xlink:href="#ao"/><use transform="matrix(0.010850694444444444,0,0,0.010850694444444444,12.38064236111111,0)" xlink:href="#aO"/><use transform="matrix(0.010850694444444444,0,0,0.010850694444444444,24.85894097222222,0)" xlink:href="#aj"/><use transform="matrix(0.010850694444444444,0,0,0.010850694444444444,30.240885416666664,0)" xlink:href="#ac"/><use transform="matrix(0.010850694444444444,0,0,0.010850694444444444,35.62282986111111,0)" xlink:href="#ax"/><use transform="matrix(0.010850694444444444,0,0,0.010850694444444444,49.22960069444444,0)" xlink:href="#ad"/><use transform="matrix(0.010850694444444444,0,0,0.010850694444444444,62.228732638888886,0)" xlink:href="#aM"/></g><path fill="#333" d="M135 0v-1490h468l242 684c30 94 76 293 111 455 34-161 80-360 110-455l238-684h470V0h-307c0-447-3-765 11-1227-122 503-246 788-395 1227H826C676-435 552-717 427-1215c15 453 11 775 11 1215H135" id="aP"/><path fill="#333" d="M633 22C291 22 81-200 81-553c0-345 210-579 537-579 292 0 525 185 525 567v84H378c7 183 109 277 260 277 105 0 184-46 216-132l272 51C1071-99 893 22 633 22zM380-669h474c-15-146-94-237-233-237-143 0-229 99-241 237" id="aQ"/><path fill="#333" d="M428-647V0H128v-1118h283l4 231c63-156 176-245 348-245 232 0 384 159 384 421V0H847v-659c0-139-76-222-202-222-128 0-217 86-217 234" id="aR"/><path fill="#333" d="M572 22C302 22 117-98 78-306l279-48c29 105 101 156 224 156 114 0 185-48 185-115 0-118-228-130-337-155-215-49-322-150-322-317 0-215 187-347 470-347 265 0 424 116 466 298l-266 47c-24-76-87-130-196-130-98 0-174 46-174 113 0 56 38 95 144 117l201 40c216 44 320 143 320 302 0 220-207 367-500 367" id="aS"/><path fill="#333" d="M440 22C227 22 68-92 68-313c0-250 202-322 422-343 195-21 271-24 271-105 0-95-63-149-175-149-116 0-187 57-211 129l-275-46c57-194 237-305 487-305 240 0 474 108 474 379V0H777v-155h-10C713-51 605 22 440 22zm85-211c140 0 238-93 238-211v-121c-37 26-156 42-222 51-111 16-185 59-185 149 0 87 70 132 169 132" id="aT"/><path fill="#333" d="M127-1118h301V57c1 278-186 374-478 361V182c116 8 177-28 177-129v-1171zm151-146c-90 0-165-68-165-154 0-85 75-154 165-154s165 69 165 154c0 86-75 154-165 154" id="aU"/><g id="K"><use transform="matrix(0.008680555555555556,0,0,0.008680555555555556,0,0)" xlink:href="#aP"/><use transform="matrix(0.008680555555555556,0,0,0.008680555555555556,16.5625,0)" xlink:href="#aQ"/><use transform="matrix(0.008680555555555556,0,0,0.008680555555555556,27.15277777777778,0)" xlink:href="#aR"/><use transform="matrix(0.008680555555555556,0,0,0.008680555555555556,38.220486111111114,0)" xlink:href="#aS"/><use transform="matrix(0.008680555555555556,0,0,0.008680555555555556,48.177083333333336,0)" xlink:href="#aT"/><use transform="matrix(0.008680555555555556,0,0,0.008680555555555556,58.49826388888889,0)" xlink:href="#aU"/><use transform="matrix(0.008680555555555556,0,0,0.008680555555555556,63.31597222222223,0)" xlink:href="#aQ"/></g><path fill="#333" d="M135 0v-1490h997v253H440v360h640v249H440v375h694V0H135" id="aV"/><path fill="#333" d="M128 0v-1118h290v195h12c54-169 184-238 367-200v268c-27-8-86-15-130-15-138 0-239 95-239 234V0H128" id="aW"/><path fill="#333" d="M628 22C291 22 81-210 81-554c0-346 210-578 547-578 336 0 547 232 547 578 0 344-211 576-547 576zm0-236c160 0 242-146 242-341 0-197-82-341-242-341S387-753 387-555c0 195 81 341 241 341" id="aX"/><g id="L"><use transform="matrix(0.008680555555555556,0,0,0.008680555555555556,0,0)" xlink:href="#aV"/><use transform="matrix(0.008680555555555556,0,0,0.008680555555555556,10.79861111111111,0)" xlink:href="#aW"/><use transform="matrix(0.008680555555555556,0,0,0.008680555555555556,18.16840277777778,0)" xlink:href="#aW"/><use transform="matrix(0.008680555555555556,0,0,0.008680555555555556,24.973958333333336,0)" xlink:href="#aX"/><use transform="matrix(0.008680555555555556,0,0,0.008680555555555556,35.876736111111114,0)" xlink:href="#aW"/></g><g id="M"><use transform="matrix(0.010850694444444444,0,0,0.010850694444444444,0,0)" xlink:href="#Y"/><use transform="matrix(0.010850694444444444,0,0,0.010850694444444444,11.729600694444445,0)" xlink:href="#ad"/><use transform="matrix(0.010850694444444444,0,0,0.010850694444444444,25.05425347222222,0)" xlink:href="#af"/><use transform="matrix(0.010850694444444444,0,0,0.010850694444444444,37.74956597222222,0)" xlink:href="#ac"/><use transform="matrix(0.010850694444444444,0,0,0.010850694444444444,43.131510416666664,0)" xlink:href="#ad"/></g><use transform="matrix(0.010850694444444444,0,0,0.010850694444444444,0,0)" xlink:href="#au" id="N"/><g id="O"><use transform="matrix(0.010850694444444444,0,0,0.010850694444444444,0,0)" xlink:href="#ae"/><use transform="matrix(0.010850694444444444,0,0,0.010850694444444444,14.2578125,0)" xlink:href="#ad"/><use transform="matrix(0.010850694444444444,0,0,0.010850694444444444,27.58246527777778,0)" xlink:href="#af"/><use transform="matrix(0.010850694444444444,0,0,0.010850694444444444,40.27777777777778,0)" xlink:href="#ac"/><use transform="matrix(0.010850694444444444,0,0,0.010850694444444444,45.65972222222222,0)" xlink:href="#ad"/></g><g id="P"><use transform="matrix(0.010850694444444444,0,0,0.010850694444444444,0,0)" xlink:href="#az"/><use transform="matrix(0.010850694444444444,0,0,0.010850694444444444,13.606770833333332,0)" xlink:href="#ak"/><use transform="matrix(0.010850694444444444,0,0,0.010850694444444444,26.5625,0)" xlink:href="#ab"/><use transform="matrix(0.010850694444444444,0,0,0.010850694444444444,35.275607638888886,0)" xlink:href="#ai"/><use transform="matrix(0.010850694444444444,0,0,0.010850694444444444,42.32855902777778,0)" xlink:href="#ak"/><use transform="matrix(0.010850694444444444,0,0,0.010850694444444444,55.28428819444444,0)" xlink:href="#ah"/><use transform="matrix(0.010850694444444444,0,0,0.010850694444444444,68.41362847222221,0)" xlink:href="#ak"/><use transform="matrix(0.010850694444444444,0,0,0.010850694444444444,81.36935763888889,0)" xlink:href="#af"/><use transform="matrix(0.010850694444444444,0,0,0.010850694444444444,94.06467013888889,0)" xlink:href="#ak"/></g><use transform="matrix(0.010850694444444444,0,0,0.010850694444444444,0,0)" xlink:href="#aa" id="Q"/><g id="R"><use transform="matrix(0.010850694444444444,0,0,0.010850694444444444,0,0)" xlink:href="#Z"/><use transform="matrix(0.010850694444444444,0,0,0.010850694444444444,13.140190972222221,0)" xlink:href="#ah"/></g><g id="S"><use transform="matrix(0.010850694444444444,0,0,0.010850694444444444,0,0)" xlink:href="#Y"/><use transform="matrix(0.010850694444444444,0,0,0.010850694444444444,11.729600694444445,0)" xlink:href="#ad"/><use transform="matrix(0.010850694444444444,0,0,0.010850694444444444,25.05425347222222,0)" xlink:href="#af"/><use transform="matrix(0.010850694444444444,0,0,0.010850694444444444,37.74956597222222,0)" xlink:href="#ac"/><use transform="matrix(0.010850694444444444,0,0,0.010850694444444444,43.131510416666664,0)" xlink:href="#ad"/></g><g id="T"><use transform="matrix(0.010850694444444444,0,0,0.010850694444444444,0,0)" xlink:href="#aa"/><use transform="matrix(0.010850694444444444,0,0,0.010850694444444444,12.47829861111111,0)" xlink:href="#af"/><use transform="matrix(0.010850694444444444,0,0,0.010850694444444444,25.17361111111111,0)" xlink:href="#ai"/><use transform="matrix(0.010850694444444444,0,0,0.010850694444444444,32.443576388888886,0)" xlink:href="#ac"/><use transform="matrix(0.010850694444444444,0,0,0.010850694444444444,37.82552083333333,0)" xlink:href="#ao"/><use transform="matrix(0.010850694444444444,0,0,0.010850694444444444,49.88064236111111,0)" xlink:href="#ad"/><use transform="matrix(0.010850694444444444,0,0,0.010850694444444444,62.87977430555555,0)" xlink:href="#aM"/></g><g id="U"><use transform="matrix(0.010850694444444444,0,0,0.010850694444444444,0,0)" xlink:href="#Z"/><use transform="matrix(0.010850694444444444,0,0,0.010850694444444444,13.140190972222221,0)" xlink:href="#aj"/><use transform="matrix(0.010850694444444444,0,0,0.010850694444444444,18.84765625,0)" xlink:href="#ai"/><use transform="matrix(0.010850694444444444,0,0,0.010850694444444444,26.11762152777778,0)" xlink:href="#ac"/><use transform="matrix(0.010850694444444444,0,0,0.010850694444444444,31.49956597222222,0)" xlink:href="#as"/><use transform="matrix(0.010850694444444444,0,0,0.010850694444444444,50.96571180555556,0)" xlink:href="#ad"/><use transform="matrix(0.010850694444444444,0,0,0.010850694444444444,64.29036458333333,0)" xlink:href="#aw"/><use transform="matrix(0.010850694444444444,0,0,0.010850694444444444,84.36414930555554,0)" xlink:href="#ad"/><use transform="matrix(0.010850694444444444,0,0,0.010850694444444444,97.25477430555556,0)" xlink:href="#ao"/></g><use transform="matrix(0.010850694444444444,0,0,0.010850694444444444,0,0)" xlink:href="#au" id="V"/><g id="W"><use transform="matrix(0.010850694444444444,0,0,0.010850694444444444,0,0)" xlink:href="#aC"/><use transform="matrix(0.010850694444444444,0,0,0.010850694444444444,16.9921875,0)" xlink:href="#az"/><use transform="matrix(0.010850694444444444,0,0,0.010850694444444444,30.598958333333332,0)" xlink:href="#ai"/><use transform="matrix(0.010850694444444444,0,0,0.010850694444444444,37.86892361111111,0)" xlink:href="#ac"/><use transform="matrix(0.010850694444444444,0,0,0.010850694444444444,43.25086805555555,0)" xlink:href="#ad"/><use transform="matrix(0.010850694444444444,0,0,0.010850694444444444,56.57552083333333,0)" xlink:href="#ah"/><use transform="matrix(0.010850694444444444,0,0,0.010850694444444444,69.7048611111111,0)" xlink:href="#aa"/><use transform="matrix(0.010850694444444444,0,0,0.010850694444444444,82.18315972222221,0)" xlink:href="#aj"/><use transform="matrix(0.010850694444444444,0,0,0.010850694444444444,87.56510416666666,0)" xlink:href="#aI"/><use transform="matrix(0.010850694444444444,0,0,0.010850694444444444,102.26779513888889,0)" xlink:href="#aw"/><use transform="matrix(0.010850694444444444,0,0,0.010850694444444444,122.3415798611111,0)" xlink:href="#ad"/><use transform="matrix(0.010850694444444444,0,0,0.010850694444444444,135.23220486111111,0)" xlink:href="#ao"/><use transform="matrix(0.010850694444444444,0,0,0.010850694444444444,147.72135416666666,0)" xlink:href="#ac"/><use transform="matrix(0.010850694444444444,0,0,0.010850694444444444,153.10329861111111,0)" xlink:href="#as"/><use transform="matrix(0.010850694444444444,0,0,0.010850694444444444,172.56944444444446,0)" xlink:href="#ac"/><use transform="matrix(0.010850694444444444,0,0,0.010850694444444444,177.9513888888889,0)" xlink:href="#ak"/><use transform="matrix(0.010850694444444444,0,0,0.010850694444444444,190.9071180555556,0)" xlink:href="#ah"/><use transform="matrix(0.010850694444444444,0,0,0.010850694444444444,204.03645833333331,0)" xlink:href="#ai"/><use transform="matrix(0.010850694444444444,0,0,0.010850694444444444,211.08940972222223,0)" xlink:href="#ad"/><use transform="matrix(0.010850694444444444,0,0,0.010850694444444444,224.4140625,0)" xlink:href="#aJ"/></g></defs></g></svg>